<?xml version="1.0" standalone="no"?>
<!DOCTYPE svg PUBLIC "-//W3C//DTD SVG 1.1//EN" "http://www.w3.org/Graphics/SVG/1.1/DTD/svg11.dtd" >
<svg>
<metadata>
Created by FontForge 20120731 at Sun Sep  8 16:03:57 2019
 By www
Copyright 2014 by Joel Carrouche. All rights reserved.
</metadata>
<defs>
<font id="Linotte-Regular" horiz-adv-x="546" >
  <font-face 
    font-family="Linotte-Regular"
    font-weight="400"
    font-stretch="normal"
    units-per-em="1000"
    panose-1="0 0 0 0 0 0 0 0 0 0"
    ascent="759"
    descent="-241"
    x-height="457"
    cap-height="682"
    bbox="-86 -234 1091 920"
    underline-thickness="50"
    underline-position="-50"
    unicode-range="U+000D-1F426"
  />
<missing-glyph horiz-adv-x="668" 
d="M80 0v680h508v-680h-508zM125 635v-590h418v590h-418z" />
    <glyph glyph-name="f_f" unicode="ff" horiz-adv-x="655" 
d="M422 380h-218q0 -23 0.5 -131.5t0.5 -205.5q0 -49 -39 -49q-41 0 -41 46q0 218 -1 339h-55q-31 0 -44.5 7t-13.5 29q0 38 49 38h64v59q1 97 46.5 157t146.5 60q68 0 68 -43q0 -15 -7.5 -25t-20.5 -10q-11 0 -28 3t-28 3q-47 0 -72.5 -41.5t-25.5 -95.5v-67h219
q0 48 2.5 82t14 74.5t31 65.5t56.5 42t88 17q33 0 56 -11q18 -9 18 -33q0 -14 -9 -23.5t-22 -9.5q-7 0 -29 3t-32 2q-28 0 -47 -14.5t-28 -32.5t-14 -52t-5.5 -53.5t-0.5 -56.5h108q42 0 42 -37t-41 -37l-108 1q0 -23 0.5 -135.5t0.5 -208.5q0 -42 -39 -42q-22 0 -32 10.5
t-10 36.5v15v34v56v95v139z" />
    <glyph glyph-name="fi" unicode="fi" horiz-adv-x="575" 
d="M402 455q24 1 49 1q50 -3 48 -54q-1 0 -1 -181l1 -181q0 -23 -8.5 -34t-31.5 -11q-41 0 -41 43v342h-15q-33 0 -98.5 -0.5t-99.5 -0.5q0 -53 1 -169.5t1 -171.5q0 -42 -40 -42q-41 0 -41 40v343l-55 -1q-30 0 -44.5 7.5t-14.5 28.5q-1 18 11.5 28t38.5 10l64 1v47
q4 110 58.5 172.5t158.5 62.5q45 0 83 -12q33 -13 32 -38q0 -14 -9 -25t-22 -11q-11 0 -40.5 6t-52.5 6q-61 0 -95 -39.5t-34 -103.5v-65q73 0 197 2z" />
    <glyph glyph-name="fl" unicode="fl" horiz-adv-x="594" 
d="M317 377l-111 1q0 -38 0.5 -125.5t0.5 -126.5q0 -16 1 -47.5t1 -48.5q0 -36 -41 -36t-41 45l1 89q0 21 -1 111t0 139h-79q-35 0 -37 34q0 40 52 40h64v49q0 102 56 166t169 64q106 0 137 -11q26 -9 26 -62q-1 -164 -1 -494q0 -43 4 -131q0 -36 -41 -39q-42 -2 -43 58
q-2 72 -2.5 275.5t0.5 328.5q-25 3 -97 3q-62 0 -96 -45t-34 -106v-56h106q23 0 32.5 -9t9.5 -29q1 -16 -8 -26.5t-28 -10.5z" />
    <glyph glyph-name="f_f_i" unicode="ffi" horiz-adv-x="870" 
d="M691 455q14 0 32.5 0.5t19.5 0.5q52 0 52 -54q-1 -136 -1 -362q0 -23 -8 -34t-31 -11q-41 0 -41 43v342q-37 0 -106 -0.5t-104 -0.5q0 -53 0.5 -170t0.5 -171q0 -42 -40 -42q-41 0 -41 40v344h-222q0 -23 1 -131.5t1 -205.5q0 -49 -40 -49q-41 0 -41 46v339h-54
q-31 0 -44.5 7t-13.5 29q0 38 49 38h63v59q1 96 46.5 156.5t145.5 60.5q69 0 69 -43q0 -15 -7.5 -25t-21.5 -10q-11 0 -28 3t-27 3q-47 0 -72.5 -41.5t-25.5 -95.5v-67h222v51q0 107 56 169t159 62q49 0 81 -12q32 -11 32 -38q0 -14 -8.5 -25t-22.5 -11q-11 0 -39.5 6
t-51.5 6q-61 0 -94 -40t-33 -104v-64q39 0 99 1t89 1z" />
    <glyph glyph-name="f_f_l" unicode="ffl" horiz-adv-x="883" 
d="M611 378q-19 0 -56 0.5t-55 0.5q0 -7 2 -339q0 -46 -40 -46q-41 0 -41 42q0 209 -1 343h-216q-1 -36 0 -148t1 -190q0 -47 -39 -47q-41 0 -41 43q0 220 -1 341h-55q-31 0 -44.5 7t-13.5 29q0 14 6 22t22.5 11.5t29.5 4t42 0.5h13v59q1 96 46.5 154.5t145.5 58.5
q69 0 69 -41q0 -15 -8 -25t-22 -10q-9 0 -26 2.5t-28 1.5q-24 0 -41.5 -8t-27.5 -25t-16.5 -33t-9 -42.5t-3 -41.5t-0.5 -42v-8h218v50q0 102 59.5 165.5t171.5 63.5q100 0 127 -11q26 -9 26 -62q-1 -76 -1 -463q0 -23 1 -65t1 -62v-45q-4 -30 -38 -30q-25 0 -35 20.5
t-10 73.5q-4 166 -1 569q-25 3 -88 3q-62 0 -98.5 -43.5t-36.5 -107.5v-55h105q23 0 32.5 -9.5t10.5 -28.5q0 -37 -36 -37z" />
    <glyph glyph-name="f_f_j" unicode="ffj" horiz-adv-x="873" 
d="M716 379h-212q0 -53 0.5 -170t0.5 -171q0 -42 -40 -42q-41 0 -41 40v344h-222q0 -23 1 -131.5t1 -205.5q0 -49 -40 -49q-41 0 -41 46v339h-54q-31 0 -44.5 7t-13.5 29q0 38 49 38h63v59q1 96 46.5 156.5t145.5 60.5q69 0 69 -43q0 -15 -7.5 -25t-21.5 -10q-11 0 -28 3
t-27 3q-47 0 -72.5 -41.5t-25.5 -95.5v-67h222v51q0 107 56 169t159 62q48 0 81 -11q33 -12 32 -39q0 -14 -9 -25t-22 -11q-11 0 -39.5 6t-51.5 6q-61 0 -94 -40t-33 -104v-64q39 0 99 1t89 1q15 0 30 0.5t16 0.5q33 0 47 -16t14 -53l-1 -413q0 -114 -39 -160t-120 -46
q-79 0 -79 44q0 33 25 39q6 1 25 -1q23 -5 34 -4q22 0 37 9t22 25t10.5 37.5t3.5 46.5v51v364z" />
    <glyph glyph-name="f_j" unicode="fj" horiz-adv-x="582" 
d="M411 455q24 1 48 1q25 -2 36 -15.5t11 -46.5v-420q0 -114 -39 -160t-120 -46q-79 0 -79 44q0 33 24 39q6 1 25 -1q23 -5 34 -4q18 0 31.5 5.5t21.5 20t12.5 25t6 36.5t2 38t0.5 44v365l-220 -1q0 -53 1 -170t1 -171q0 -42 -40 -42q-41 0 -41 40v343q-9 0 -27.5 -0.5
t-27.5 -0.5q-30 0 -44.5 7.5t-14.5 28.5q0 14 6.5 22.5t23.5 12t30 4t42 0.5h12v54q2 105 58.5 166t156.5 61q57 0 84 -11q29 -12 29 -39q0 -15 -8.5 -25.5t-21.5 -10.5q-16 0 -44 5.5t-46 5.5q-58 0 -93.5 -40t-35.5 -104v-62q82 0 206 2z" />
    <glyph glyph-name=".notdef" horiz-adv-x="668" 
d="M80 0v680h508v-680h-508zM125 635v-590h418v590h-418z" />
    <glyph glyph-name=".null" horiz-adv-x="0" 
 />
    <glyph glyph-name="nonmarkingreturn" horiz-adv-x="333" 
 />
    <glyph glyph-name="NULL" horiz-adv-x="0" 
 />
    <glyph glyph-name="CR" unicode="&#xd;" horiz-adv-x="250" 
 />
    <glyph glyph-name="space" unicode=" " horiz-adv-x="246" 
 />
    <glyph glyph-name="exclam" unicode="!" horiz-adv-x="232" 
d="M78 407l-7 237q-1 20 10.5 31t33.5 11q26 0 34.5 -15t8.5 -51q-1 -150 -9 -372q-1 -36 -33 -36q-17 0 -24.5 10t-8.5 35zM114 -4q-22 0 -37.5 14t-15.5 37q0 24 16 41t40 17t39.5 -14.5t15.5 -38.5q0 -26 -16.5 -41t-41.5 -15z" />
    <glyph glyph-name="quotedbl" unicode="&#x22;" horiz-adv-x="323" 
d="M50 674q-1 16 9 26.5t30 10.5q34 0 34 -41q0 -26 -2 -83t-2 -64q-1 -37 -32 -37q-32 0 -32 34q0 15 -2.5 78t-2.5 76zM200 679q0 15 11 23.5t26 8.5t25.5 -9t10.5 -23q-2 -75 -5 -149q-2 -42 -32 -42q-31 0 -32 31q0 22 -2 80t-2 80z" />
    <glyph glyph-name="numbersign" unicode="#" horiz-adv-x="607" 
d="M319 35l21 134h-135l-19 -126q-4 -25 -13.5 -36t-28.5 -11q-18 0 -28 10t-6 29l20 134h-75q-31 0 -29 37q0 35 41 35h75l28 179h-75q-33 0 -31 35q1 37 43 37h75l23 149q6 40 42 40q16 0 26 -9.5t7 -24.5l-25 -155l136 -1l24 150q6 40 41 40q17 0 26.5 -9.5t6.5 -24.5
l-25 -156h83q34 0 32 -35q0 -20 -11.5 -28t-39.5 -8h-75l-28 -180h84q31 0 31 -34q-1 -37 -51 -37h-75l-20 -126q-3 -25 -12 -36t-28 -11q-41 0 -35 39zM244 420l-28 -179l135 -1l29 180h-136z" />
    <glyph glyph-name="dollar" unicode="$" horiz-adv-x="521" 
d="M233 733q0 35 32 35q34 0 34 -35v-64q70 -4 131 -34q26 -14 26 -38q0 -14 -10 -25t-25 -11q-11 0 -36 10q-56 27 -118 27q-53 0 -93.5 -33t-40.5 -80q0 -17 4.5 -30.5t17.5 -24t20.5 -16t32.5 -12.5l31 -9q7 -2 37 -9q45 -11 76.5 -23t61.5 -32.5t45 -52t15 -74.5
q0 -77 -46.5 -128t-126.5 -65v-68q1 -38 -35 -38q-33 0 -33 34v68q-91 3 -154 38q-34 19 -34 44q0 16 10.5 28t25.5 12q13 0 33 -9q68 -37 136 -37q63 0 103.5 31.5t40.5 85.5q0 26 -10 45.5t-32 32.5t-43 20.5t-55 15.5q-44 10 -74.5 20.5t-62 29.5t-47.5 49t-16 70
q0 70 52.5 122.5t126.5 64.5v65z" />
    <glyph glyph-name="percent" unicode="%" horiz-adv-x="782" 
d="M537 658q8 14 20.5 18.5t26.5 -1.5q30 -16 11 -53l-35 -55q-28 -44 -61 -98.5t-58 -99.5t-65 -111.5t-46 -78.5l-95 -164q-7 -13 -21.5 -17.5t-28.5 2.5q-12 7 -15.5 19.5t4.5 26.5l187 308zM33 492q0 76 35 132t106 56q66 0 106.5 -48.5t40.5 -126.5q0 -77 -43 -125.5
t-106 -48.5q-56 0 -97.5 47t-41.5 114zM174 620q-77 0 -77 -121q0 -44 20.5 -76t54.5 -32q39 0 61 30.5t22 85.5q0 51 -21 82t-60 31zM456 155q0 75 36.5 128.5t108.5 53.5q67 0 107 -48.5t40 -125.5q0 -76 -42 -123.5t-107 -47.5q-59 0 -101 47t-42 116zM601 280
q-41 0 -60.5 -34.5t-19.5 -85.5q0 -48 20 -79t57 -31q41 0 63 29t20 82q-2 119 -80 119z" />
    <glyph glyph-name="ampersand" unicode="&#x26;" horiz-adv-x="653" 
d="M393 632q0 -13 -8.5 -24t-21.5 -11q-14 0 -28 7q-37 14 -63 14q-41 0 -68.5 -28.5t-27.5 -68.5q0 -66 68 -142q85 -94 228 -212q15 30 15 61q1 36 -17 69t-48 38q-38 4 -38 35q0 36 39 36q6 0 24 -1.5t23 -1.5q1 0 111 5q40 2 40 -31q0 -30 -29 -34q-19 -3 -81 -5
q19 -14 32 -47t13 -64q0 -55 -25 -107q26 -21 80 -58q23 -15 23 -32q0 -13 -10 -25t-23 -12q-20 0 -37 12q-35 22 -78 57q-71 -71 -201 -71q-100 0 -170 58.5t-70 146.5q0 114 110 184q-53 74 -53 139q0 68 48.5 118t127.5 50q50 0 86 -18q29 -15 29 -37zM288 63
q86 0 137 48q-79 68 -222 213l-6 6q-74 -48 -74 -128q0 -61 47 -100t118 -39z" />
    <glyph glyph-name="quotesingle" unicode="'" horiz-adv-x="174" 
d="M48 675q1 35 41 35q36 0 36 -43q0 -71 -5 -136q-1 -23 -7.5 -34.5t-25.5 -11.5q-31 0 -33 35q-4 76 -6 155z" />
    <glyph glyph-name="parenleft" unicode="(" horiz-adv-x="273" 
d="M187 695q18 24 38 24q13 0 23.5 -10t10.5 -24q0 -10 -5 -18q-36 -60 -57 -103.5t-42 -127.5t-21 -176q0 -122 29 -209t85 -185q8 -19 8 -24q0 -13 -11 -23.5t-25 -10.5q-24 0 -42 33q-124 201 -122 418q1 233 131 436z" />
    <glyph glyph-name="parenright" unicode=")" horiz-adv-x="273" 
d="M86 695q130 -203 131 -436q2 -217 -122 -418q-18 -33 -42 -33q-14 0 -25 10.5t-11 23.5q0 5 8 24q56 98 85 185t29 209q0 92 -21 176t-42 127.5t-57 103.5q-5 8 -5 18q0 14 10.5 24t23.5 10q20 0 38 -24z" />
    <glyph glyph-name="asterisk" unicode="*" horiz-adv-x="365" 
d="M140 501l-85 20q-25 6 -25 29q0 13 10 20t25 3l93 -24l-3 97q0 31 27 31q29 0 29 -29l-2 -99l92 30q12 5 22.5 -3t10.5 -22q0 -19 -23 -26l-86 -27l69 -81q10 -13 10 -22q0 -10 -8.5 -18t-19.5 -8q-14 0 -32 23l-61 83l-53 -82q-17 -23 -31 -23q-11 0 -19.5 7.5
t-8.5 17.5q0 11 8 22z" />
    <glyph glyph-name="plus" unicode="+" horiz-adv-x="485" 
d="M56 234q-19 0 -27.5 12t-6.5 29q1 17 13 24t36 7h136v60v70v38q0 18 11 27t26 9q35 0 35 -45v-160h149q35 0 35 -35q0 -18 -9.5 -26.5t-33.5 -8.5q-22 -1 -142 -1q0 -31 0.5 -94.5t0.5 -72.5q0 -33 -39 -33q-33 1 -33 43v157h-151z" />
    <glyph glyph-name="comma" unicode="," horiz-adv-x="206" 
d="M37 -71q0 9 17.5 29t21.5 36q3 5 -3 11.5t-14 17.5t-8 25q0 23 15.5 38.5t38.5 15.5q24 0 40.5 -17.5t16.5 -42.5q0 -72 -73 -128q-14 -10 -27 -10q-8 0 -16.5 7.5t-8.5 17.5z" />
    <glyph glyph-name="hyphen" unicode="-" horiz-adv-x="353" 
d="M78 202q-19 0 -29 10.5t-10 26.5q0 38 47 38h187q40 0 40 -35q0 -21 -11.5 -30.5t-40.5 -9.5h-183z" />
    <glyph glyph-name="period" unicode="." horiz-adv-x="206" 
d="M99 -4q-23 0 -38.5 16t-15.5 39q0 24 17 40t43 16q24 0 39.5 -16t15.5 -40q0 -26 -17 -40.5t-44 -14.5z" />
    <glyph glyph-name="slash" unicode="/" horiz-adv-x="376" 
d="M282 681q9 31 35 31q14 0 27 -8.5t13 -22.5q0 -10 -13 -48l-252 -630q-9 -28 -32 -28q-14 0 -27.5 8.5t-13.5 21.5q0 11 9 38z" />
    <glyph glyph-name="zero" unicode="0" horiz-adv-x="622" 
d="M55 309q0 70 14 134t43 119t81 88t121 33q119 0 186.5 -96.5t67.5 -254.5q0 -153 -74.5 -245.5t-184.5 -92.5q-106 0 -180 88.5t-74 226.5zM313 607q-50 0 -86.5 -26t-55 -70.5t-27 -91.5t-8.5 -100q0 -62 19 -117.5t59 -93t93 -37.5q80 0 131 70t51 188
q0 115 -46.5 196.5t-129.5 81.5z" />
    <glyph glyph-name="one" unicode="1" horiz-adv-x="419" 
d="M114 488q-16 -11 -29 -11q-14 0 -25 12.5t-11 25.5q0 18 21 36q146 111 166 121q17 10 39 7q12 -2 20.5 -11.5t8.5 -22.5q0 -34 -0.5 -102.5t-0.5 -103.5v-126v-153v-126q0 -18 -12 -28t-30 -10t-29 11t-11 31q0 26 1.5 106t2.5 160.5t1 146.5v128z" />
    <glyph glyph-name="two" unicode="2" horiz-adv-x="541" 
d="M256 606q-67 0 -126 -59q-25 -25 -45 -25q-15 0 -26 11t-11 27q0 24 32 51q33 31 79.5 52.5t95.5 22.5q93 0 159 -56.5t66 -145.5q0 -26 -6.5 -50.5t-14 -41t-27.5 -41t-30.5 -36t-40 -40.5t-41.5 -41l-165 -158q106 0 183 1q39 0 119 2q19 0 30 -11.5t11 -27.5
q0 -42 -46 -41h-123q-160 0 -235 1q-22 0 -35 13t-13 34q0 27 36 63q173 168 194 190l24 24q20 20 26 26.5t21.5 23.5t21 27t14.5 25t12 28.5t3 27.5q0 53 -40 88.5t-102 35.5z" />
    <glyph glyph-name="three" unicode="3" horiz-adv-x="531" 
d="M399 216q0 62 -44 95t-108 33h-40q-19 -1 -31 10.5t-12 30.5q0 20 20 39q32 30 100.5 101.5t78.5 81.5q-163 0 -260 -5q-44 0 -44 39q0 17 11 27.5t30 10.5q2 0 47 -0.5t72 -0.5q33 0 104 1t103 1q25 0 36 -9t11 -31q0 -18 -37 -58q-28 -26 -88.5 -89t-80.5 -83
q85 2 149.5 -49.5t64.5 -137.5q0 -106 -62 -168.5t-170 -62.5q-91 -1 -170 46q-35 20 -35 45q0 18 11 29t24 11q14 0 45 -17q67 -39 128 -39q64 0 105.5 41.5t41.5 107.5z" />
    <glyph glyph-name="four" unicode="4" horiz-adv-x="567" 
d="M354 365q0 51 37 51q22 0 30.5 -10t9.5 -34v-155l82 1q41 1 41 -35q0 -41 -36 -41h-88v-106q0 -41 -37 -41q-41 0 -41 42q0 16 0.5 50t0.5 55q-45 1 -142.5 -0.5t-123.5 -1.5t-38.5 14t-12.5 33q0 28 19 58l217 405q16 31 43 31q17 0 31 -11t15 -25q0 -9 -8 -25
q-20 -38 -43 -78t-51.5 -89.5t-47.5 -83.5l-82 -155l224 2z" />
    <glyph glyph-name="five" unicode="5" horiz-adv-x="545" 
d="M110 634q3 19 17.5 32t35.5 13h264q41 0 41 -38q0 -40 -46 -39l-239 3l-6 -43l-26 -170q63 38 135 38q97 0 154 -58.5t57 -144.5q0 -102 -65.5 -167.5t-168.5 -65.5q-85 0 -168 45q-45 24 -45 52q0 16 12 28.5t29 12.5q8 0 40 -17q73 -42 133 -42q61 0 105 40.5t44 105.5
q0 58 -35.5 97t-100.5 39q-41 0 -95.5 -22t-66.5 -22q-21 0 -36.5 12.5t-12.5 33.5q5 37 21.5 137.5t22.5 139.5z" />
    <glyph glyph-name="six" unicode="6" horiz-adv-x="574" 
d="M317 607q-70 0 -122.5 -66t-53.5 -162v-34q23 39 73.5 63t100.5 24q90 0 153 -52.5t63 -154.5q0 -100 -65.5 -165t-169.5 -65q-93 0 -155 57.5t-76 161.5q-7 77 -7 116q0 155 73 255t192 100q78 0 136 -28q33 -15 33 -41q0 -16 -10 -27t-26 -11q-7 0 -39 12
q-46 17 -100 17zM298 359q-67 -1 -109.5 -38t-42.5 -101t45 -106.5t109 -42.5q65 0 108 43t43 112q0 65 -41 99.5t-112 33.5z" />
    <glyph glyph-name="seven" unicode="7" horiz-adv-x="520" 
d="M199 603q-25 0 -64 -1t-56 -1q-44 0 -44 40q0 38 41 38q58 0 188.5 -1t182.5 -1q41 0 41 -38q0 -21 -29 -65q-68 -90 -124 -199.5t-86 -204.5q-24 -71 -39 -136q-4 -20 -13 -28.5t-32 -8.5q-48 0 -39 50q11 51 43 140q75 217 217 417q-39 1 -100 0t-87 -1z" />
    <glyph glyph-name="eight" unicode="8" horiz-adv-x="575" 
d="M503 506q0 -54 -27 -93.5t-72 -57.5q53 -17 88 -57t36 -97q1 -99 -66 -154t-171 -55q-107 0 -175 51.5t-68 139.5q0 64 34.5 107t91.5 63q-37 16 -65 55t-28 89q0 85 62 137.5t147 52.5q87 0 150 -51.5t63 -129.5zM294 318q-68 1 -116.5 -32.5t-47.5 -96.5
q1 -59 42.5 -90.5t112.5 -31.5q75 0 118.5 35t42.5 96q-1 55 -45.5 87.5t-106.5 32.5zM160 495q1 -50 39 -81.5t93 -31.5q57 0 94 35t36 89q-1 46 -39 78t-92 32q-57 0 -94.5 -33t-36.5 -88z" />
    <glyph glyph-name="nine" unicode="9" horiz-adv-x="575" 
d="M261 73q87 0 135 68t47 197q-21 -40 -69 -67.5t-107 -27.5q-85 0 -153.5 58t-68.5 158q0 96 70 161.5t168 64.5q110 -1 175 -80.5t65 -239.5q0 -193 -67.5 -282t-199.5 -89q-83 0 -145 35q-30 17 -30 42q0 16 10 28t26 12q9 0 41 -13q56 -25 103 -25zM284 316
q62 0 106 39.5t44 103.5q0 65 -45.5 108t-110.5 43q-61 0 -106 -43t-45 -110q0 -65 43 -102.5t114 -38.5z" />
    <glyph glyph-name="colon" unicode=":" horiz-adv-x="206" 
d="M99 346q-23 0 -38.5 16t-15.5 39q0 24 17 40t43 16q24 0 39.5 -16t15.5 -40q0 -26 -17 -40.5t-44 -14.5zM99 -4q-23 0 -38.5 16t-15.5 39q0 24 17 40t43 16q24 0 39.5 -16t15.5 -40q0 -26 -17 -40.5t-44 -14.5z" />
    <glyph glyph-name="semicolon" unicode=";" horiz-adv-x="206" 
d="M38 -71q0 9 17.5 29t21.5 36q3 5 -11.5 20.5t-14.5 33.5q0 23 16 38.5t39 15.5q24 0 40.5 -17.5t16.5 -42.5q0 -73 -74 -128q-14 -10 -26 -10q-8 0 -16.5 7.5t-8.5 17.5zM101 346q-23 0 -39 16t-16 39q0 24 17 40t43 16q25 0 40.5 -16t15.5 -40q0 -26 -17 -40.5
t-44 -14.5z" />
    <glyph glyph-name="less" unicode="&#x3c;" horiz-adv-x="485" 
d="M426 433l-311 -167q46 -25 167 -84t154 -78q14 -9 14 -23t-10 -27.5t-23 -13.5q-17 0 -31 8l-318 169q-34 19 -34 49q0 28 33 48q16 10 309 173q18 9 30 9q14 0 24 -12.5t10 -27.5q0 -14 -14 -23z" />
    <glyph glyph-name="equal" unicode="=" horiz-adv-x="485" 
d="M66 334q-33 0 -33 38q0 37 44 37q10 0 65 -0.5t84 -0.5q42 0 113 0.5t78 0.5q34 0 34 -37t-50 -38h-97h-149h-89zM66 124q-33 0 -33 38t44 38q10 0 65 -0.5t84 -0.5h191q34 0 34 -36q0 -20 -11.5 -29t-38.5 -10h-335z" />
    <glyph glyph-name="greater" unicode="&#x3e;" horiz-adv-x="485" 
d="M59 433q-15 9 -15 23q0 16 10 28t25 12q13 0 29 -9q259 -141 310 -173q32 -20 32 -48q0 -30 -33 -49l-318 -169q-16 -8 -31 -8q-14 0 -24 13.5t-10 27.5t15 23q33 20 155 79t166 83z" />
    <glyph glyph-name="question" unicode="?" horiz-adv-x="484" 
d="M41 586q0 20 22 35q82 65 171 65q84 0 145.5 -51.5t61.5 -134.5q0 -32 -12 -58.5t-33.5 -46.5t-41.5 -34t-46 -30l-3 -1l-3 -2q-2 -1 -3 -2q-47 -30 -49 -68q-1 -9 3 -17.5t4 -17.5q0 -16 -11 -25t-28 -9q-25 0 -37.5 20t-12.5 53q0 69 82 116q29 17 41 24.5t32.5 24.5
t28.5 34.5t8 38.5q0 48 -37.5 79.5t-90.5 31.5q-59 0 -110 -42q-29 -21 -44 -21q-14 0 -25.5 12t-11.5 26zM160 48q0 24 17 40t43 16q27 0 42.5 -15.5t15.5 -39.5q0 -27 -17 -41t-42 -14q-27 0 -43 14.5t-16 39.5z" />
    <glyph glyph-name="at" unicode="@" horiz-adv-x="918" 
d="M647 277l-9 -111q-12 -107 54 -107q52 0 79 63.5t27 160.5q0 120 -90.5 200.5t-230.5 80.5q-155 0 -255.5 -118.5t-100.5 -282.5q0 -135 94.5 -225.5t222.5 -92.5q86 -1 178 36q26 12 36 12q14 0 23.5 -11.5t9.5 -25.5q0 -18 -20 -30q-99 -51 -225 -51q-103 0 -192 47.5
t-144 137.5t-55 203q0 124 50.5 229.5t152 172.5t235.5 67q164 0 273.5 -102.5t109.5 -243.5q0 -139 -47 -216.5t-137 -77.5q-42 0 -71 24.5t-36 66.5q-22 -38 -59.5 -61t-82.5 -23q-76 0 -126.5 50t-50.5 124q0 89 54 154t145 65q38 0 71 -18t52 -49q1 4 3 17t3 17
q10 29 34 29q41 0 34 -46zM459 327q-56 0 -90 -43t-34 -104q0 -51 32.5 -82.5t78.5 -31.5q59 0 91.5 43t32.5 109q0 49 -33.5 79t-77.5 30z" />
    <glyph glyph-name="A" unicode="A" horiz-adv-x="639" 
d="M25 35q0 14 15 49l105 246q29 67 127 319q13 32 48 32q36 0 50 -33q18 -41 67.5 -171t67.5 -176q1 -3 5.5 -13t6.5 -15l88 -214q8 -20 8 -29q0 -12 -13.5 -23t-31.5 -11t-27 7.5t-17 27.5q-59 152 -60 154q-31 1 -190 1h-102q-5 -12 -27.5 -71t-29.5 -75q-15 -33 -25 -39
q-8 -4 -18 -4q-47 0 -47 38zM320 577q-41 -118 -123 -322q117 -2 241 1q-6 16 -32.5 89.5t-50.5 139t-35 92.5z" />
    <glyph glyph-name="B" unicode="B" horiz-adv-x="597" 
d="M296 680q92 0 154 -47.5t63 -131.5q1 -54 -25 -93.5t-67 -59.5q61 -15 96.5 -54t35.5 -100q0 -84 -47 -133t-128 -58q-40 -4 -170 -4h-74q-47 0 -49 58l1 216l-1 238q0 21 -1 59.5t-1 58.5q0 42 51 47q36 4 162 4zM316 302l-150 -2l2 -229q20 -1 146 -1q70 1 113.5 30
t43.5 88q0 114 -155 114zM433 501q-1 52 -40.5 78.5t-98.5 26.5q-69 2 -129 -2q1 -13 1 -236q49 0 139 2q60 1 94.5 37t33.5 94z" />
    <glyph glyph-name="C" unicode="C" horiz-adv-x="608" 
d="M522 655q44 -20 44 -46q0 -18 -9.5 -30t-27.5 -12q-13 1 -39 13q-60 28 -123 28q-92 0 -162 -79t-71 -198q0 -108 67.5 -184t169.5 -77q75 0 136 40q3 2 7.5 4.5t6.5 4t6 3t8 2t9 0.5q14 0 23 -13t9 -29q0 -33 -69 -62t-144 -29q-127 1 -220 93t-92 242q1 160 99.5 259.5
t225.5 98.5q81 0 146 -29z" />
    <glyph glyph-name="D" unicode="D" horiz-adv-x="675" 
d="M80 622q0 58 81 58q9 0 68.5 0.5t66.5 0.5q145 -7 240.5 -90.5t95.5 -229.5q0 -358 -380 -361q-79 0 -123 2q-48 3 -48 59l2 272zM268 605q-69 0 -105 -3v-503q0 -16 14.5 -19t68.5 -3q303 0 303 273q0 85 -40 144t-101.5 85t-139.5 26z" />
    <glyph glyph-name="E" unicode="E" horiz-adv-x="543" 
d="M94 637q0 24 16 32.5t49 8.5h48q53 0 134.5 1t106.5 1q46 0 48 -36q0 -33 -27 -37q-30 -1 -241 -1h-52q-1 -42 -1 -121l-1 -97v-19h50q108 0 174 3q27 0 39 -7t12 -30q-2 -36 -45 -36h-231v-72q0 -25 -1 -77t-1 -77q131 0 264 2q7 0 18 0.5t17 0.5q35 0 35 -36
q0 -20 -11 -30.5t-40 -11.5h-262q-66 0 -84.5 10t-19.5 50q0 26 1 40l1 14q0 13 0.5 37.5t1 57t1 79.5t0.5 97q0 43 0.5 127t0.5 127z" />
    <glyph glyph-name="F" unicode="F" horiz-adv-x="525" 
d="M91 240l1 262l-2 125q-1 22 13.5 36.5t34.5 14.5h58q138 0 230 1q14 1 40 1q16 0 25 -10t9 -26q0 -38 -34 -39h-60h-232q0 -23 -0.5 -70t-0.5 -69v-106h96l159 2q16 1 25 -10t9 -28q0 -36 -40 -38q-22 0 -77.5 0.5t-77.5 0.5h-95v-89l1 -153q0 -48 -40 -48
q-25 0 -34.5 11.5t-9.5 38.5q0 8 0.5 35t0.5 39q0 21 0.5 59t0.5 60z" />
    <glyph glyph-name="G" unicode="G" horiz-adv-x="711" 
d="M388 685q112 0 198 -55q25 -16 25 -36q0 -16 -9.5 -28.5t-25.5 -12.5t-46 18q-60 40 -147 40q-94 0 -170.5 -80t-76.5 -186q0 -128 68 -201.5t181 -73.5q90 0 146 65t57 153h-141q-15 1 -23.5 11.5t-8.5 24.5q0 33 34 36q7 1 170 1q30 0 40.5 -14.5t10.5 -46.5
q0 -136 -82 -221.5t-210 -85.5q-144 0 -235 95.5t-91 249.5q0 144 101 245.5t235 101.5z" />
    <glyph glyph-name="H" unicode="H" horiz-adv-x="697" 
d="M609 333l3 -300q0 -37 -42 -37q-43 0 -43 38v93l-1 161q-57 0 -174.5 -1t-181.5 -1l2 -254q0 -36 -44 -36q-41 0 -41 36q0 40 1.5 169t0.5 199l-4 239q0 40 44 40q40 0 40 -35q0 -110 1 -281h15h38h58q29 0 91.5 0.5t92.5 0.5l62 1q0 42 -1 140.5t-1 126.5q1 50 43 50
q41 0 41 -44q0 -8 -0.5 -147.5t0.5 -157.5z" />
    <glyph glyph-name="I" unicode="I" horiz-adv-x="274" 
d="M97 403q0 29 -1 106.5t-1 130.5q0 42 44 42q18 0 29 -10t11 -28q0 -78 -1 -249v-160l1 -192q0 -47 -42 -47q-19 0 -31 10t-11 29q0 14 0.5 43t0.5 45z" />
    <glyph glyph-name="J" unicode="J" horiz-adv-x="484" 
d="M313 329l-6 313q-1 19 10.5 31t30.5 12q44 0 44 -41q0 -44 2.5 -138t2.5 -141q0 -83 -1 -120q-3 -121 -53 -186t-163 -65q-39 0 -76 16.5t-57 33.5q-24 21 -24 44q0 16 10.5 27t27.5 11q5 0 10 -1.5t11 -5.5t9.5 -6.5t11 -8.5t10.5 -8q31 -25 70 -25q35 0 59 13t38 33
t21.5 55.5t9.5 70t2 86.5z" />
    <glyph glyph-name="K" unicode="K" horiz-adv-x="606" 
d="M170 320l299 338q21 24 41 24q16 0 29.5 -12.5t13.5 -27.5q0 -13 -13 -29q-34 -39 -185 -203q-4 -4 -18.5 -20.5t-22.5 -24.5l153 -182l95 -111q16 -16 16 -36q0 -17 -13.5 -29.5t-31.5 -12.5q-22 0 -38 20q-9 11 -25 33l-210 266q-16 -19 -49 -52.5t-42 -42.5v-186
q0 -37 -42 -37q-19 -1 -30.5 9t-11.5 28q0 8 0.5 28.5t0.5 32.5q0 95 1 271.5t1 273.5q0 44 42 44t42 -40q0 -54 -1 -163.5t-1 -158.5z" />
    <glyph glyph-name="L" unicode="L" horiz-adv-x="494" 
d="M90 640q0 20 12.5 30.5t32.5 10.5q38 0 38 -41q0 -31 -2 -220q0 -33 -0.5 -99t-1.5 -98q0 -48 -0.5 -81.5t-0.5 -49.5v-19q92 0 118 1l153 6q39 0 39 -36q0 -43 -41 -43h-116q-111 0 -152 -2q-47 -2 -65 9t-19 47v39q0 40 2 125t3 128v293z" />
    <glyph glyph-name="M" unicode="M" horiz-adv-x="850" 
d="M203 546q-8 -69 -23 -188q-14 -121 -25 -212t-15 -116q-6 -35 -42 -35q-20 0 -31 13.5t-9 32.5q14 83 48.5 341t35.5 265q3 16 20 24.5t36 8.5q30 -1 47 -46l155 -441q3 -10 8.5 -23.5t9 -23t4.5 -15.5l9 28q28 65 56 137t65 170.5t61 159.5q18 44 42 55q13 2 22 1
q28 -2 36 -16q7 -26 19 -122.5t31.5 -265t27.5 -237.5q3 -47 -40 -47q-36 0 -41 38q-10 84 -27 256t-26 253l-184 -475q-19 -46 -55 -45q-18 0 -27.5 10.5t-17.5 32.5q-32 86 -97 272.5t-73 209.5z" />
    <glyph glyph-name="N" unicode="N" horiz-adv-x="707" 
d="M166 50q0 -28 -9 -40.5t-30 -12.5q-43 0 -43 40q0 58 1 263q0 46 -0.5 116t-0.5 116v106q0 19 14.5 30.5t36.5 11.5q13 0 25 -8t17.5 -15t18.5 -25l245 -347l106 -149q-3 87 -3 235l-2 247q0 30 8 45.5t34 15.5q24 0 31.5 -14t7.5 -45v-332q2 -59 2 -246q0 -20 -13.5 -32
t-36.5 -12q-18 0 -28.5 9.5t-29.5 36.5l-354 505q-1 -55 1 -257.5t2 -241.5z" />
    <glyph glyph-name="O" unicode="O" horiz-adv-x="746" 
d="M378 686q133 0 227.5 -96t94.5 -242q0 -151 -92.5 -254t-233.5 -103q-83 0 -156 39.5t-120 116.5t-47 175q0 82 28 152t74.5 116t105 71.5t119.5 24.5zM618 345q-1 115 -76 189t-175 74q-94 0 -164 -79t-70 -197q0 -116 72 -189t176 -73q99 0 168.5 82.5t68.5 192.5z" />
    <glyph glyph-name="P" unicode="P" horiz-adv-x="571" 
d="M88 442q0 16 -0.5 52t-0.5 49v96q6 34 50 39q45 3 156 3q98 0 166 -44q83 -57 82 -174q0 -70 -43.5 -129.5t-111.5 -77.5q-35 -9 -193 -9h-23q0 -33 1 -103t1 -111q0 -39 -42 -39q-20 0 -31.5 9.5t-11.5 25.5q0 60 0.5 201t0.5 212zM171 422q0 -15 0.5 -48.5t0.5 -50.5
h49q98 -3 140 8q46 11 72 50.5t27 85.5q1 77 -58 113q-46 26 -120 26q-87 0 -113 -3q0 -23 1 -85t1 -96z" />
    <glyph glyph-name="Q" unicode="Q" horiz-adv-x="757" 
d="M379 -11l-34 5q-54 8 -102.5 30.5t-92.5 61t-70 102.5t-26 144q0 139 92 244.5t218 108.5q6 2 12 2q137 0 232 -91t96 -236q3 -221 -158 -323q-19 -13 -47 -24q12 -7 50.5 -36t66.5 -42t59 -13q27 0 44.5 10t24.5 22.5t17 22.5t23 10q18 0 29.5 -10.5t11.5 -29.5
q0 -42 -46.5 -77t-105.5 -34q-39 0 -73.5 16.5t-88 58t-75.5 55.5q-34 22 -57 23zM620 347q0 86 -39 147.5t-95 88t-120 26.5q-86 0 -157 -80.5t-71 -192.5q0 -117 73.5 -193t190.5 -77q101 13 159.5 89.5t58.5 191.5z" />
    <glyph glyph-name="R" unicode="R" horiz-adv-x="605" 
d="M89 624q0 52 68 54q60 2 98 2q48 0 73 -2q97 -6 154 -60t57 -144q0 -73 -38.5 -124.5t-102.5 -68.5l155 -215q14 -19 14 -30q0 -16 -13 -27.5t-31 -12.5q-18 0 -36 21l-168 243h-149q0 -30 0.5 -108.5t0.5 -104.5q0 -48 -37 -49q-27 0 -36.5 11.5t-9.5 38.5q2 62 2 469
q0 17 -0.5 53.5t-0.5 53.5zM294 607q-95 0 -125 -1l1 -274h120q76 0 121.5 33.5t46.5 107.5q0 65 -43.5 99.5t-120.5 34.5z" />
    <glyph glyph-name="S" unicode="S" horiz-adv-x="563" 
d="M466 649q27 -13 27 -40q0 -14 -10.5 -26t-26.5 -12q-15 0 -37 11q-62 28 -128 28q-61 0 -103.5 -34t-42.5 -86q0 -18 4.5 -32t18.5 -24l22 -17q8 -6 33 -13t33 -9t39 -9q51 -12 86 -24t67.5 -33t49 -54t16.5 -77q0 -92 -66 -148.5t-173 -56.5q-104 -1 -185 41
q-37 17 -37 44q0 17 11 30t27 13q13 0 35 -10q76 -40 148 -40q68 0 112 33t44 89q0 53 -41.5 79t-117.5 41q-45 9 -77.5 20t-65 30t-49.5 49.5t-17 71.5q0 86 70 144t163 58q95 0 171 -37z" />
    <glyph glyph-name="T" unicode="T" horiz-adv-x="569" 
d="M289 678q26 0 116.5 1t104.5 1q43 0 43 -35q0 -22 -11 -31.5t-36 -9.5h-181v-60q0 -45 0.5 -101t1.5 -167t2 -230q0 -49 -45 -49q-20 0 -29.5 10t-9.5 35l1 376q0 31 -0.5 92.5t-0.5 93.5q-98 0 -192 -1q-37 0 -37 38t39 38q8 0 31.5 -0.5t75.5 -0.5h127z" />
    <glyph glyph-name="U" unicode="U" horiz-adv-x="682" 
d="M82 275q0 74 0.5 200t0.5 155q0 46 39 46q23 0 33 -10.5t10 -32.5q-1 -50 -1 -358q0 -103 47 -153t133 -50q77 0 127 57t51 146q1 50 -0.5 187.5t-1.5 176.5q0 40 42 40q41 0 41 -49l1 -328q1 -146 -70 -227t-199 -81q-118 0 -185.5 73.5t-67.5 207.5z" />
    <glyph glyph-name="V" unicode="V" horiz-adv-x="639" 
d="M37 604q-12 31 -12 39q0 17 15.5 28t33.5 11q28 0 38 -29q2 -6 16 -44l22 -61l172 -441q9 22 34 88l175 456q11 31 40 31q16 0 30.5 -10.5t14.5 -26.5q0 -10 -12 -41q-13 -36 -86 -212q-1 -1 -17 -43.5t-38 -94.5l-89 -217q-18 -39 -56 -39q-22 0 -32.5 11t-21.5 37
q-18 47 -41.5 104.5t-75 182.5t-110.5 271z" />
    <glyph glyph-name="W" unicode="W" horiz-adv-x="845" 
d="M40 637q-4 19 8 32.5t33 13.5q35 0 42 -35l99 -518q30 80 145 449q15 51 53 51q16 0 28 -9.5t17 -22.5l153 -456q73 340 100 492q5 27 15 38t31 11q18 0 31 -12.5t9 -31.5l-129 -593q-5 -26 -14.5 -37.5t-34.5 -11.5q-15 0 -26 7.5t-15.5 16.5t-9.5 23l-154 455
q-37 -121 -148 -439q-7 -19 -12 -29.5t-18 -22t-29 -11.5q-32 1 -43.5 23t-23.5 84q-3 16 -5 25z" />
    <glyph glyph-name="X" unicode="X" horiz-adv-x="623" 
d="M311 289l-45 -57l-154 -211q-18 -24 -38 -24q-17 0 -30.5 11.5t-13.5 26.5t15 36l215 278l-200 255q-16 21 -16 35q0 16 13.5 28.5t30.5 12.5q20 0 42 -31l181 -242l183 245q22 29 43 29q17 0 30 -12t13 -26t-14 -34l-205 -262l214 -271q19 -24 19 -38q0 -15 -14.5 -27
t-31.5 -12q-14 0 -22 7t-20 23l-141 192z" />
    <glyph glyph-name="Y" unicode="Y" horiz-adv-x="599" 
d="M258 268l-5 12l-213 324q-15 24 -15 37q0 16 13.5 27.5t30.5 11.5q19 0 41 -33q190 -303 192 -305q6 9 20.5 33t61.5 99.5t111 177.5q19 29 39 29q17 0 29.5 -11t12.5 -26q0 -13 -14 -34l-221 -339q0 -42 -0.5 -118.5t-0.5 -118.5q0 -17 -12 -26.5t-30 -9.5t-30 11
t-12 30q0 11 0.5 34.5t0.5 35.5q0 33 0.5 83t0.5 76z" />
    <glyph glyph-name="Z" unicode="Z" 
d="M76 601q-37 0 -37 37q0 40 41 40h212q26 0 87.5 1t89.5 1q43 0 43 -38q0 -16 -23 -51l-42 -66l-237 -344l-73 -107q94 0 205 2.5t137 2.5q41 0 41 -40q0 -38 -52 -38q-61 -1 -372 -1q-55 0 -58 32q-2 13 1 23q9 33 52 91l60 85l194 274l63 98q-56 0 -166.5 -0.5
t-165.5 -1.5z" />
    <glyph glyph-name="bracketleft" unicode="[" horiz-adv-x="298" 
d="M79 672q1 21 13.5 32.5t31.5 11.5q3 0 53 0.5t71 0.5q35 0 35 -37q0 -34 -36 -34h-92q0 -161 -1 -233q0 -34 -1.5 -156t-1.5 -154q-1 -55 -1 -211q16 0 45 0.5t44 0.5q36 0 36 -36t-39 -36h-109q-28 0 -40.5 13.5t-12.5 45.5q0 63 3 220.5t3 235.5q0 51 -0.5 182
t-0.5 154z" />
    <glyph glyph-name="backslash" unicode="\" horiz-adv-x="376" 
d="M94 681l253 -638q10 -27 10 -38q0 -13 -14 -21.5t-28 -8.5q-22 0 -32 28l-251 630q-13 38 -13 48q0 14 12.5 22.5t26.5 8.5q25 0 36 -31z" />
    <glyph glyph-name="bracketright" unicode="]" horiz-adv-x="298" 
d="M218 672v-85v-141v-110q0 -86 3 -243.5t3 -212.5q0 -32 -12.5 -45.5t-40.5 -13.5h-110q-38 0 -38 36t36 36q15 0 44 -0.5t45 -0.5q0 156 -1 211q-1 33 -2.5 155.5t-1.5 154.5q-2 123 0 233h-92q-36 0 -36 34q0 37 35 37q21 0 70.5 -0.5t52.5 -0.5q19 0 32 -12t13 -32z
" />
    <glyph glyph-name="asciicircum" unicode="^" horiz-adv-x="500" 
d="M414 288q-70 137 -167 311q-25 -46 -83.5 -167t-77.5 -154q-10 -14 -24 -14t-27.5 10t-13.5 23q0 17 8 31l169 318q19 34 50 34q27 0 47 -33q45 -71 173 -309q10 -17 10 -30q0 -14 -12.5 -24t-28.5 -10q-14 0 -23 14z" />
    <glyph glyph-name="underscore" unicode="_" horiz-adv-x="500" 
d="M48 -76q-19 0 -28.5 11.5t-8.5 27.5q0 37 50 37q35 0 203.5 -0.5t186.5 -0.5q38 0 38 -36q0 -39 -53 -39h-388z" />
    <glyph glyph-name="grave" unicode="`" horiz-adv-x="239" 
d="M149 551q-67 65 -100 103q-13 16 -13 29t12.5 24t25.5 11q19 0 31 -17l88 -109q9 -11 9 -22q0 -10 -9.5 -19.5t-20.5 -9.5q-10 0 -23 10z" />
    <glyph glyph-name="a" unicode="a" horiz-adv-x="568" 
d="M498 324l-2 -151q0 -64 5 -142q0 -34 -43 -34q-22 0 -28.5 18t-9.5 66q-50 -87 -162 -87q-94 0 -153.5 64t-59.5 155q0 106 65.5 176.5t162.5 70.5t148 -78q0 26 3 41q5 34 36 34q23 0 31 -13.5t8 -41.5zM129 216q0 -65 40.5 -107.5t98.5 -42.5q66 0 109 44.5t43 115.5
q0 75 -43.5 118.5t-102.5 43.5q-62 0 -103.5 -49t-41.5 -123z" />
    <glyph glyph-name="b" unicode="b" horiz-adv-x="577" 
d="M73 683q1 40 41 40q42 0 42 -39q-2 -105 -2 -311q24 44 68.5 68t96.5 24q92 0 152.5 -69.5t60.5 -161.5q0 -102 -65 -172t-161 -70q-48 0 -91 23.5t-65 64.5l-1 -48q-4 -36 -41 -35q-35 0 -35 49l4 202zM449 233q0 63 -42 110t-100 47q-63 0 -108.5 -46t-45.5 -118
q0 -70 43.5 -115t100.5 -45q62 0 107 47.5t45 119.5z" />
    <glyph glyph-name="c" unicode="c" horiz-adv-x="447" 
d="M393 431q19 -13 19 -33q0 -14 -10 -26.5t-25 -12.5q-6 0 -40 14q-31 14 -68 14q-62 0 -103 -52.5t-41 -112.5q0 -65 38 -109t99 -44q53 0 86 21q30 16 39 16q14 0 24.5 -13.5t10.5 -27.5q0 -16 -15 -28q-55 -46 -141 -46q-104 0 -164 69t-59 153q1 97 65 173t166 76
q67 0 119 -31z" />
    <glyph glyph-name="d" unicode="d" horiz-adv-x="569" 
d="M500 684l-3 -244v-196q0 -13 1 -77.5t1 -133.5q0 -39 -40 -39q-35 0 -38 35l-1 56q-56 -93 -161 -93q-94 0 -154 67.5t-60 156.5q0 103 66 173.5t163 70.5q45 0 83.5 -21t60.5 -57l-2 292q0 49 42 49t42 -39zM127 219q0 -63 41.5 -107.5t100.5 -44.5q62 0 105.5 43.5
t43.5 115.5q0 71 -40 115.5t-100 44.5q-63 0 -107 -47.5t-44 -119.5z" />
    <glyph glyph-name="e" unicode="e" horiz-adv-x="509" 
d="M129 205q2 -55 41.5 -95.5t100.5 -40.5q60 0 109 33q26 12 33 12q14 0 25.5 -12.5t11.5 -26.5q0 -22 -27 -39q-61 -43 -161 -43q-89 0 -152 63.5t-65 152.5q0 103 65 178t159 75q82 0 139 -55.5t57 -124.5q0 -41 -13.5 -57.5t-62.5 -17.5q-33 -1 -70 -1t-92 -0.5
t-98 -0.5zM273 392q-57 0 -96.5 -39t-45.5 -90q233 4 243 5q12 2 12 10q0 50 -33.5 82t-79.5 32z" />
    <glyph glyph-name="f" unicode="f" horiz-adv-x="361" 
d="M317 377l-112 1v-252q0 -16 1 -47.5t1 -48.5q0 -36 -40 -36q-41 0 -41 45v89q0 21 -1 111t0 139h-76q-37 0 -37 34q0 40 49 40h64q0 6 0.5 30t0.5 30q0 97 45 159t147 62q34 0 59 -13q18 -9 18 -32q0 -13 -7.5 -23.5t-20.5 -10.5q-11 0 -33 4t-35 3q-45 -1 -70 -42.5
t-25 -98.5v-68h106q43 0 43 -38q0 -37 -36 -37z" />
    <glyph glyph-name="g" unicode="g" horiz-adv-x="564" 
d="M260 -154q67 0 110.5 45t43.5 118v70q-24 -40 -65.5 -62.5t-91.5 -22.5q-92 0 -153 66t-61 156q0 105 65.5 175.5t162.5 70.5q90 0 145 -78l1 42q2 32 38 32q17 0 28 -10t11 -28q-2 -230 -2 -320l1 -94q2 -106 -65 -171.5t-170 -65.5q-80 0 -137 28q-34 16 -34 42
q0 16 11 28.5t26 12.5q6 0 12.5 -2t16 -7t15.5 -7q43 -18 92 -18zM127 219q0 -66 40.5 -108t99.5 -42q63 0 106.5 42.5t43.5 115.5q0 78 -41 120t-102 42q-63 1 -105 -47t-42 -123z" />
    <glyph glyph-name="h" unicode="h" horiz-adv-x="548" 
d="M75 681q0 50 45 50q39 0 39 -45q0 -12 -0.5 -40.5t-1.5 -98.5t-1 -175q21 42 61.5 67t93.5 25q80 0 127 -56.5t47 -143.5v-229q0 -38 -44 -38q-18 0 -30 9.5t-12 26.5q5 120 5 224q0 63 -30 97t-84 34q-55 0 -95 -43t-40 -108q0 -33 0.5 -110.5t0.5 -93.5q0 -37 -42 -37
q-40 0 -40 36q0 28 1 74.5t1 60.5z" />
    <glyph glyph-name="i" unicode="i" horiz-adv-x="241" 
d="M80 419q1 21 12.5 30.5t27.5 9.5q23 0 32.5 -12t10.5 -46q0 -37 -0.5 -114.5t-0.5 -115.5v-131q0 -23 -9.5 -34t-32.5 -11q-40 0 -40 41v383zM118 597q-25 0 -40.5 17t-13.5 43q4 25 20.5 38.5t39.5 13.5q27 0 41.5 -15.5t14.5 -40.5q0 -28 -17 -42t-45 -14z" />
    <glyph glyph-name="j" unicode="j" horiz-adv-x="229" 
d="M75 424q1 17 12.5 26t28.5 9q41 0 41 -34v-255q0 -146 -3 -260q-2 -58 -46 -100t-109 -43q-85 0 -85 46q0 19 9.5 30.5t22.5 11.5q9 0 26 -5t31 -5q67 0 72 97q3 61 2 309q0 26 -1 87t-1 86zM111 595q-24 0 -39.5 15.5t-15.5 41.5t17.5 41.5t44.5 15.5t42 -16t15 -42
q0 -28 -17.5 -42t-46.5 -14z" />
    <glyph glyph-name="k" unicode="k" horiz-adv-x="466" 
d="M262 248l168 -185q12 -13 12 -26q0 -14 -12.5 -27.5t-30.5 -13.5q-17 0 -41 28l-151 179l-52 -51v-106q-1 -25 -9 -37.5t-31 -12.5q-24 0 -33 12t-9 39l2 116v439q0 61 -1 84q-1 21 11.5 32.5t31.5 11.5q40 0 40 -50q0 -70 -1 -217.5t-1 -217.5l191 195q25 25 42 25
q15 0 28 -13t13 -29q0 -13 -20 -33z" />
    <glyph glyph-name="l" unicode="l" horiz-adv-x="235" 
d="M79 680q0 20 12.5 31t31.5 11q24 0 32.5 -13t8.5 -43q-6 -492 -6 -502q0 -25 2.5 -71t2.5 -63q0 -35 -38 -36q-21 -2 -32.5 13t-12.5 48q-4 78 -1 625z" />
    <glyph glyph-name="m" unicode="m" horiz-adv-x="819" 
d="M77 243q0 41 -0.5 73.5t-0.5 50t-0.5 29t-1 17t-0.5 8.5q0 40 43 40q34 0 37 -40l2 -42q20 43 61 64.5t84 21.5q49 0 86 -27.5t50 -68.5q21 42 62 68.5t94 26.5q84 0 123.5 -54t39.5 -142v-95q0 -61 -3 -142q0 -34 -42 -34q-17 0 -28.5 9t-11.5 25q4 192 4 221
q0 137 -96 137q-53 0 -85.5 -33t-34.5 -97v-102q0 -67 -1 -107q0 -26 -9.5 -40t-34.5 -13q-16 0 -26.5 9t-10.5 26q2 184 1 237q-2 54 -26.5 87.5t-70.5 33.5q-126 0 -126 -169l1 -192q-1 -33 -43 -33q-17 0 -28.5 8.5t-11.5 25.5q0 26 1 49z" />
    <glyph glyph-name="n" unicode="n" horiz-adv-x="553" 
d="M77 300l-2 106q0 27 9.5 40t33.5 13q21 0 28.5 -11t9.5 -36l1 -44q19 45 63.5 70.5t96.5 25.5q82 0 126 -52t44 -144v-131v-90q0 -26 -10 -38t-35 -12q-39 0 -39 38q0 26 2 98.5t1 110.5q-2 144 -107 145q-35 0 -61 -11t-41 -28t-24 -43t-12 -51t-3 -57v-167
q0 -37 -43 -37q-39 0 -39 37q0 14 0.5 52t0.5 80v136z" />
    <glyph glyph-name="o" unicode="o" 
d="M294 465q18 0 25 -7q89 -13 136 -80.5t47 -151.5q0 -101 -68.5 -168t-169.5 -67q-90 0 -155.5 62t-65.5 159q0 112 68.5 182t182.5 71zM419 229q0 68 -38.5 112.5t-109.5 48.5q-66 -4 -106 -51.5t-40 -128.5q0 -62 42 -103t95 -41q64 0 110.5 45t46.5 118z" />
    <glyph glyph-name="p" unicode="p" horiz-adv-x="571" 
d="M74 422q1 40 41 40q33 0 37 -32l1 -59q25 43 68.5 67.5t95.5 24.5q94 0 151.5 -66.5t57.5 -163.5q0 -102 -65 -172t-162 -70q-96 0 -146 72q0 -11 1 -49.5t1 -62.5q0 -18 0.5 -63t0.5 -71q0 -42 -45 -41q-38 2 -38 41l2 397zM444 234q0 66 -41 110.5t-99 44.5
q-63 0 -107 -47t-44 -120t38.5 -114.5t100.5 -41.5q64 0 108 47.5t44 120.5z" />
    <glyph glyph-name="q" unicode="q" horiz-adv-x="565" 
d="M489 21q0 -37 1 -108t1 -109q-1 -37 -41 -37q-44 0 -43 43q2 104 2 256q-48 -75 -152 -75q-93 0 -153.5 68t-60.5 158q0 107 65 176.5t164 69.5q42 0 81 -22t63 -60l3 48q1 14 12 22.5t26 8.5t25.5 -9.5t10.5 -25.5q-3 -144 -3 -166zM125 218q0 -62 42 -108t100 -46
q62 0 103.5 42.5t41.5 117.5t-40.5 119.5t-95.5 44.5q-63 0 -107 -47t-44 -123z" />
    <glyph glyph-name="r" unicode="r" horiz-adv-x="357" 
d="M80 417q-1 41 41 41q31 0 34 -33l2 -70q24 53 65 80t83 27q46 0 46 -39q0 -17 -9.5 -28.5t-27.5 -11.5h-19q-56 0 -95.5 -49t-39.5 -123v-177q0 -38 -42 -38q-22 0 -31.5 12t-8.5 42q0 21 2 116t2 138q0 17 -1 55.5t-1 57.5z" />
    <glyph glyph-name="s" unicode="s" horiz-adv-x="454" 
d="M235 462q80 0 132 -24q27 -14 27 -32q0 -37 -34 -37q-8 0 -47 12.5t-80 12.5t-70 -20t-29 -51q0 -15 6.5 -24.5t23.5 -15.5t28 -8t38 -6q9 -1 14 -2q78 -10 122 -39t44 -92q0 -67 -50.5 -105t-132.5 -38q-62 0 -119 18.5t-57 41.5q0 42 35 42q8 0 56.5 -15.5t90.5 -15.5
t71 18t29 50q0 33 -26 47t-83 23q-30 4 -48.5 7.5t-43.5 12.5t-39.5 20.5t-25 31.5t-10.5 46q0 61 54 101.5t124 40.5z" />
    <glyph glyph-name="t" unicode="t" horiz-adv-x="357" 
d="M49 381q-35 0 -35 35q0 37 39 37h62l1 82q0 57 44 57q20 0 27 -10.5t7 -34.5q0 -34 -2 -94l101 1q37 0 37 -36t-37 -36h-100v-198q0 -61 14 -88.5t50 -27.5q14 0 28 4.5t21 4.5q14 0 22.5 -11t8.5 -25q0 -25 -20 -35q-25 -12 -64 -12q-73 0 -106.5 41.5t-33.5 134.5
q0 34 1 106t1 105h-66z" />
    <glyph glyph-name="u" unicode="u" horiz-adv-x="560" 
d="M116 457q36 0 36 -42q0 -30 -1 -94t-1 -105q0 -65 25.5 -107.5t81.5 -42.5q78 0 110.5 53.5t32.5 150.5l1 143q0 22 12 33.5t31 11.5q41 0 41 -44q0 -1 -1 -44t-1.5 -86.5t0.5 -102.5q0 -78 6 -147q0 -36 -40 -36q-33 0 -39 33q-1 14 -2 39.5t-1 28.5q-49 -107 -160 -107
q-89 0 -133.5 57.5t-44.5 155.5q0 27 0.5 103t0.5 102q0 47 46 47z" />
    <glyph glyph-name="v" unicode="v" horiz-adv-x="493" 
d="M38 385q-13 28 -13 41q0 15 13.5 25t30.5 10q18 0 26.5 -11.5t19.5 -38.5l131 -321q70 155 136 329q15 39 42 39q16 0 29.5 -9.5t13.5 -23.5q1 -14 -11 -42l-153 -339q-13 -27 -25 -37.5t-34 -10.5t-33.5 12.5t-26.5 45.5z" />
    <glyph glyph-name="w" unicode="w" horiz-adv-x="747" 
d="M35 416q0 2 -0.5 6t-0.5 5q0 15 15 25t31 10q26 0 35 -27q76 -291 90 -340q42 105 126 335q10 26 41 26q34 0 47 -36l123 -321l69 256l21 75q8 27 35 27q16 0 30.5 -10t14.5 -25q0 -10 -1 -14q-9 -24 -44 -141.5t-48 -157.5q-4 -13 -10 -31.5t-10 -30t-7 -19.5
q-13 -32 -48 -32q-36 0 -50 43q-8 18 -120 308l-107 -280q-16 -41 -29 -56.5t-39 -15.5q-24 0 -35.5 11t-18.5 35q-34 109 -68 229.5t-42 145.5z" />
    <glyph glyph-name="x" unicode="x" horiz-adv-x="492" 
d="M56 65l94 105l50 61l-20 22l-116 132q-18 22 -18 37q0 14 13.5 25t27.5 12q20 0 36 -21q85 -103 124 -154l115 141q15 19 24.5 26.5t22.5 7.5q14 0 28 -12t14 -26q0 -7 -2 -13t-7.5 -13t-9 -11.5t-13.5 -15t-15 -16.5l-105 -123l140 -163q18 -22 18 -33q0 -14 -13.5 -26
t-29.5 -12q-20 0 -40 27l-124 154l-124 -152q-21 -29 -44 -29q-16 0 -28 12t-12 26q0 18 14 32z" />
    <glyph glyph-name="y" unicode="y" horiz-adv-x="493" 
d="M249 96q60 134 135 326q7 19 15.5 28t24.5 9q17 0 30.5 -10.5t13.5 -25.5q0 -13 -7 -29q-83 -198 -231 -504q-62 -114 -145 -114q-68 0 -68 42q0 38 43 38q34 0 51.5 11.5t40.5 50.5q21 35 54 103l-39 81l-122 273q-16 34 -16 49q0 16 13.5 26t29.5 10q21 0 33 -20z" />
    <glyph glyph-name="z" unicode="z" horiz-adv-x="448" 
d="M259 384q-22 0 -82.5 -1.5t-96.5 -0.5q-34 0 -34 37q0 38 53 38q28 0 85 -1t84 -1q15 0 45.5 1t46.5 1q44 -1 45 -30q2 -13 -1 -24q-11 -25 -52 -74l-197 -235l-17 -23l181 4q54 3 57 3q38 0 38 -38q0 -39 -41 -40q-5 0 -26.5 0.5t-34.5 0.5q-19 0 -91.5 -1t-122.5 -1
q-29 0 -42.5 10.5t-13.5 36.5q0 17 14 38t50 64l200 237z" />
    <glyph glyph-name="braceleft" unicode="{" horiz-adv-x="293" 
d="M24 269q0 6 1 11t4 9.5t4.5 7.5t7 7t7.5 5.5t9.5 6.5t9.5 6q4 3 14.5 11t15.5 12.5t12 12.5t10 16t3 17q0 36 -18.5 98t-19.5 100q0 57 44 99.5t109 42.5q14 0 23.5 -10.5t9.5 -24.5t-8 -25t-21 -11q-33 0 -57 -23t-24 -56q0 -35 18.5 -96.5t19.5 -98.5q0 -69 -96 -119
q97 -53 97 -114q0 -35 -19.5 -99.5t-19.5 -101.5q0 -30 21.5 -54.5t55.5 -24.5q11 0 19.5 -10t8.5 -23q0 -15 -8 -24.5t-23 -9.5q-69 0 -109.5 43t-40.5 101q0 35 18.5 98.5t19.5 99.5q0 9 -6 19t-12 15.5t-19 16t-17 13.5q-17 10 -23.5 15t-13.5 16t-7 26z" />
    <glyph glyph-name="bar" unicode="|" horiz-adv-x="256" 
d="M88 682q1 42 38 42q22 0 31 -10t10 -39q0 -37 -0.5 -251.5t-0.5 -252.5l1 -323q1 -46 -41 -46q-38 0 -38 42l1 329z" />
    <glyph glyph-name="braceright" unicode="}" horiz-adv-x="293" 
d="M269 269q0 -15 -7 -26t-13.5 -16t-23.5 -15q-4 -3 -17 -13.5t-19 -16t-12 -15.5t-6 -19q1 -36 19.5 -99.5t18.5 -98.5q0 -58 -40.5 -101t-109.5 -43q-15 0 -23 10t-8 25q0 13 8.5 22.5t19.5 9.5q34 0 55.5 24.5t21.5 54.5q0 37 -19.5 101.5t-19.5 99.5q0 61 97 114
q-96 50 -96 119q1 37 19.5 98.5t18.5 96.5q0 33 -24 56t-57 23q-13 0 -21 11t-8 25t9.5 24.5t23.5 10.5q65 0 109 -42.5t44 -99.5q-1 -38 -19.5 -100t-18.5 -98q0 -9 3 -17t10 -16t12 -12.5t15.5 -12.5t14.5 -11q2 -2 8 -5.5t8.5 -5t7 -5t6.5 -6t5 -6t4.5 -7t2.5 -8.5t1 -10
z" />
    <glyph glyph-name="asciitilde" unicode="~" horiz-adv-x="500" 
d="M111 231q-15 -23 -37 -23q-16 0 -25.5 12.5t-5.5 29.5q12 38 43.5 64.5t74.5 27.5q35 0 65.5 -20t57 -40t50.5 -20q33 0 53 46q11 23 37 23q15 0 25 -11t8 -26q-28 -99 -117 -99q-34 0 -64.5 19.5t-57 38.5t-49.5 20q-16 0 -28.5 -8t-17 -14t-12.5 -20z" />
    <glyph glyph-name="uni00A0" unicode="&#xa0;" horiz-adv-x="246" 
 />
    <glyph glyph-name="exclamdown" unicode="&#xa1;" horiz-adv-x="229" 
d="M79 51l5 149q1 25 8.5 35t24.5 10q32 0 33 -35q8 -234 8 -372q1 -37 -7.5 -51.5t-34.5 -14.5q-22 0 -33.5 10.5t-10.5 30.5zM115 461q25 0 41.5 -14.5t16.5 -40.5q0 -24 -15.5 -39t-40.5 -15q-24 0 -40 17t-16 41q0 23 15.5 37t38.5 14z" />
    <glyph glyph-name="cent" unicode="&#xa2;" horiz-adv-x="472" 
d="M402 533q19 -12 19 -32q0 -14 -10.5 -27t-25.5 -13q-10 0 -40 15q-32 14 -68 14q-62 0 -103 -52.5t-41 -112.5q0 -66 38 -110t99 -44q52 0 87 21q2 1 11 7t15 8t13 2q14 0 24 -14t10 -28q0 -19 -14 -28q-45 -38 -113 -45v-72q0 -41 -37 -41q-33 0 -33 37v78
q-86 16 -134.5 81t-47.5 139q0 85 50.5 156t133.5 88l-1 95q0 20 9.5 30t22.5 10q37 0 37 -40v-91q55 -4 99 -31z" />
    <glyph glyph-name="sterling" unicode="&#xa3;" horiz-adv-x="525" 
d="M85 308q-31 0 -31 36q0 35 39 35h57q-6 31 -6 80q-4 104 43.5 164t137.5 60q50 0 92 -22q27 -17 19 -46q-9 -29 -41 -23q-6 1 -20.5 5t-25 6t-22.5 2q-101 0 -101 -135q0 -46 7 -91q31 0 74 0.5t49 0.5q36 0 36 -33q0 -24 -11 -32t-44 -8q-7 0 -44.5 0.5t-46.5 0.5
q23 -151 -14 -208q118 -37 154 -37q33 0 44 26q10 24 35 24q16 0 27 -11t10 -28q-11 -85 -111 -85q-36 0 -129 25t-112 26q-32 0 -49 -22q-2 -2 -4.5 -6t-4 -6t-5 -5t-6.5 -4.5t-8 -2.5t-11 -1q-17 0 -28 11.5t-11 27.5q0 34 27.5 59t63.5 27q6 0 38 -5q19 23 20.5 87
t-9.5 108h-78z" />
    <glyph glyph-name="currency" unicode="&#xa4;" horiz-adv-x="565" 
d="M299 508q45 0 88 -28l57 66q24 28 44 28q14 0 26.5 -12t12.5 -27q0 -4 -0.5 -8t-3 -8t-4 -6.5t-5 -6.5t-5.5 -6l-7 -7l-7 -7l-55 -58q40 -59 40 -120q0 -60 -35 -112l64 -67q18 -18 18 -35q0 -15 -13 -26.5t-28 -11.5q-16 0 -40 27l-53 61q-58 -37 -114 -37t-109 41
l-52 -59q-21 -27 -41 -27q-16 0 -28 11.5t-12 26.5q0 16 12 33l71 70q-27 46 -27 93q0 76 42 130l-71 73q-21 22 -22 33q-1 3 -1 8q0 17 12 27.5t27 11.5q19 0 36 -21l70 -81q52 31 113 31zM408 311q0 56 -33 92.5t-89 35.5q-52 0 -86 -39.5t-34 -103.5q0 -50 35 -84.5
t78 -34.5q50 -1 89.5 37t39.5 97z" />
    <glyph glyph-name="yen" unicode="&#xa5;" horiz-adv-x="587" 
d="M139 239q-32 0 -30 34q3 28 42 28q15 0 43 -0.5t44 -0.5l-199 301q-15 23 -15 37q0 15 13 27t29 12q25 0 41 -28l187 -300l179 290q23 37 46 37q16 0 29.5 -12t13.5 -26q0 -13 -19 -43l-197 -295h84q23 0 32.5 -6.5t9.5 -23.5q0 -32 -38 -32h-100q0 -10 -0.5 -32
t-0.5 -32h100q39 0 39 -30q0 -32 -38 -32h-101v-70q0 -44 -41 -44q-43 0 -43 47l1 67l-108 1q-33 0 -33 34q0 28 37 28q17 0 52 -0.5t53 -0.5q1 21 1 64q-29 0 -68 0.5t-45 0.5z" />
    <glyph glyph-name="brokenbar" unicode="&#xa6;" horiz-adv-x="257" 
d="M89 163q1 41 38 41q22 0 31 -10t10 -39v-178v-130q0 -46 -40 -46q-39 0 -39 43v175v144zM88 355v176v164q1 17 12.5 26.5t27.5 9.5q39 0 39 -41v-159v-174q0 -42 -40 -42q-39 0 -39 40z" />
    <glyph glyph-name="section" unicode="&#xa7;" horiz-adv-x="493" 
d="M49 312q0 72 74 125q-40 27 -42 90q0 70 58 119.5t128 49.5t122 -24q25 -12 25 -33q0 -14 -8.5 -24.5t-24.5 -10.5q-9 0 -45 12t-71 12q-43 0 -76 -27.5t-32 -69.5q0 -26 18 -44t38.5 -25.5t53.5 -14.5q84 -18 128 -53.5t47 -105.5q3 -80 -60 -137q26 -35 26 -82
q0 -76 -53.5 -124.5t-130.5 -48.5q-57 0 -113 21q-53 19 -54 47q0 15 9.5 27t23.5 12q10 0 29 -8q50 -25 104 -25q47 0 80 24t33 67t-29.5 62t-93.5 34q-76 19 -119.5 53t-44.5 102zM245 381q-43 9 -70 22q-54 -43 -54 -86q0 -40 28.5 -60t79.5 -33l104 -34q37 44 35 90
q-2 43 -34 66t-89 35z" />
    <glyph glyph-name="dieresis" unicode="&#xa8;" horiz-adv-x="339" 
d="M87 565q-20 0 -34 14.5t-14 35.5t15.5 36t37.5 15t36 -14.5t14 -35.5q0 -23 -15 -37t-40 -14zM246 567q-20 0 -34 14.5t-14 35.5t15 35.5t38 14.5q22 0 35.5 -14.5t13.5 -36.5t-15 -35.5t-39 -13.5z" />
    <glyph glyph-name="copyright" unicode="&#xa9;" horiz-adv-x="758" 
d="M381 687q137 0 233.5 -96.5t96.5 -242.5q0 -151 -93 -254.5t-237 -103.5q-62 0 -122 24t-107 66t-76 105.5t-29 137.5q0 82 28.5 151.5t75.5 115.5t107 71.5t123 25.5zM648 345q-2 123 -78 201.5t-196 78.5q-115 0 -189 -83.5t-74 -209.5q0 -123 80.5 -201t196.5 -78
q112 0 187 87.5t73 204.5zM487 494q16 -10 16 -25q0 -11 -7 -20t-19 -9q-3 0 -33 12q-24 12 -57 12q-48 0 -80 -40t-32 -90q0 -54 34.5 -91t80.5 -37q40 0 65 15q26 14 31 14q11 0 19 -9.5t8 -19.5q0 -12 -12 -24q-45 -36 -111 -36q-78 0 -127.5 55.5t-49.5 127.5
q0 76 49.5 134.5t124.5 58.5q53 0 100 -28z" />
    <glyph glyph-name="ordfeminine" unicode="&#xaa;" horiz-adv-x="395" 
d="M351 455q0 -31 2 -97q0 -27 -32 -27q-21 0 -26 23q0 4 -1 13.5t-1 14.5q-34 -54 -112 -54q-67 0 -109.5 45.5t-42.5 109.5q0 76 47 126t116 50q64 0 102 -50q0 4 0.5 11.5t0.5 10.5q5 26 27 26q18 0 24 -10t6 -31q-1 -37 -1 -161zM94 485q0 -44 27.5 -72.5t67.5 -28.5
q44 0 74 30.5t30 78.5q0 52 -30 81.5t-70 29.5q-43 0 -71 -33.5t-28 -85.5z" />
    <glyph glyph-name="guillemotleft" unicode="&#xab;" horiz-adv-x="461" 
d="M213 355l-102 -117l105 -117q17 -17 17 -30q0 -10 -10.5 -19.5t-21.5 -9.5q-12 0 -28 14l-123 119q-21 23 -21 43q0 19 19 39q14 15 36 37t49.5 49t38.5 38q13 11 24 11t21.5 -9t10.5 -20q0 -12 -15 -28zM413 355l-102 -117l105 -117q16 -16 16 -30q0 -10 -10 -19.5
t-21 -9.5q-12 0 -28 14l-123 119q-22 22 -22 43q0 17 19 39l124 124q13 11 25 11q11 0 21.5 -9t10.5 -20t-15 -28z" />
    <glyph glyph-name="logicalnot" unicode="&#xac;" horiz-adv-x="485" 
d="M67 234q-17 0 -27 9.5t-10 26.5q0 37 41 37q20 0 169.5 1t170.5 1q35 0 35 -42q0 -23 1 -78t1 -84q0 -38 -37 -38t-37 36v133q-134 -2 -307 -2z" />
    <glyph glyph-name="uni00AD" unicode="&#xad;" horiz-adv-x="353" 
d="M78 202q-19 0 -29 10.5t-10 26.5q0 38 47 38h187q40 0 40 -35q0 -21 -11.5 -30.5t-40.5 -9.5h-183z" />
    <glyph glyph-name="registered" unicode="&#xae;" horiz-adv-x="757" 
d="M381 686q136 0 232 -96t96 -242q0 -151 -93 -254.5t-237 -103.5q-84 0 -159 40t-124 118t-49 176q0 82 28 151.5t75 115t107 70.5t124 25zM647 345q-2 123 -78 201.5t-196 78.5q-116 0 -189.5 -82.5t-73.5 -209.5q0 -123 80 -201.5t196 -78.5q112 0 187.5 87.5
t73.5 204.5zM268 495q0 33 41 33q9 0 29.5 0.5t45.5 0.5q56 0 89.5 -31t33.5 -80q0 -37 -18.5 -65t-47.5 -41q14 -20 40 -55t35 -48q10 -8 10 -22q0 -10 -8 -18t-20 -8q-14 0 -23 13l-89 125q-23 0 -39.5 0.5t-23.5 0.5q0 -69 1 -109q0 -28 -28 -29q-29 0 -29 27l2 58
q0 25 -0.5 92t-0.5 96v60zM378 479q-8 0 -27 -0.5t-28 -0.5v-130h48q82 0 82 68q0 63 -75 63z" />
    <glyph glyph-name="macron" unicode="&#xaf;" horiz-adv-x="357" 
d="M76 591q-36 0 -36 34q0 36 47 36q12 0 40 -0.5t42 -0.5q24 0 61.5 1t48.5 1q36 0 38 -32q0 -38 -50 -38q-14 0 -48.5 0.5t-52.5 0.5t-48.5 -1t-41.5 -1z" />
    <glyph glyph-name="degree" unicode="&#xb0;" horiz-adv-x="286" 
d="M145 682q50 0 84 -33.5t34 -85.5q0 -53 -34.5 -87t-88.5 -34q-48 0 -82 32.5t-34 82.5q0 56 33.5 90.5t87.5 34.5zM215 565q0 33 -20.5 53t-53.5 20q-30 0 -50 -22t-20 -57q0 -31 20.5 -52t49.5 -21q31 0 52.5 22t21.5 57z" />
    <glyph glyph-name="plusminus" unicode="&#xb1;" horiz-adv-x="485" 
d="M76 312q-19 0 -27 12.5t-6 29.5q1 32 49 32h120v146q0 18 11 27t26 9q19 0 27.5 -10.5t8.5 -34.5v-138h135q35 0 35 -36q0 -19 -9.5 -27t-33.5 -9q-21 -1 -128 -1q0 -31 0.5 -82.5t0.5 -60.5q0 -34 -40 -32q-33 0 -33 42v134q-29 0 -79 -0.5t-57 -0.5zM64 1
q-18 0 -26 12.5t-7 27.5q3 33 49 33q11 0 62 -0.5t80 -0.5h188q35 0 35 -35q0 -20 -11.5 -28.5t-39.5 -9.5q-31 0 -169 0.5t-161 0.5z" />
    <glyph glyph-name="twosuperior" unicode="&#xb2;" horiz-adv-x="319" 
d="M151 695q-32 0 -60 -30q-13 -15 -31 -15q-11 0 -19.5 9.5t-8.5 22.5q0 18 24 37q40 38 94 38q55 1 93 -31.5t38 -85.5q0 -10 -1 -19t-5 -18t-6.5 -15.5t-9.5 -15.5t-10.5 -14t-13.5 -15.5t-14 -14t-16.5 -15.5t-16.5 -16l-70 -67q136 2 145 2q30 0 30 -30q0 -31 -34 -31
h-65h-131q-15 0 -24 9t-9 25q0 25 24 46l99 97q23 21 33 31.5t20.5 27.5t10.5 32q0 24 -18.5 40t-47.5 16z" />
    <glyph glyph-name="threesuperior" unicode="&#xb3;" horiz-adv-x="315" 
d="M218 494q0 30 -21.5 45t-53.5 15h-24q-27 0 -27 30q0 12 15 27l83 84q-14 0 -61 -0.5t-62 -0.5q-32 0 -32 29q0 30 29 30h66q19 0 59 -0.5t59 -0.5q29 0 29 -28q0 -16 -19 -35l-85 -87q44 -1 76.5 -29t32.5 -76q0 -59 -37 -94t-98 -35q-57 0 -93 22q-25 16 -25 34
q0 13 8.5 21.5t19.5 8.5t29 -9q34 -18 61 -18q31 0 51 18t20 49z" />
    <glyph glyph-name="acute" unicode="&#xb4;" horiz-adv-x="240" 
d="M91 550q-13 -10 -23 -10q-11 0 -22 9.5t-11 20.5q0 12 9 22q6 7 39 44t55 64q14 17 29 17t27.5 -12.5t12.5 -27.5q0 -11 -14 -25q-42 -47 -102 -102z" />
    <glyph glyph-name="mu" unicode="&#xb5;" horiz-adv-x="561" 
d="M120 457q35 0 35 -39q0 -21 -0.5 -84.5t-0.5 -119.5q0 -63 24 -106t81 -43q65 0 103 52t38 127v168q0 47 44 47q40 0 40 -43q0 -9 -0.5 -84.5t-0.5 -125.5q0 -99 19 -124q2 -2 11 -11.5t12.5 -16.5t3.5 -17q0 -16 -10 -28t-28 -12q-27 0 -47 21q-25 25 -31 76
q-49 -100 -172 -100q-30 0 -55 15.5t-34 34.5q0 -84 -10 -151q-13 -104 -65 -104q-44 0 -44 42q0 17 18.5 65t20.5 113q3 129 3 190q0 23 -0.5 84t-0.5 102q0 40 9.5 56t36.5 16z" />
    <glyph glyph-name="paragraph" unicode="&#xb6;" horiz-adv-x="625" 
d="M470 55l2 551h-136v-70v-185v-299q0 -28 -8.5 -42.5t-32.5 -14.5q-39 0 -39 40q0 24 1.5 131t0.5 146h-13q-211 0 -211 180q-1 85 52 135.5t145 50.5h67q13 0 141 1q10 0 33 0.5t33 0.5q46 0 46 -43q0 -15 -0.5 -39t-1 -77.5t-0.5 -126.5q0 -62 0.5 -176.5t0.5 -174.5
q0 -26 -9.5 -36.5t-30.5 -10.5q-22 0 -31 14.5t-9 44.5z" />
    <glyph glyph-name="periodcentered" unicode="&#xb7;" horiz-adv-x="206" 
d="M99 183q-23 0 -38.5 16t-15.5 39q0 24 17 40t43 16q24 0 39.5 -16t15.5 -40q0 -26 -17 -40.5t-44 -14.5z" />
    <glyph glyph-name="cedilla" unicode="&#xb8;" horiz-adv-x="254" 
d="M77 -54l24 55h51l-18 -53q30 0 55 -20t25 -59q0 -44 -28 -69.5t-71 -25.5q-27 0 -53 13q-22 13 -22 31q0 10 7.5 17.5t18.5 7.5q6 0 23 -7.5t31 -7.5q38 0 38 39q0 34 -45 34h-12q-14 1 -21.5 15.5t-2.5 29.5z" />
    <glyph glyph-name="onesuperior" unicode="&#xb9;" horiz-adv-x="253" 
d="M75 636q-10 -7 -20 -7t-18.5 9t-8.5 20q0 14 17 28l79 56q18 12 32 12q11 0 20.5 -8t9.5 -18v-110q0 -36 -0.5 -111t-0.5 -111q0 -26 -31 -26q-32 0 -32 30q0 26 2.5 128t2.5 146q-18 -15 -52 -38z" />
    <glyph glyph-name="ordmasculine" unicode="&#xba;" horiz-adv-x="391" 
d="M360 492q0 -70 -46.5 -117t-120.5 -47q-68 0 -116 46.5t-48 109.5q0 76 48 125.5t117 49.5q74 -1 120 -47t46 -120zM94 486q0 -44 29.5 -73t69.5 -29q44 0 73.5 31t29.5 78q0 51 -29 81t-72 30t-72 -33t-29 -85z" />
    <glyph glyph-name="guillemotright" unicode="&#xbb;" horiz-adv-x="461" 
d="M149 238l-102 117q-15 17 -15 28t10.5 20t21.5 9q12 0 25 -11l124 -124q19 -22 19 -39q0 -21 -22 -43l-123 -119q-16 -14 -28 -14q-11 0 -21 9.5t-10 19.5q0 14 16 30zM350 238l-102 117q-15 16 -15 28q0 11 10.5 20t21.5 9t24 -11q11 -11 38.5 -38t49.5 -49t36 -37
q19 -20 19 -39q0 -20 -21 -43l-123 -119q-16 -14 -28 -14q-11 0 -21.5 9.5t-10.5 19.5q0 13 17 30z" />
    <glyph glyph-name="onequarter" unicode="&#xbc;" horiz-adv-x="762" 
d="M608 200q0 33 27 33q31 0 32 -26v-75l38 1q28 0 28 -26q0 -34 -26 -34h-40v-49q0 -27 -31 -27q-29 0 -29 27q0 10 0.5 25t0.5 24h-141q-16 0 -25.5 11.5t-9.5 25.5q0 20 15 43l113 209q12 22 30 22q14 0 25.5 -9t11.5 -20q0 -5 -5 -18l-116 -206l102 1v68zM508 658
q12 21 30 21q12 0 20.5 -8t8.5 -20t-9 -27l-154 -255l-207 -354q-10 -19 -27 -19q-11 0 -21 8t-10 21q0 11 9 26zM82 563q-9 -6 -19 -6q-11 0 -19 8.5t-8 19.5q0 16 17 28l79 57q16 11 32 11q11 0 20.5 -8t9.5 -18q0 -18 -0.5 -54.5t-0.5 -55.5v-221q0 -27 -31 -27
q-33 0 -33 30q0 25 2.5 128t2.5 146q-25 -21 -52 -38z" />
    <glyph glyph-name="onehalf" unicode="&#xbd;" horiz-adv-x="762" 
d="M506 658q12 21 29 21q12 0 21 -8t9 -20q0 -9 -9 -27l-154 -255l-207 -354q-10 -19 -28 -19q-11 0 -20.5 8t-9.5 21q0 11 9 26zM82 563q-10 -6 -19 -6q-11 0 -19.5 8.5t-8.5 19.5q0 14 17 28l79 57q17 11 33 11q11 0 20.5 -8t9.5 -18q0 -18 -0.5 -54.5t-0.5 -55.5v-221
q0 -27 -32 -27q-14 0 -23 8t-9 22q0 25 2.5 128t2.5 146q-31 -25 -52 -38zM591 323q-32 0 -60 -30q-12 -15 -31 -15q-12 0 -20.5 9t-8.5 22q0 18 24 38q42 38 95 38q55 0 93 -32t38 -85q0 -9 -1.5 -17.5t-3 -15.5t-6 -15.5t-7 -13.5t-10 -14t-10 -13t-12.5 -13.5t-13 -12.5
t-15 -14.5t-15 -14.5l-70 -66q40 0 91 1t54 1q14 0 22 -8.5t8 -22.5q0 -31 -34 -31q-7 0 -31 0.5t-34 0.5h-131q-15 0 -24 9t-9 24q0 24 23 46l100 98q22 20 32.5 31t20.5 27.5t10 31.5q0 24 -18 40.5t-47 16.5z" />
    <glyph glyph-name="threequarters" unicode="&#xbe;" horiz-adv-x="792" 
d="M639 200q0 33 27 33q31 0 32 -26v-75l38 1q28 0 28 -26q0 -34 -26 -34h-40v-49q0 -27 -31 -27q-29 0 -29 27q0 10 0.5 25t0.5 24h-43h-56h-42q-16 0 -25.5 11.5t-9.5 25.5q0 20 15 43l113 209q12 22 30 22q14 0 25.5 -9t11.5 -20q0 -5 -5 -18l-116 -206l102 1v68z
M552 658q12 21 29 21q12 0 21 -8t9 -20q0 -9 -9 -27l-154 -255l-207 -354q-10 -19 -28 -19q-11 0 -20.5 8t-9.5 21q0 11 9 26zM228 421q0 30 -21 45t-53 15h-24q-27 0 -27 30q0 13 15 28l83 83q-94 0 -123 -1q-32 0 -32 29q0 30 29 30h65q20 0 60 -0.5t58 -0.5q30 0 30 -27
q0 -18 -19 -35l-85 -88q44 -1 76 -29t33 -75q0 -60 -37 -95t-98 -35q-55 0 -94 23q-24 14 -24 34q0 13 9 21.5t19 8.5q9 0 29 -9q32 -18 61 -18q31 0 50.5 18t19.5 48z" />
    <glyph glyph-name="questiondown" unicode="&#xbf;" horiz-adv-x="484" 
d="M436 -130q0 -19 -22 -36q-80 -64 -171 -64q-84 0 -145.5 51.5t-61.5 134.5q0 27 10.5 51t21 39t36 34.5t35.5 25.5t39 24q47 30 49 68q1 9 -3 17.5t-4 17.5q0 16 11 25t28 9q24 0 37 -20.5t13 -52.5q0 -69 -82 -116q-28 -16 -41 -24.5t-32.5 -25t-28 -34t-8.5 -38.5
q0 -48 37.5 -79.5t90.5 -31.5q58 0 110 41q30 22 44 22t25.5 -12t11.5 -26zM317 408q0 -24 -17 -40t-43 -16q-27 0 -42.5 15.5t-15.5 39.5q0 27 17 41t42 14q27 0 43 -14.5t16 -39.5z" />
    <glyph glyph-name="Agrave" unicode="&#xc0;" horiz-adv-x="639" 
d="M25 35q0 14 15 49l105 246q29 67 127 319q13 32 48 32q36 0 50 -33q18 -41 67.5 -171t67.5 -176q1 -3 5.5 -13t6.5 -15l88 -214q8 -20 8 -29q0 -12 -13.5 -23t-31.5 -11t-27 7.5t-17 27.5q-59 152 -60 154q-31 1 -190 1h-102q-5 -12 -27.5 -71t-29.5 -75q-15 -33 -25 -39
q-8 -4 -18 -4q-47 0 -47 38zM320 577q-41 -118 -123 -322q117 -2 241 1q-6 16 -32.5 89.5t-50.5 139t-35 92.5zM341 741q-67 65 -100 103q-13 16 -13 29t12.5 24t25.5 11q19 0 31 -17l88 -109q9 -10 9 -22q0 -10 -9.5 -19.5t-20.5 -9.5q-10 0 -23 10z" />
    <glyph glyph-name="Aacute" unicode="&#xc1;" horiz-adv-x="639" 
d="M25 35q0 14 15 49l105 246q29 67 127 319q13 32 48 32q36 0 50 -33q18 -41 67.5 -171t67.5 -176q1 -3 5.5 -13t6.5 -15l88 -214q8 -20 8 -29q0 -12 -13.5 -23t-31.5 -11t-27 7.5t-17 27.5q-59 152 -60 154q-31 1 -190 1h-102q-5 -12 -27.5 -71t-29.5 -75q-15 -33 -25 -39
q-8 -4 -18 -4q-47 0 -47 38zM320 577q-41 -118 -123 -322q117 -2 241 1q-6 16 -32.5 89.5t-50.5 139t-35 92.5zM307 740q-13 -10 -23 -10q-11 0 -22 9.5t-11 20.5q0 12 9 22q6 7 39 44t55 64q14 17 29 17t27.5 -12.5t12.5 -27.5q0 -11 -14 -25q-42 -47 -102 -102z" />
    <glyph glyph-name="Acircumflex" unicode="&#xc2;" horiz-adv-x="639" 
d="M25 35q0 14 15 49l105 246q29 67 127 319q13 32 48 32q36 0 50 -33q18 -41 67.5 -171t67.5 -176q1 -3 5.5 -13t6.5 -15l88 -214q8 -20 8 -29q0 -12 -13.5 -23t-31.5 -11t-27 7.5t-17 27.5q-59 152 -60 154q-31 1 -190 1h-102q-5 -12 -27.5 -71t-29.5 -75q-15 -33 -25 -39
q-8 -4 -18 -4q-47 0 -47 38zM320 577q-41 -118 -123 -322q117 -2 241 1q-6 16 -32.5 89.5t-50.5 139t-35 92.5zM427 724q-6 0 -24 12l-82 84q-77 -81 -83 -86q-10 -9 -23 -9q-9 0 -18.5 9t-9.5 19q0 12 11 25l86 96q15 18 38 18q19 0 34 -16l87 -98q13 -17 13 -26t-9 -18.5
t-20 -9.5z" />
    <glyph glyph-name="Atilde" unicode="&#xc3;" horiz-adv-x="639" 
d="M25 35q0 14 15 49l105 246q29 67 127 319q13 32 48 32q36 0 50 -33q18 -41 67.5 -171t67.5 -176q1 -3 5.5 -13t6.5 -15l88 -214q8 -20 8 -29q0 -12 -13.5 -23t-31.5 -11t-27 7.5t-17 27.5q-59 152 -60 154q-31 1 -190 1h-102q-5 -12 -27.5 -71t-29.5 -75q-15 -33 -25 -39
q-8 -4 -18 -4q-47 0 -47 38zM320 577q-41 -118 -123 -322q117 -2 241 1q-6 16 -32.5 89.5t-50.5 139t-35 92.5zM230 775q-4 -23 -31 -23q-14 0 -22 9.5t-7 25.5q2 37 26.5 59.5t62.5 22.5q27 0 48 -15t38.5 -30t36.5 -16q27 0 29 39q1 11 10.5 17.5t19.5 6.5q12 0 20.5 -8
t8.5 -20q0 -47 -23.5 -70.5t-62.5 -23.5q-22 1 -40 10t-28.5 19.5t-25 19.5t-28.5 10q-30 0 -32 -33z" />
    <glyph glyph-name="Adieresis" unicode="&#xc4;" horiz-adv-x="639" 
d="M25 35q0 14 15 49l105 246q29 67 127 319q13 32 48 32q36 0 50 -33q18 -41 67.5 -171t67.5 -176q1 -3 5.5 -13t6.5 -15l88 -214q8 -20 8 -29q0 -12 -13.5 -23t-31.5 -11t-27 7.5t-17 27.5q-59 152 -60 154q-31 1 -190 1h-102q-5 -12 -27.5 -71t-29.5 -75q-15 -33 -25 -39
q-8 -4 -18 -4q-47 0 -47 38zM320 577q-41 -118 -123 -322q117 -2 241 1q-6 16 -32.5 89.5t-50.5 139t-35 92.5zM237 755q-20 0 -34 14.5t-14 35.5t15.5 36t37.5 15t36 -14.5t14 -35.5q0 -23 -15 -37t-40 -14zM396 757q-20 0 -34 14.5t-14 35.5t15 35.5t38 14.5
q22 0 35.5 -14.5t13.5 -36.5t-15 -35.5t-39 -13.5z" />
    <glyph glyph-name="Aring" unicode="&#xc5;" horiz-adv-x="639" 
d="M322 849q44 0 76 -28.5t32 -72.5q0 -33 -17 -59.5t-45 -38.5l5 -10q17 -40 64.5 -165t67.5 -174q1 -3 5.5 -13t6.5 -15l88 -214q8 -20 8 -29q0 -13 -13 -23.5t-31 -10.5q-19 0 -28 8t-17 27q-59 152 -60 154q-31 1 -190 1h-102q-5 -12 -27.5 -71t-29.5 -75
q-15 -33 -25 -39q-8 -4 -18 -4q-47 0 -47 38q0 14 15 49l105 246q34 77 124 310q2 5 5 10q-27 11 -45 35.5t-18 56.5q0 47 34.5 77t76.5 30zM320 577q-41 -118 -123 -322q117 -2 241 1q-6 16 -32.5 89.5t-50.5 139t-35 92.5zM378 747q0 24 -16.5 39.5t-41.5 15.5
q-24 0 -41 -15.5t-17 -41.5q0 -27 16.5 -43t42.5 -16t42 18t15 43z" />
    <glyph glyph-name="AE" unicode="&#xc6;" horiz-adv-x="906" 
d="M18 40q0 18 23 46q82 114 200.5 294.5t171.5 254.5q30 42 73 42q12 0 77 0.5t146 1t115 0.5q45 0 45 -36q0 -33 -29 -37q-164 -2 -290 -2q0 -22 -0.5 -61.5t-0.5 -57.5l-1 -94v-24h50q20 0 80.5 0.5t104.5 0.5q42 0 42 -35q0 -36 -41 -36q-28 0 -126.5 -0.5t-110.5 -0.5
v-69q0 -25 -0.5 -77t-0.5 -77q61 0 283 4q41 0 41 -37q0 -40 -45 -42h-252q-69 0 -89 10t-21 51l1 123l-254 2q-15 -20 -101 -153q-23 -34 -49 -34q-17 0 -30 12.5t-12 30.5zM467 578l-218 -325l217 1q0 62 1 93v80q0 25 -0.5 75t0.5 76z" />
    <glyph glyph-name="Ccedilla" unicode="&#xc7;" horiz-adv-x="608" 
d="M317 -54l20 47q-119 9 -203 99.5t-83 233.5q1 160 99.5 259.5t225.5 98.5q81 0 146 -29q44 -20 44 -46q0 -18 -9.5 -30t-27.5 -12q-13 1 -39 13q-60 28 -123 28q-92 0 -162 -79t-71 -198q0 -108 67.5 -184t169.5 -77q75 0 136 40q3 2 7.5 4.5t6.5 4t6 3t8 2t9 0.5
q14 0 23 -13t9 -29q0 -31 -59 -58t-129 -32l-14 -44q29 0 54 -20t25 -59q0 -44 -27.5 -69.5t-70.5 -25.5q-26 0 -54 13q-22 13 -22 31q0 10 8 17.5t19 7.5q6 0 22.5 -7.5t30.5 -7.5q38 0 38 39q0 34 -44 34h-12q-15 1 -22 15.5t-2 29.5z" />
    <glyph glyph-name="Egrave" unicode="&#xc8;" horiz-adv-x="543" 
d="M94 637q0 24 16 32.5t49 8.5h48q53 0 134.5 1t106.5 1q46 0 48 -36q0 -33 -27 -37q-30 -1 -241 -1h-52q-1 -42 -1 -121l-1 -97v-19h50q108 0 174 3q27 0 39 -7t12 -30q-2 -36 -45 -36h-231v-72q0 -25 -1 -77t-1 -77q131 0 264 2q7 0 18 0.5t17 0.5q35 0 35 -36
q0 -20 -11 -30.5t-40 -11.5h-262q-66 0 -84.5 10t-19.5 50q0 26 1 40l1 14q0 13 0.5 37.5t1 57t1 79.5t0.5 97q0 43 0.5 127t0.5 127zM323 741q-67 65 -100 103q-13 16 -13 29t12.5 24t25.5 11q19 0 31 -17l88 -109q9 -10 9 -22q0 -10 -9.5 -19.5t-20.5 -9.5q-10 0 -23 10z
" />
    <glyph glyph-name="Eacute" unicode="&#xc9;" horiz-adv-x="543" 
d="M94 637q0 24 16 32.5t49 8.5h48q53 0 134.5 1t106.5 1q46 0 48 -36q0 -33 -27 -37q-30 -1 -241 -1h-52q-1 -42 -1 -121l-1 -97v-19h50q108 0 174 3q27 0 39 -7t12 -30q-2 -36 -45 -36h-231v-72q0 -25 -1 -77t-1 -77q131 0 264 2q7 0 18 0.5t17 0.5q35 0 35 -36
q0 -20 -11 -30.5t-40 -11.5h-262q-66 0 -84.5 10t-19.5 50q0 26 1 40l1 14q0 13 0.5 37.5t1 57t1 79.5t0.5 97q0 43 0.5 127t0.5 127zM289 740q-13 -10 -23 -10q-11 0 -22 9.5t-11 20.5q0 12 9 22q6 7 39 44t55 64q14 17 29 17t27.5 -12.5t12.5 -27.5q0 -11 -14 -25
q-42 -47 -102 -102z" />
    <glyph glyph-name="Ecircumflex" unicode="&#xca;" horiz-adv-x="543" 
d="M94 637q0 24 16 32.5t49 8.5h48q53 0 134.5 1t106.5 1q46 0 48 -36q0 -33 -27 -37q-30 -1 -241 -1h-52q-1 -42 -1 -121l-1 -97v-19h50q108 0 174 3q27 0 39 -7t12 -30q-2 -36 -45 -36h-231v-72q0 -25 -1 -77t-1 -77q131 0 264 2q7 0 18 0.5t17 0.5q35 0 35 -36
q0 -20 -11 -30.5t-40 -11.5h-262q-66 0 -84.5 10t-19.5 50q0 26 1 40l1 14q0 13 0.5 37.5t1 57t1 79.5t0.5 97q0 43 0.5 127t0.5 127zM409 724q-6 0 -24 12l-82 84q-77 -81 -83 -86q-10 -9 -23 -9q-9 0 -18.5 9t-9.5 19q0 12 11 25l86 96q15 18 38 18q19 0 34 -16l87 -98
q13 -17 13 -26t-9 -18.5t-20 -9.5z" />
    <glyph glyph-name="Edieresis" unicode="&#xcb;" horiz-adv-x="543" 
d="M94 637q0 24 16 32.5t49 8.5h48q53 0 134.5 1t106.5 1q46 0 48 -36q0 -33 -27 -37q-30 -1 -241 -1h-52q-1 -42 -1 -121l-1 -97v-19h50q108 0 174 3q27 0 39 -7t12 -30q-2 -36 -45 -36h-231v-72q0 -25 -1 -77t-1 -77q131 0 264 2q7 0 18 0.5t17 0.5q35 0 35 -36
q0 -20 -11 -30.5t-40 -11.5h-262q-66 0 -84.5 10t-19.5 50q0 26 1 40l1 14q0 13 0.5 37.5t1 57t1 79.5t0.5 97q0 43 0.5 127t0.5 127zM219 755q-20 0 -34 14.5t-14 35.5t15.5 36t37.5 15t36 -14.5t14 -35.5q0 -23 -15 -37t-40 -14zM378 757q-20 0 -34 14.5t-14 35.5t15 35.5
t38 14.5q22 0 35.5 -14.5t13.5 -36.5t-15 -35.5t-39 -13.5z" />
    <glyph glyph-name="Igrave" unicode="&#xcc;" horiz-adv-x="274" 
d="M97 403q0 29 -1 106.5t-1 130.5q0 42 44 42q18 0 29 -10t11 -28q0 -78 -1 -249v-160l1 -192q0 -47 -42 -47q-19 0 -31 10t-11 29q0 14 0.5 43t0.5 45zM157 741q-67 65 -100 103q-13 16 -13 29t12.5 24t25.5 11q19 0 31 -17l88 -109q9 -10 9 -22q0 -10 -9.5 -19.5
t-20.5 -9.5q-10 0 -23 10z" />
    <glyph glyph-name="Iacute" unicode="&#xcd;" horiz-adv-x="274" 
d="M97 403q0 29 -1 106.5t-1 130.5q0 42 44 42q18 0 29 -10t11 -28q0 -78 -1 -249v-160l1 -192q0 -47 -42 -47q-19 0 -31 10t-11 29q0 14 0.5 43t0.5 45zM123 740q-13 -10 -23 -10q-11 0 -22 9.5t-11 20.5q0 12 9 22q6 7 39 44t55 64q14 17 29 17t27.5 -12.5t12.5 -27.5
q0 -11 -14 -25q-42 -47 -102 -102z" />
    <glyph glyph-name="Icircumflex" unicode="&#xce;" horiz-adv-x="274" 
d="M97 403q0 29 -1 106.5t-1 130.5q0 42 44 42q18 0 29 -10t11 -28q0 -78 -1 -249v-160l1 -192q0 -47 -42 -47q-19 0 -31 10t-11 29q0 14 0.5 43t0.5 45zM243 724q-6 0 -24 12l-82 84q-77 -81 -83 -86q-10 -9 -23 -9q-9 0 -18.5 9t-9.5 19q0 12 11 25l86 96q15 18 38 18
q19 0 34 -16l87 -98q13 -17 13 -26t-9 -18.5t-20 -9.5z" />
    <glyph glyph-name="Idieresis" unicode="&#xcf;" horiz-adv-x="274" 
d="M97 403q0 29 -1 106.5t-1 130.5q0 42 44 42q18 0 29 -10t11 -28q0 -78 -1 -249v-160l1 -192q0 -47 -42 -47q-19 0 -31 10t-11 29q0 14 0.5 43t0.5 45zM53 755q-20 0 -34 14.5t-14 35.5t15.5 36t37.5 15t36 -14.5t14 -35.5q0 -23 -15 -37t-40 -14zM212 757q-20 0 -34 14.5
t-14 35.5t15 35.5t38 14.5q22 0 35.5 -14.5t13.5 -36.5t-15 -35.5t-39 -13.5z" />
    <glyph glyph-name="Eth" unicode="&#xd0;" horiz-adv-x="679" 
d="M84 622q0 58 81 58q9 0 68.5 0.5t66.5 0.5q145 -7 240.5 -90.5t95.5 -229.5q0 -358 -380 -361q-79 0 -123 2q-48 3 -48 59l1 230h-39q-37 0 -37 36t43 36h34zM272 605q-69 0 -105 -3v-239h91q39 0 39 -35q0 -20 -10 -28.5t-35 -8.5h-85v-192q0 -16 14.5 -19t68.5 -3
q303 0 303 273q0 85 -40 144t-101.5 85t-139.5 26z" />
    <glyph glyph-name="Ntilde" unicode="&#xd1;" horiz-adv-x="707" 
d="M166 50q0 -28 -9 -40.5t-30 -12.5q-43 0 -43 40q0 58 1 263q0 46 -0.5 116t-0.5 116v106q0 19 14.5 30.5t36.5 11.5q13 0 25 -8t17.5 -15t18.5 -25l245 -347l106 -149q-3 87 -3 235l-2 247q0 30 8 45.5t34 15.5q24 0 31.5 -14t7.5 -45v-332q2 -59 2 -246q0 -20 -13.5 -32
t-36.5 -12q-18 0 -28.5 9.5t-29.5 36.5l-354 505q-1 -55 1 -257.5t2 -241.5zM263 775q-4 -23 -31 -23q-14 0 -22 9.5t-7 25.5q2 37 26.5 59.5t62.5 22.5q27 0 48 -15t38.5 -30t36.5 -16q27 0 29 39q1 11 10.5 17.5t19.5 6.5q12 0 20.5 -8t8.5 -20q0 -47 -23.5 -70.5
t-62.5 -23.5q-22 1 -40 10t-28.5 19.5t-25 19.5t-28.5 10q-30 0 -32 -33z" />
    <glyph glyph-name="Ograve" unicode="&#xd2;" horiz-adv-x="746" 
d="M378 686q133 0 227.5 -96t94.5 -242q0 -151 -92.5 -254t-233.5 -103q-83 0 -156 39.5t-120 116.5t-47 175q0 82 28 152t74.5 116t105 71.5t119.5 24.5zM618 345q-1 115 -76 189t-175 74q-94 0 -164 -79t-70 -197q0 -116 72 -189t176 -73q99 0 168.5 82.5t68.5 192.5z
M394 741q-67 65 -100 103q-13 16 -13 29t12.5 24t25.5 11q19 0 31 -17l88 -109q9 -10 9 -22q0 -10 -9.5 -19.5t-20.5 -9.5q-10 0 -23 10z" />
    <glyph glyph-name="Oacute" unicode="&#xd3;" horiz-adv-x="746" 
d="M378 686q133 0 227.5 -96t94.5 -242q0 -151 -92.5 -254t-233.5 -103q-83 0 -156 39.5t-120 116.5t-47 175q0 82 28 152t74.5 116t105 71.5t119.5 24.5zM618 345q-1 115 -76 189t-175 74q-94 0 -164 -79t-70 -197q0 -116 72 -189t176 -73q99 0 168.5 82.5t68.5 192.5z
M360 740q-13 -10 -23 -10q-11 0 -22 9.5t-11 20.5q0 12 9 22q6 7 39 44t55 64q14 17 29 17t27.5 -12.5t12.5 -27.5q0 -11 -14 -25q-42 -47 -102 -102z" />
    <glyph glyph-name="Ocircumflex" unicode="&#xd4;" horiz-adv-x="746" 
d="M378 686q133 0 227.5 -96t94.5 -242q0 -151 -92.5 -254t-233.5 -103q-83 0 -156 39.5t-120 116.5t-47 175q0 82 28 152t74.5 116t105 71.5t119.5 24.5zM618 345q-1 115 -76 189t-175 74q-94 0 -164 -79t-70 -197q0 -116 72 -189t176 -73q99 0 168.5 82.5t68.5 192.5z
M480 724q-6 0 -24 12l-82 84q-77 -81 -83 -86q-10 -9 -23 -9q-9 0 -18.5 9t-9.5 19q0 12 11 25l86 96q15 18 38 18q19 0 34 -16l87 -98q13 -17 13 -26t-9 -18.5t-20 -9.5z" />
    <glyph glyph-name="Otilde" unicode="&#xd5;" horiz-adv-x="746" 
d="M378 686q133 0 227.5 -96t94.5 -242q0 -151 -92.5 -254t-233.5 -103q-83 0 -156 39.5t-120 116.5t-47 175q0 82 28 152t74.5 116t105 71.5t119.5 24.5zM618 345q-1 115 -76 189t-175 74q-94 0 -164 -79t-70 -197q0 -116 72 -189t176 -73q99 0 168.5 82.5t68.5 192.5z
M282 775q-4 -23 -31 -23q-14 0 -22 9.5t-7 25.5q2 37 26.5 59.5t62.5 22.5q27 0 48 -15t38.5 -30t36.5 -16q27 0 29 39q1 11 10.5 17.5t19.5 6.5q12 0 20.5 -8t8.5 -20q0 -47 -23.5 -70.5t-62.5 -23.5q-22 1 -40 10t-28.5 19.5t-25 19.5t-28.5 10q-30 0 -32 -33z" />
    <glyph glyph-name="Odieresis" unicode="&#xd6;" horiz-adv-x="746" 
d="M378 686q133 0 227.5 -96t94.5 -242q0 -151 -92.5 -254t-233.5 -103q-83 0 -156 39.5t-120 116.5t-47 175q0 82 28 152t74.5 116t105 71.5t119.5 24.5zM618 345q-1 115 -76 189t-175 74q-94 0 -164 -79t-70 -197q0 -116 72 -189t176 -73q99 0 168.5 82.5t68.5 192.5z
M290 755q-20 0 -34 14.5t-14 35.5t15.5 36t37.5 15t36 -14.5t14 -35.5q0 -23 -15 -37t-40 -14zM449 757q-20 0 -34 14.5t-14 35.5t15 35.5t38 14.5q22 0 35.5 -14.5t13.5 -36.5t-15 -35.5t-39 -13.5z" />
    <glyph glyph-name="multiply" unicode="&#xd7;" horiz-adv-x="485" 
d="M63 132l89 91l44 48l-126 130q-14 18 -14 32q0 12 12 23t25 12q16 0 33 -19l118 -131l105 120q25 30 43 30q13 0 25.5 -11t12.5 -24q0 -5 -1.5 -10t-3 -8t-6.5 -9l-8 -9q-2 -3 -10 -11l-11 -11l-99 -108l126 -131q16 -14 16 -30q0 -12 -12 -24t-26 -12q-15 0 -37 24
l-115 126l-113 -127l-5 -5l-4 -4l-3 -3q-2 -2 -3.5 -3t-3.5 -3t-3.5 -2.5t-3.5 -1.5t-4 -1.5t-4.5 -1t-4.5 -0.5q-14 0 -26.5 12t-12.5 25q0 14 11 27z" />
    <glyph glyph-name="Oslash" unicode="&#xd8;" horiz-adv-x="746" 
d="M378 686q79 0 153 -40l27 39q9 15 24 15q11 0 20 -8.5t9 -19.5q0 -9 -5 -17l-27 -41q56 -46 88.5 -115t32.5 -151q0 -151 -92.5 -254t-233.5 -103q-92 0 -169 47l-33 -50q-11 -16 -23 -16q-11 0 -21 8.5t-10 19.5q0 8 8 21l33 51q-108 96 -108 250q0 82 28 152t74.5 116
t105 71.5t119.5 24.5zM618 345q-1 121 -86 197l-283 -435q60 -37 132 -37q99 0 168.5 82.5t68.5 192.5zM133 332q0 -114 73 -189l281 433q-56 32 -120 32q-94 0 -164 -79t-70 -197z" />
    <glyph glyph-name="Ugrave" unicode="&#xd9;" horiz-adv-x="682" 
d="M82 275q0 74 0.5 200t0.5 155q0 46 39 46q23 0 33 -10.5t10 -32.5q-1 -50 -1 -358q0 -103 47 -153t133 -50q77 0 127 57t51 146q1 50 -0.5 187.5t-1.5 176.5q0 40 42 40q41 0 41 -49l1 -328q1 -146 -70 -227t-199 -81q-118 0 -185.5 73.5t-67.5 207.5zM366 741
q-67 65 -100 103q-13 16 -13 29t12.5 24t25.5 11q19 0 31 -17l88 -109q9 -10 9 -22q0 -10 -9.5 -19.5t-20.5 -9.5q-10 0 -23 10z" />
    <glyph glyph-name="Uacute" unicode="&#xda;" horiz-adv-x="682" 
d="M82 275q0 74 0.5 200t0.5 155q0 46 39 46q23 0 33 -10.5t10 -32.5q-1 -50 -1 -358q0 -103 47 -153t133 -50q77 0 127 57t51 146q1 50 -0.5 187.5t-1.5 176.5q0 40 42 40q41 0 41 -49l1 -328q1 -146 -70 -227t-199 -81q-118 0 -185.5 73.5t-67.5 207.5zM332 740
q-13 -10 -23 -10q-11 0 -22 9.5t-11 20.5q0 12 9 22q6 7 39 44t55 64q14 17 29 17t27.5 -12.5t12.5 -27.5q0 -11 -14 -25q-42 -47 -102 -102z" />
    <glyph glyph-name="Ucircumflex" unicode="&#xdb;" horiz-adv-x="682" 
d="M82 275q0 74 0.5 200t0.5 155q0 46 39 46q23 0 33 -10.5t10 -32.5q-1 -50 -1 -358q0 -103 47 -153t133 -50q77 0 127 57t51 146q1 50 -0.5 187.5t-1.5 176.5q0 40 42 40q41 0 41 -49l1 -328q1 -146 -70 -227t-199 -81q-118 0 -185.5 73.5t-67.5 207.5zM452 724
q-6 0 -24 12l-82 84q-77 -81 -83 -86q-10 -9 -23 -9q-9 0 -18.5 9t-9.5 19q0 12 11 25l86 96q15 18 38 18q19 0 34 -16l87 -98q13 -17 13 -26t-9 -18.5t-20 -9.5z" />
    <glyph glyph-name="Udieresis" unicode="&#xdc;" horiz-adv-x="682" 
d="M82 275q0 74 0.5 200t0.5 155q0 46 39 46q23 0 33 -10.5t10 -32.5q-1 -50 -1 -358q0 -103 47 -153t133 -50q77 0 127 57t51 146q1 50 -0.5 187.5t-1.5 176.5q0 40 42 40q41 0 41 -49l1 -328q1 -146 -70 -227t-199 -81q-118 0 -185.5 73.5t-67.5 207.5zM262 755
q-20 0 -34 14.5t-14 35.5t15.5 36t37.5 15t36 -14.5t14 -35.5q0 -23 -15 -37t-40 -14zM421 757q-20 0 -34 14.5t-14 35.5t15 35.5t38 14.5q22 0 35.5 -14.5t13.5 -36.5t-15 -35.5t-39 -13.5z" />
    <glyph glyph-name="Yacute" unicode="&#xdd;" horiz-adv-x="599" 
d="M258 268l-5 12l-213 324q-15 24 -15 37q0 16 13.5 27.5t30.5 11.5q19 0 41 -33q190 -303 192 -305q6 9 20.5 33t61.5 99.5t111 177.5q19 29 39 29q17 0 29.5 -11t12.5 -26q0 -13 -14 -34l-221 -339q0 -42 -0.5 -118.5t-0.5 -118.5q0 -17 -12 -26.5t-30 -9.5t-30 11
t-12 30q0 11 0.5 34.5t0.5 35.5q0 33 0.5 83t0.5 76zM287 740q-13 -10 -23 -10q-11 0 -22 9.5t-11 20.5q0 12 9 22q6 7 39 44t55 64q14 17 29 17t27.5 -12.5t12.5 -27.5q0 -11 -14 -25q-42 -47 -102 -102z" />
    <glyph glyph-name="Thorn" unicode="&#xde;" horiz-adv-x="567" 
d="M90 274l-1 334q1 41 9 58t34 17q25 0 34 -14t8 -44v-78l119 2q114 1 182 -49.5t65 -157.5q-2 -68 -47 -121t-118 -69q-33 -8 -188 -8h-16v-99q0 -47 -41 -49q-23 -1 -32.5 12t-9.5 37q0 32 1 112t1 117zM173 475v-258q121 0 165 4q117 13 119 125q1 75 -46 102.5
t-132 27.5q-79 0 -106 -1z" />
    <glyph glyph-name="germandbls" unicode="&#xdf;" horiz-adv-x="568" 
d="M277 337q0 26 16 50.5t35.5 41t35.5 40t16 46.5q0 88 -108 88q-55 0 -86.5 -42t-31.5 -123q0 -35 1 -186t0 -199q0 -31 -9.5 -44t-34.5 -13q-21 -1 -30 13t-9 42q0 13 0.5 49.5t1 117.5t0.5 203q0 125 56 191t151 66q80 0 129 -44t49 -119q0 -36 -26.5 -69.5t-53 -59.5
t-26.5 -43q0 -14 5.5 -24t20.5 -19t21.5 -12t29.5 -12q48 -20 76.5 -49t28.5 -84q0 -69 -44 -109t-119 -40q-57 0 -96.5 13.5t-39.5 36.5q0 17 8.5 29t25.5 12q9 0 42.5 -9t65.5 -9q36 0 58.5 18.5t22.5 52.5q0 35 -22 54t-64 34q-45 16 -70.5 40t-25.5 71z" />
    <glyph glyph-name="agrave" unicode="&#xe0;" horiz-adv-x="568" 
d="M498 324l-2 -151q0 -64 5 -142q0 -34 -43 -34q-22 0 -28.5 18t-9.5 66q-50 -87 -162 -87q-94 0 -153.5 64t-59.5 155q0 106 65.5 176.5t162.5 70.5t148 -78q0 26 3 41q5 34 36 34q23 0 31 -13.5t8 -41.5zM129 216q0 -65 40.5 -107.5t98.5 -42.5q66 0 109 44.5t43 115.5
q0 75 -43.5 118.5t-102.5 43.5q-62 0 -103.5 -49t-41.5 -123zM297 551q-67 65 -100 103q-13 16 -13 29t12.5 24t25.5 11q19 0 31 -17l88 -109q9 -11 9 -22q0 -10 -9.5 -19.5t-20.5 -9.5q-10 0 -23 10z" />
    <glyph glyph-name="aacute" unicode="&#xe1;" horiz-adv-x="568" 
d="M498 324l-2 -151q0 -64 5 -142q0 -34 -43 -34q-22 0 -28.5 18t-9.5 66q-50 -87 -162 -87q-94 0 -153.5 64t-59.5 155q0 106 65.5 176.5t162.5 70.5t148 -78q0 26 3 41q5 34 36 34q23 0 31 -13.5t8 -41.5zM129 216q0 -65 40.5 -107.5t98.5 -42.5q66 0 109 44.5t43 115.5
q0 75 -43.5 118.5t-102.5 43.5q-62 0 -103.5 -49t-41.5 -123zM263 550q-13 -10 -23 -10q-11 0 -22 9.5t-11 20.5q0 12 9 22q6 7 39 44t55 64q14 17 29 17t27.5 -12.5t12.5 -27.5q0 -11 -14 -25q-42 -47 -102 -102z" />
    <glyph glyph-name="acircumflex" unicode="&#xe2;" horiz-adv-x="568" 
d="M498 324l-2 -151q0 -64 5 -142q0 -34 -43 -34q-22 0 -28.5 18t-9.5 66q-50 -87 -162 -87q-94 0 -153.5 64t-59.5 155q0 106 65.5 176.5t162.5 70.5t148 -78q0 26 3 41q5 34 36 34q23 0 31 -13.5t8 -41.5zM129 216q0 -65 40.5 -107.5t98.5 -42.5q66 0 109 44.5t43 115.5
q0 75 -43.5 118.5t-102.5 43.5q-62 0 -103.5 -49t-41.5 -123zM383 534q-6 0 -24 12l-82 84q-77 -81 -83 -86q-10 -9 -23 -9q-9 0 -18.5 9t-9.5 19q0 12 11 25l86 96q15 18 38 18q19 0 34 -16l87 -98q13 -17 13 -26t-9 -18.5t-20 -9.5z" />
    <glyph glyph-name="atilde" unicode="&#xe3;" horiz-adv-x="568" 
d="M498 324l-2 -151q0 -64 5 -142q0 -34 -43 -34q-22 0 -28.5 18t-9.5 66q-50 -87 -162 -87q-94 0 -153.5 64t-59.5 155q0 106 65.5 176.5t162.5 70.5t148 -78q0 26 3 41q5 34 36 34q23 0 31 -13.5t8 -41.5zM129 216q0 -65 40.5 -107.5t98.5 -42.5q66 0 109 44.5t43 115.5
q0 75 -43.5 118.5t-102.5 43.5q-62 0 -103.5 -49t-41.5 -123zM186 585q-4 -23 -31 -23q-14 0 -22 9.5t-7 25.5q2 37 26.5 59.5t62.5 22.5q27 0 48 -15t38.5 -30t36.5 -16q27 0 29 39q1 11 10.5 17.5t19.5 6.5q12 0 20.5 -8t8.5 -20q0 -47 -23.5 -70.5t-62.5 -23.5
q-22 1 -40 10t-28.5 19.5t-25 19.5t-28.5 10q-30 0 -32 -33z" />
    <glyph glyph-name="adieresis" unicode="&#xe4;" horiz-adv-x="568" 
d="M498 324l-2 -151q0 -64 5 -142q0 -34 -43 -34q-22 0 -28.5 18t-9.5 66q-50 -87 -162 -87q-94 0 -153.5 64t-59.5 155q0 106 65.5 176.5t162.5 70.5t148 -78q0 26 3 41q5 34 36 34q23 0 31 -13.5t8 -41.5zM129 216q0 -65 40.5 -107.5t98.5 -42.5q66 0 109 44.5t43 115.5
q0 75 -43.5 118.5t-102.5 43.5q-62 0 -103.5 -49t-41.5 -123zM193 565q-20 0 -34 14.5t-14 35.5t15.5 36t37.5 15t36 -14.5t14 -35.5q0 -23 -15 -37t-40 -14zM352 567q-20 0 -34 14.5t-14 35.5t15 35.5t38 14.5q22 0 35.5 -14.5t13.5 -36.5t-15 -35.5t-39 -13.5z" />
    <glyph glyph-name="aring" unicode="&#xe5;" horiz-adv-x="568" 
d="M498 324l-2 -151q0 -64 5 -142q0 -34 -43 -34q-22 0 -28.5 18t-9.5 66q-50 -87 -162 -87q-94 0 -153.5 64t-59.5 155q0 106 65.5 176.5t162.5 70.5t148 -78q0 26 3 41q5 34 36 34q23 0 31 -13.5t8 -41.5zM129 216q0 -65 40.5 -107.5t98.5 -42.5q66 0 109 44.5t43 115.5
q0 75 -43.5 118.5t-102.5 43.5q-62 0 -103.5 -49t-41.5 -123zM276 732q45 0 76.5 -27.5t31.5 -72.5q0 -46 -31 -78t-78 -32q-43 0 -76 29.5t-33 74.5q0 47 34 76.5t76 29.5zM332 631q-1 25 -17 39.5t-41 14.5q-23 0 -39.5 -15.5t-16.5 -40.5q0 -27 16 -42.5t42 -15.5
q25 0 41 17.5t15 42.5z" />
    <glyph glyph-name="ae" unicode="&#xe6;" horiz-adv-x="820" 
d="M509 205h-59q0 -54 38.5 -94.5t99.5 -40.5q58 0 110 31q21 13 33 13q13 0 24 -13t11 -27q0 -31 -55.5 -56t-130.5 -25q-54 0 -102 30t-72 76q-56 -106 -173 -106q-82 0 -134.5 36t-52.5 101q0 66 48.5 101t133.5 36q39 1 139 -4q-1 55 -37 90t-92 35q-16 0 -33.5 -3
t-27.5 -6t-28.5 -9t-23.5 -8q-17 -4 -31 5.5t-14 27.5q0 22 22 35q56 32 143 32q57 -1 101.5 -28.5t67.5 -74.5q27 46 73.5 74.5t99.5 28.5q81 0 136.5 -58t55.5 -128q0 -40 -12.5 -54.5t-62.5 -15.5h-102q-66 0 -93 -1zM591 391q-57 0 -96 -39t-44 -90q152 0 210 1
q42 0 42 6q0 51 -33 86.5t-79 35.5zM235 64q51 0 89.5 34.5t40.5 86.5l1 21q-50 3 -134 3q-108 1 -108 -73q0 -35 31.5 -53.5t79.5 -18.5z" />
    <glyph glyph-name="ccedilla" unicode="&#xe7;" horiz-adv-x="447" 
d="M204 -54l21 49q-85 13 -134 78.5t-48 139.5q1 97 65 173t166 76q67 0 119 -31q19 -13 19 -33q0 -14 -10 -26.5t-25 -12.5q-6 0 -40 14q-31 14 -68 14q-62 0 -103 -52.5t-41 -112.5q0 -65 38 -109t99 -44q53 0 86 21q30 16 39 16q14 0 24.5 -13.5t10.5 -27.5
q0 -16 -15 -28q-51 -44 -132 -45l-14 -44q30 0 55 -20t25 -59q0 -44 -28 -69.5t-71 -25.5q-27 0 -53 13q-22 13 -22 31q0 10 7.5 17.5t18.5 7.5q6 0 23 -7.5t31 -7.5q38 0 38 39q0 34 -45 34h-12q-14 1 -21.5 15.5t-2.5 29.5z" />
    <glyph glyph-name="egrave" unicode="&#xe8;" horiz-adv-x="509" 
d="M129 205q2 -55 41.5 -95.5t100.5 -40.5q60 0 109 33q26 12 33 12q14 0 25.5 -12.5t11.5 -26.5q0 -22 -27 -39q-61 -43 -161 -43q-89 0 -152 63.5t-65 152.5q0 103 65 178t159 75q82 0 139 -55.5t57 -124.5q0 -41 -13.5 -57.5t-62.5 -17.5q-33 -1 -70 -1t-92 -0.5
t-98 -0.5zM273 392q-57 0 -96.5 -39t-45.5 -90q233 4 243 5q12 2 12 10q0 50 -33.5 82t-79.5 32zM285 551q-67 65 -100 103q-13 16 -13 29t12.5 24t25.5 11q19 0 31 -17l88 -109q9 -11 9 -22q0 -10 -9.5 -19.5t-20.5 -9.5q-10 0 -23 10z" />
    <glyph glyph-name="eacute" unicode="&#xe9;" horiz-adv-x="509" 
d="M129 205q2 -55 41.5 -95.5t100.5 -40.5q60 0 109 33q26 12 33 12q14 0 25.5 -12.5t11.5 -26.5q0 -22 -27 -39q-61 -43 -161 -43q-89 0 -152 63.5t-65 152.5q0 103 65 178t159 75q82 0 139 -55.5t57 -124.5q0 -41 -13.5 -57.5t-62.5 -17.5q-33 -1 -70 -1t-92 -0.5
t-98 -0.5zM273 392q-57 0 -96.5 -39t-45.5 -90q233 4 243 5q12 2 12 10q0 50 -33.5 82t-79.5 32zM251 550q-13 -10 -23 -10q-11 0 -22 9.5t-11 20.5q0 12 9 22q6 7 39 44t55 64q14 17 29 17t27.5 -12.5t12.5 -27.5q0 -11 -14 -25q-42 -47 -102 -102z" />
    <glyph glyph-name="ecircumflex" unicode="&#xea;" horiz-adv-x="509" 
d="M129 205q2 -55 41.5 -95.5t100.5 -40.5q60 0 109 33q26 12 33 12q14 0 25.5 -12.5t11.5 -26.5q0 -22 -27 -39q-61 -43 -161 -43q-89 0 -152 63.5t-65 152.5q0 103 65 178t159 75q82 0 139 -55.5t57 -124.5q0 -41 -13.5 -57.5t-62.5 -17.5q-33 -1 -70 -1t-92 -0.5
t-98 -0.5zM273 392q-57 0 -96.5 -39t-45.5 -90q233 4 243 5q12 2 12 10q0 50 -33.5 82t-79.5 32zM371 534q-6 0 -24 12l-82 84q-77 -81 -83 -86q-10 -9 -23 -9q-9 0 -18.5 9t-9.5 19q0 12 11 25l86 96q15 18 38 18q19 0 34 -16l87 -98q13 -17 13 -26t-9 -18.5t-20 -9.5z" />
    <glyph glyph-name="edieresis" unicode="&#xeb;" horiz-adv-x="509" 
d="M129 205q2 -55 41.5 -95.5t100.5 -40.5q60 0 109 33q26 12 33 12q14 0 25.5 -12.5t11.5 -26.5q0 -22 -27 -39q-61 -43 -161 -43q-89 0 -152 63.5t-65 152.5q0 103 65 178t159 75q82 0 139 -55.5t57 -124.5q0 -41 -13.5 -57.5t-62.5 -17.5q-33 -1 -70 -1t-92 -0.5
t-98 -0.5zM273 392q-57 0 -96.5 -39t-45.5 -90q233 4 243 5q12 2 12 10q0 50 -33.5 82t-79.5 32zM181 565q-20 0 -34 14.5t-14 35.5t15.5 36t37.5 15t36 -14.5t14 -35.5q0 -23 -15 -37t-40 -14zM340 567q-20 0 -34 14.5t-14 35.5t15 35.5t38 14.5q22 0 35.5 -14.5
t13.5 -36.5t-15 -35.5t-39 -13.5z" />
    <glyph glyph-name="igrave" unicode="&#xec;" horiz-adv-x="240" 
d="M80 419q1 21 12 30.5t27 9.5q24 0 33.5 -12t9.5 -46q0 -37 -0.5 -114.5t-0.5 -115.5l1 -131q0 -45 -43 -45q-39 0 -39 41v383zM141 551q-67 65 -100 103q-13 16 -13 29t12.5 24t25.5 11q19 0 31 -17l88 -109q9 -11 9 -22q0 -10 -9.5 -19.5t-20.5 -9.5q-10 0 -23 10z" />
    <glyph glyph-name="iacute" unicode="&#xed;" horiz-adv-x="240" 
d="M80 419q1 21 12 30.5t27 9.5q24 0 33.5 -12t9.5 -46q0 -37 -0.5 -114.5t-0.5 -115.5l1 -131q0 -45 -43 -45q-39 0 -39 41v383zM107 550q-13 -10 -23 -10q-11 0 -22 9.5t-11 20.5q0 12 9 22q6 7 39 44t55 64q14 17 29 17t27.5 -12.5t12.5 -27.5q0 -11 -14 -25
q-42 -47 -102 -102z" />
    <glyph glyph-name="icircumflex" unicode="&#xee;" horiz-adv-x="240" 
d="M80 419q1 21 12 30.5t27 9.5q24 0 33.5 -12t9.5 -46q0 -37 -0.5 -114.5t-0.5 -115.5l1 -131q0 -45 -43 -45q-39 0 -39 41v383zM227 534q-6 0 -24 12l-82 84q-77 -81 -83 -86q-11 -9 -23 -9q-9 0 -18.5 9t-9.5 19q0 12 11 25l86 96q15 18 38 18q19 0 34 -16l87 -98
q13 -17 13 -26t-9 -18.5t-20 -9.5z" />
    <glyph glyph-name="idieresis" unicode="&#xef;" horiz-adv-x="240" 
d="M80 419q1 21 12 30.5t27 9.5q24 0 33.5 -12t9.5 -46q0 -37 -0.5 -114.5t-0.5 -115.5l1 -131q0 -45 -43 -45q-39 0 -39 41v383zM37 565q-20 0 -34 14.5t-14 35.5t15.5 36t37.5 15t36 -14.5t14 -35.5q0 -23 -15 -37t-40 -14zM196 567q-20 0 -34 14.5t-14 35.5t15 35.5
t38 14.5q22 0 35.5 -14.5t13.5 -36.5t-15 -35.5t-39 -13.5z" />
    <glyph glyph-name="eth" unicode="&#xf0;" horiz-adv-x="551" 
d="M442 624l-39 -28q99 -120 98 -300q0 -54 -3 -87q-11 -104 -71 -159.5t-154 -55.5q-97 0 -161.5 62.5t-64.5 160.5q0 99 64 160.5t150 64.5q47 2 88.5 -21t68.5 -67q-2 113 -80 199l-63 -45q-9 -6 -18 -6q-10 0 -18.5 9t-8.5 19q0 16 19 26l47 34q-51 40 -111 53
q-16 4 -23.5 18t-2.5 28q6 19 23 25t36 1q83 -22 146 -79l54 38q11 8 20 8q11 0 19.5 -10t8.5 -20q0 -12 -24 -28zM273 369q-63 1 -104 -42t-41 -106q0 -68 40 -111t99 -43q62 0 105 42.5t43 107.5q0 63 -40 107.5t-102 44.5z" />
    <glyph glyph-name="ntilde" unicode="&#xf1;" horiz-adv-x="553" 
d="M77 300l-2 106q0 27 9.5 40t33.5 13q21 0 28.5 -11t9.5 -36l1 -44q19 45 63.5 70.5t96.5 25.5q82 0 126 -52t44 -144v-131v-90q0 -26 -10 -38t-35 -12q-39 0 -39 38q0 26 2 98.5t1 110.5q-2 144 -107 145q-35 0 -61 -11t-41 -28t-24 -43t-12 -51t-3 -57v-167
q0 -37 -43 -37q-39 0 -39 37q0 14 0.5 52t0.5 80v136zM190 585q-4 -23 -31 -23q-14 0 -22 9.5t-7 25.5q2 37 26.5 59.5t62.5 22.5q27 0 48 -15t38.5 -30t36.5 -16q27 0 29 39q1 11 10.5 17.5t19.5 6.5q12 0 20.5 -8t8.5 -20q0 -47 -23.5 -70.5t-62.5 -23.5q-22 1 -40 10
t-28.5 19.5t-25 19.5t-28.5 10q-30 0 -32 -33z" />
    <glyph glyph-name="ograve" unicode="&#xf2;" 
d="M294 465q18 0 25 -7q89 -13 136 -80.5t47 -151.5q0 -101 -68.5 -168t-169.5 -67q-90 0 -155.5 62t-65.5 159q0 112 68.5 182t182.5 71zM419 229q0 68 -38.5 112.5t-109.5 48.5q-66 -4 -106 -51.5t-40 -128.5q0 -62 42 -103t95 -41q64 0 110.5 45t46.5 118zM291 551
q-67 65 -100 103q-13 16 -13 29t12.5 24t25.5 11q19 0 31 -17l88 -109q9 -11 9 -22q0 -10 -9.5 -19.5t-20.5 -9.5q-10 0 -23 10z" />
    <glyph glyph-name="oacute" unicode="&#xf3;" 
d="M294 465q18 0 25 -7q89 -13 136 -80.5t47 -151.5q0 -101 -68.5 -168t-169.5 -67q-90 0 -155.5 62t-65.5 159q0 112 68.5 182t182.5 71zM419 229q0 68 -38.5 112.5t-109.5 48.5q-66 -4 -106 -51.5t-40 -128.5q0 -62 42 -103t95 -41q64 0 110.5 45t46.5 118zM257 550
q-13 -10 -23 -10q-11 0 -22 9.5t-11 20.5q0 12 9 22q6 7 39 44t55 64q14 17 29 17t27.5 -12.5t12.5 -27.5q0 -11 -14 -25q-42 -47 -102 -102z" />
    <glyph glyph-name="ocircumflex" unicode="&#xf4;" 
d="M294 465q18 0 25 -7q89 -13 136 -80.5t47 -151.5q0 -101 -68.5 -168t-169.5 -67q-90 0 -155.5 62t-65.5 159q0 112 68.5 182t182.5 71zM419 229q0 68 -38.5 112.5t-109.5 48.5q-66 -4 -106 -51.5t-40 -128.5q0 -62 42 -103t95 -41q64 0 110.5 45t46.5 118zM377 534
q-6 0 -24 12l-82 84q-77 -81 -83 -86q-11 -9 -23 -9q-9 0 -18.5 9t-9.5 19q0 12 11 25l86 96q15 18 38 18q19 0 34 -16l87 -98q13 -17 13 -26t-9 -18.5t-20 -9.5z" />
    <glyph glyph-name="otilde" unicode="&#xf5;" 
d="M294 465q18 0 25 -7q89 -13 136 -80.5t47 -151.5q0 -101 -68.5 -168t-169.5 -67q-90 0 -155.5 62t-65.5 159q0 112 68.5 182t182.5 71zM419 229q0 68 -38.5 112.5t-109.5 48.5q-66 -4 -106 -51.5t-40 -128.5q0 -62 42 -103t95 -41q64 0 110.5 45t46.5 118zM179 585
q-4 -23 -31 -23q-14 0 -22 9.5t-7 25.5q2 37 26.5 59.5t62.5 22.5q27 0 48 -15t38.5 -30t36.5 -16q27 0 29 39q1 11 10.5 17.5t19.5 6.5q12 0 20.5 -8t8.5 -20q0 -47 -23.5 -70.5t-62.5 -23.5q-22 1 -40 10t-28.5 19.5t-25 19.5t-28.5 10q-30 0 -32 -33z" />
    <glyph glyph-name="odieresis" unicode="&#xf6;" 
d="M294 465q18 0 25 -7q89 -13 136 -80.5t47 -151.5q0 -101 -68.5 -168t-169.5 -67q-90 0 -155.5 62t-65.5 159q0 112 68.5 182t182.5 71zM419 229q0 68 -38.5 112.5t-109.5 48.5q-66 -4 -106 -51.5t-40 -128.5q0 -62 42 -103t95 -41q64 0 110.5 45t46.5 118zM187 565
q-20 0 -34 14.5t-14 35.5t15.5 36t37.5 15t36 -14.5t14 -35.5q0 -23 -15 -37t-40 -14zM346 567q-20 0 -34 14.5t-14 35.5t15 35.5t38 14.5q22 0 35.5 -14.5t13.5 -36.5t-15 -35.5t-39 -13.5z" />
    <glyph glyph-name="divide" unicode="&#xf7;" horiz-adv-x="485" 
d="M66 238q-17 0 -25 12t-6 27q1 31 49 31l333 -1q34 0 34 -34q0 -35 -50 -35q-27 -1 -96.5 -1t-149.5 0.5t-89 0.5zM247 399q-22 0 -37 15t-15 37q0 23 16.5 38t40.5 15q23 0 38 -15t15 -38q0 -24 -16.5 -38t-41.5 -14zM245 43q-22 0 -37 14.5t-15 36.5q0 23 16.5 38
t40.5 15q23 0 37.5 -15t14.5 -38q0 -24 -16 -37.5t-41 -13.5z" />
    <glyph glyph-name="oslash" unicode="&#xf8;" 
d="M293 465q15 0 26 -7q34 -6 61 -21l20 32q10 18 24 18q9 0 18 -7t9 -16q0 -10 -14 -32l-14 -22q79 -67 79 -183q0 -102 -68 -169t-169 -67q-41 0 -88 21l-22 -36q-8 -15 -21 -15q-10 0 -19 7.5t-9 17.5q0 9 9 22l17 28q-89 67 -89 178t68 180.5t182 70.5zM125 213
q0 -65 50 -108l166 268q-27 15 -69 17q-66 -3 -106.5 -50t-40.5 -127zM419 229q0 69 -39 111l-162 -263q27 -11 45 -11q64 0 110 45t46 118z" />
    <glyph glyph-name="ugrave" unicode="&#xf9;" horiz-adv-x="560" 
d="M116 457q36 0 36 -42q0 -30 -1 -94t-1 -105q0 -65 25.5 -107.5t81.5 -42.5q78 0 110.5 53.5t32.5 150.5l1 143q0 22 12 33.5t31 11.5q41 0 41 -44q0 -1 -1 -44t-1.5 -86.5t0.5 -102.5q0 -78 6 -147q0 -36 -40 -36q-33 0 -39 33q-1 14 -2 39.5t-1 28.5q-49 -107 -160 -107
q-89 0 -133.5 57.5t-44.5 155.5q0 27 0.5 103t0.5 102q0 47 46 47zM299 551q-67 65 -100 103q-13 16 -13 29t12.5 24t25.5 11q19 0 31 -17l88 -109q9 -11 9 -22q0 -10 -9.5 -19.5t-20.5 -9.5q-10 0 -23 10z" />
    <glyph glyph-name="uacute" unicode="&#xfa;" horiz-adv-x="560" 
d="M116 457q36 0 36 -42q0 -30 -1 -94t-1 -105q0 -65 25.5 -107.5t81.5 -42.5q78 0 110.5 53.5t32.5 150.5l1 143q0 22 12 33.5t31 11.5q41 0 41 -44q0 -1 -1 -44t-1.5 -86.5t0.5 -102.5q0 -78 6 -147q0 -36 -40 -36q-33 0 -39 33q-1 14 -2 39.5t-1 28.5q-49 -107 -160 -107
q-89 0 -133.5 57.5t-44.5 155.5q0 27 0.5 103t0.5 102q0 47 46 47zM265 550q-13 -10 -23 -10q-11 0 -22 9.5t-11 20.5q0 12 9 22q6 7 39 44t55 64q14 17 29 17t27.5 -12.5t12.5 -27.5q0 -11 -14 -25q-42 -47 -102 -102z" />
    <glyph glyph-name="ucircumflex" unicode="&#xfb;" horiz-adv-x="560" 
d="M116 457q36 0 36 -42q0 -30 -1 -94t-1 -105q0 -65 25.5 -107.5t81.5 -42.5q78 0 110.5 53.5t32.5 150.5l1 143q0 22 12 33.5t31 11.5q41 0 41 -44q0 -1 -1 -44t-1.5 -86.5t0.5 -102.5q0 -78 6 -147q0 -36 -40 -36q-33 0 -39 33q-1 14 -2 39.5t-1 28.5q-49 -107 -160 -107
q-89 0 -133.5 57.5t-44.5 155.5q0 27 0.5 103t0.5 102q0 47 46 47zM385 534q-6 0 -24 12l-82 84q-77 -81 -83 -86q-10 -9 -23 -9q-9 0 -18.5 9t-9.5 19q0 12 11 25l86 96q15 18 38 18q19 0 34 -16l87 -98q13 -17 13 -26t-9 -18.5t-20 -9.5z" />
    <glyph glyph-name="udieresis" unicode="&#xfc;" horiz-adv-x="560" 
d="M116 457q36 0 36 -42q0 -30 -1 -94t-1 -105q0 -65 25.5 -107.5t81.5 -42.5q78 0 110.5 53.5t32.5 150.5l1 143q0 22 12 33.5t31 11.5q41 0 41 -44q0 -1 -1 -44t-1.5 -86.5t0.5 -102.5q0 -78 6 -147q0 -36 -40 -36q-33 0 -39 33q-1 14 -2 39.5t-1 28.5q-49 -107 -160 -107
q-89 0 -133.5 57.5t-44.5 155.5q0 27 0.5 103t0.5 102q0 47 46 47zM195 565q-20 0 -34 14.5t-14 35.5t15.5 36t37.5 15t36 -14.5t14 -35.5q0 -23 -15 -37t-40 -14zM354 567q-20 0 -34 14.5t-14 35.5t15 35.5t38 14.5q22 0 35.5 -14.5t13.5 -36.5t-15 -35.5t-39 -13.5z" />
    <glyph glyph-name="yacute" unicode="&#xfd;" horiz-adv-x="493" 
d="M249 96q60 134 135 326q7 19 15.5 28t24.5 9q17 0 30.5 -10.5t13.5 -25.5q0 -13 -7 -29q-83 -198 -231 -504q-62 -114 -145 -114q-68 0 -68 42q0 38 43 38q34 0 51.5 11.5t40.5 50.5q21 35 54 103l-39 81l-122 273q-16 34 -16 49q0 16 13.5 26t29.5 10q21 0 33 -20z
M233 550q-13 -10 -23 -10q-11 0 -22 9.5t-11 20.5q0 12 9 22q6 7 39 44t55 64q14 17 29 17t27.5 -12.5t12.5 -27.5q0 -11 -14 -25q-42 -47 -102 -102z" />
    <glyph glyph-name="thorn" unicode="&#xfe;" horiz-adv-x="572" 
d="M154 -177q-1 -41 -42 -41q-24 0 -32 12.5t-8 42.5l2 411l-3 431q1 41 39 41q19 0 31.5 -8t11.5 -30q0 -91 -0.5 -163t-0.5 -107v-35q48 88 164 88q92 0 152 -69.5t60 -161.5q0 -102 -64.5 -173t-158.5 -71q-50 0 -90.5 23t-62.5 63q0 -54 1 -139t1 -114zM445 233
q0 68 -41 112.5t-101 44.5q-69 0 -111 -43t-42 -121q0 -77 40.5 -119.5t103.5 -42.5t107 46t44 123z" />
    <glyph glyph-name="ydieresis" unicode="&#xff;" horiz-adv-x="493" 
d="M249 96q60 134 135 326q7 19 15.5 28t24.5 9q17 0 30.5 -10.5t13.5 -25.5q0 -13 -7 -29q-83 -198 -231 -504q-62 -114 -145 -114q-68 0 -68 42q0 38 43 38q34 0 51.5 11.5t40.5 50.5q21 35 54 103l-39 81l-122 273q-16 34 -16 49q0 16 13.5 26t29.5 10q21 0 33 -20z
M163 565q-20 0 -34 14.5t-14 35.5t15.5 36t37.5 15t36 -14.5t14 -35.5q0 -23 -15 -37t-40 -14zM322 567q-20 0 -34 14.5t-14 35.5t15 35.5t38 14.5q22 0 35.5 -14.5t13.5 -36.5t-15 -35.5t-39 -13.5z" />
    <glyph glyph-name="Amacron" unicode="&#x100;" horiz-adv-x="639" 
d="M25 35q0 14 15 49l105 246q29 67 127 319q13 32 48 32q36 0 50 -33q18 -41 67.5 -171t67.5 -176q1 -3 5.5 -13t6.5 -15l88 -214q8 -20 8 -29q0 -12 -13.5 -23t-31.5 -11t-27 7.5t-17 27.5q-59 152 -60 154q-31 1 -190 1h-102q-5 -12 -27.5 -71t-29.5 -75q-15 -33 -25 -39
q-8 -4 -18 -4q-47 0 -47 38zM320 577q-41 -118 -123 -322q117 -2 241 1q-6 16 -32.5 89.5t-50.5 139t-35 92.5zM219 781q-36 0 -36 34q0 36 47 36q12 0 40 -0.5t42 -0.5q24 0 61.5 1t48.5 1q36 0 38 -32q0 -38 -50 -38q-14 0 -48.5 0.5t-52.5 0.5t-48.5 -1t-41.5 -1z" />
    <glyph glyph-name="amacron" unicode="&#x101;" horiz-adv-x="568" 
d="M498 324l-2 -151q0 -64 5 -142q0 -34 -43 -34q-22 0 -28.5 18t-9.5 66q-50 -87 -162 -87q-94 0 -153.5 64t-59.5 155q0 106 65.5 176.5t162.5 70.5t148 -78q0 26 3 41q5 34 36 34q23 0 31 -13.5t8 -41.5zM129 216q0 -65 40.5 -107.5t98.5 -42.5q66 0 109 44.5t43 115.5
q0 75 -43.5 118.5t-102.5 43.5q-62 0 -103.5 -49t-41.5 -123zM175 591q-36 0 -36 34q0 36 47 36q12 0 40 -0.5t42 -0.5q24 0 61.5 1t48.5 1q36 0 38 -32q0 -38 -50 -38q-14 0 -48.5 0.5t-52.5 0.5t-48.5 -1t-41.5 -1z" />
    <glyph glyph-name="Abreve" unicode="&#x102;" horiz-adv-x="639" 
d="M25 35q0 14 15 49l105 246q29 67 127 319q13 32 48 32q36 0 50 -33q18 -41 67.5 -171t67.5 -176q1 -3 5.5 -13t6.5 -15l88 -214q8 -20 8 -29q0 -12 -13.5 -23t-31.5 -11t-27 7.5t-17 27.5q-59 152 -60 154q-31 1 -190 1h-102q-5 -12 -27.5 -71t-29.5 -75q-15 -33 -25 -39
q-8 -4 -18 -4q-47 0 -47 38zM320 577q-41 -118 -123 -322q117 -2 241 1q-6 16 -32.5 89.5t-50.5 139t-35 92.5zM423 879q13 0 21 -8.5t8 -20.5q0 -52 -37 -89.5t-93 -37.5q-52 0 -90.5 35.5t-39.5 85.5q0 15 8 24t22 9q12 0 19.5 -7.5t9.5 -18.5q2 -31 21 -49.5t51 -18.5
q31 0 50.5 20.5t19.5 48.5q2 27 30 27z" />
    <glyph glyph-name="abreve" unicode="&#x103;" horiz-adv-x="568" 
d="M498 324l-2 -151q0 -64 5 -142q0 -34 -43 -34q-22 0 -28.5 18t-9.5 66q-50 -87 -162 -87q-94 0 -153.5 64t-59.5 155q0 106 65.5 176.5t162.5 70.5t148 -78q0 26 3 41q5 34 36 34q23 0 31 -13.5t8 -41.5zM129 216q0 -65 40.5 -107.5t98.5 -42.5q66 0 109 44.5t43 115.5
q0 75 -43.5 118.5t-102.5 43.5q-62 0 -103.5 -49t-41.5 -123zM379 689q13 0 21 -8.5t8 -20.5q0 -52 -37 -89.5t-93 -37.5q-52 0 -90.5 35.5t-39.5 85.5q0 15 8 24t22 9q12 0 19.5 -7.5t9.5 -18.5q2 -31 21 -49.5t51 -18.5q31 0 50.5 20.5t19.5 48.5q2 27 30 27z" />
    <glyph glyph-name="Aogonek" unicode="&#x104;" horiz-adv-x="639" 
d="M511 -110q0 -20 10 -31t26 -11q11 0 23.5 2.5t19.5 2.5q11 0 18 -9t7 -22q0 -40 -67 -40q-41 0 -70 25t-29 70q0 68 90 129q-9 9 -15 25q-59 152 -60 154q-31 1 -190 1h-102q-5 -12 -27.5 -71t-29.5 -75q-15 -33 -25 -39q-8 -4 -18 -4q-47 0 -47 38q0 14 15 49l105 246
q29 67 127 319q13 32 48 32q36 0 50 -33q18 -41 67.5 -171t67.5 -176q1 -3 5.5 -13t6.5 -15l88 -214q8 -20 8 -29q0 -17 -21 -29q-41 -34 -61 -58.5t-20 -52.5zM320 577q-41 -118 -123 -322q117 -2 241 1q-6 16 -32.5 89.5t-50.5 139t-35 92.5z" />
    <glyph glyph-name="aogonek" unicode="&#x105;" horiz-adv-x="568" 
d="M498 324l-2 -151q0 -76 4 -137q0 -23 -22 -36q-81 -58 -81 -110q0 -42 36 -42q10 0 22.5 2.5t19.5 2.5q11 0 18 -9t7 -22q0 -40 -67 -40q-41 0 -70 25.5t-29 70.5q0 70 97 134q-9 16 -11 69q-50 -87 -162 -87q-94 0 -153.5 64t-59.5 155q0 106 65.5 176.5t162.5 70.5
t148 -78q0 28 1 40q2 35 38 35q39 0 39 -47zM129 216q0 -65 40.5 -107.5t99.5 -42.5q65 0 108 44.5t43 115.5q0 75 -43 118.5t-103 43.5q-62 0 -103.5 -49t-41.5 -123z" />
    <glyph glyph-name="Cacute" unicode="&#x106;" horiz-adv-x="608" 
d="M522 655q44 -20 44 -46q0 -18 -9.5 -30t-27.5 -12q-13 1 -39 13q-60 28 -123 28q-92 0 -162 -79t-71 -198q0 -108 67.5 -184t169.5 -77q75 0 136 40q3 2 7.5 4.5t6.5 4t6 3t8 2t9 0.5q14 0 23 -13t9 -29q0 -33 -69 -62t-144 -29q-127 1 -220 93t-92 242q1 160 99.5 259.5
t225.5 98.5q81 0 146 -29zM353 740q-13 -10 -23 -10q-11 0 -22 9.5t-11 20.5q0 12 9 22q6 7 39 44t55 64q14 17 29 17t27.5 -12.5t12.5 -27.5q0 -11 -14 -25q-42 -47 -102 -102z" />
    <glyph glyph-name="cacute" unicode="&#x107;" horiz-adv-x="447" 
d="M393 431q19 -13 19 -33q0 -14 -10 -26.5t-25 -12.5q-6 0 -40 14q-31 14 -68 14q-62 0 -103 -52.5t-41 -112.5q0 -65 38 -109t99 -44q53 0 86 21q30 16 39 16q14 0 24.5 -13.5t10.5 -27.5q0 -16 -15 -28q-55 -46 -141 -46q-104 0 -164 69t-59 153q1 97 65 173t166 76
q67 0 119 -31zM256 550q-13 -10 -23 -10q-11 0 -22 9.5t-11 20.5q0 12 9 22q6 7 39 44t55 64q14 17 29 17t27.5 -12.5t12.5 -27.5q0 -11 -14 -25q-42 -47 -102 -102z" />
    <glyph glyph-name="Ccircumflex" unicode="&#x108;" horiz-adv-x="608" 
d="M522 655q44 -20 44 -46q0 -18 -9.5 -30t-27.5 -12q-13 1 -39 13q-60 28 -123 28q-92 0 -162 -79t-71 -198q0 -108 67.5 -184t169.5 -77q75 0 136 40q3 2 7.5 4.5t6.5 4t6 3t8 2t9 0.5q14 0 23 -13t9 -29q0 -33 -69 -62t-144 -29q-127 1 -220 93t-92 242q1 160 99.5 259.5
t225.5 98.5q81 0 146 -29zM473 724q-6 0 -24 12l-82 84q-77 -81 -83 -86q-10 -9 -23 -9q-9 0 -18.5 9t-9.5 19q0 12 11 25l86 96q15 18 38 18q19 0 34 -16l87 -98q13 -17 13 -26t-9 -18.5t-20 -9.5z" />
    <glyph glyph-name="ccircumflex" unicode="&#x109;" horiz-adv-x="447" 
d="M393 431q19 -13 19 -33q0 -14 -10 -26.5t-25 -12.5q-6 0 -40 14q-31 14 -68 14q-62 0 -103 -52.5t-41 -112.5q0 -65 38 -109t99 -44q53 0 86 21q30 16 39 16q14 0 24.5 -13.5t10.5 -27.5q0 -16 -15 -28q-55 -46 -141 -46q-104 0 -164 69t-59 153q1 97 65 173t166 76
q67 0 119 -31zM376 534q-6 0 -24 12l-82 84q-77 -81 -83 -86q-11 -9 -23 -9q-9 0 -18.5 9t-9.5 19q0 12 11 25l86 96q15 18 38 18q19 0 34 -16l87 -98q13 -17 13 -26t-9 -18.5t-20 -9.5z" />
    <glyph glyph-name="Cdotaccent" unicode="&#x10a;" horiz-adv-x="608" 
d="M522 655q44 -20 44 -46q0 -18 -9.5 -30t-27.5 -12q-13 1 -39 13q-60 28 -123 28q-92 0 -162 -79t-71 -198q0 -108 67.5 -184t169.5 -77q75 0 136 40q3 2 7.5 4.5t6.5 4t6 3t8 2t9 0.5q14 0 23 -13t9 -29q0 -33 -69 -62t-144 -29q-127 1 -220 93t-92 242q1 160 99.5 259.5
t225.5 98.5q81 0 146 -29zM363 761q-23 0 -38 16.5t-14 41.5q2 24 18.5 37.5t39.5 13.5q25 0 39 -15.5t14 -38.5q0 -26 -16.5 -40.5t-42.5 -14.5z" />
    <glyph glyph-name="cdotaccent" unicode="&#x10b;" horiz-adv-x="447" 
d="M393 431q19 -13 19 -33q0 -14 -10 -26.5t-25 -12.5q-6 0 -40 14q-31 14 -68 14q-62 0 -103 -52.5t-41 -112.5q0 -65 38 -109t99 -44q53 0 86 21q30 16 39 16q14 0 24.5 -13.5t10.5 -27.5q0 -16 -15 -28q-55 -46 -141 -46q-104 0 -164 69t-59 153q1 97 65 173t166 76
q67 0 119 -31zM266 571q-23 0 -38 16.5t-14 41.5q2 24 18.5 37.5t39.5 13.5q25 0 39 -15.5t14 -38.5q0 -26 -16.5 -40.5t-42.5 -14.5z" />
    <glyph glyph-name="Ccaron" unicode="&#x10c;" horiz-adv-x="608" 
d="M522 655q44 -20 44 -46q0 -18 -9.5 -30t-27.5 -12q-13 1 -39 13q-60 28 -123 28q-92 0 -162 -79t-71 -198q0 -108 67.5 -184t169.5 -77q75 0 136 40q3 2 7.5 4.5t6.5 4t6 3t8 2t9 0.5q14 0 23 -13t9 -29q0 -33 -69 -62t-144 -29q-127 1 -220 93t-92 242q1 160 99.5 259.5
t225.5 98.5q81 0 146 -29zM262 891q11 0 23 -12q25 -24 82 -84q18 18 37.5 39t29.5 31t17 16q11 9 23 9q9 0 18.5 -9.5t9.5 -18.5q0 -10 -11 -25l-87 -96q-15 -18 -37 -18q-19 0 -34 16l-87 98q-13 17 -13 27q0 9 9 18t20 9z" />
    <glyph glyph-name="ccaron" unicode="&#x10d;" horiz-adv-x="447" 
d="M393 431q19 -13 19 -33q0 -14 -10 -26.5t-25 -12.5q-6 0 -40 14q-31 14 -68 14q-62 0 -103 -52.5t-41 -112.5q0 -65 38 -109t99 -44q53 0 86 21q30 16 39 16q14 0 24.5 -13.5t10.5 -27.5q0 -16 -15 -28q-55 -46 -141 -46q-104 0 -164 69t-59 153q1 97 65 173t166 76
q67 0 119 -31zM165 701q11 0 23 -12q25 -24 82 -84q18 18 37.5 39t29.5 31t17 16q10 9 23 9q9 0 18.5 -9.5t9.5 -18.5q0 -10 -11 -25l-87 -96q-15 -18 -37 -18q-19 0 -34 16l-87 98q-13 17 -13 27q0 9 9 18t20 9z" />
    <glyph glyph-name="Dcaron" unicode="&#x10e;" horiz-adv-x="675" 
d="M80 622q0 58 81 58q9 0 68.5 0.5t66.5 0.5q145 -7 240.5 -90.5t95.5 -229.5q0 -358 -380 -361q-79 0 -123 2q-48 3 -48 59l2 272zM268 605q-69 0 -105 -3v-503q0 -16 14.5 -19t68.5 -3q303 0 303 273q0 85 -40 144t-101.5 85t-139.5 26zM223 891q11 0 23 -12
q25 -24 82 -84q18 18 37.5 39t29.5 31t17 16q10 9 23 9q9 0 18.5 -9.5t9.5 -18.5q0 -10 -11 -25l-87 -96q-15 -18 -37 -18q-19 0 -34 16l-87 98q-13 17 -13 27q0 9 9 18t20 9z" />
    <glyph glyph-name="dcaron" unicode="&#x10f;" horiz-adv-x="684" 
d="M613 627h-2q-15 1 -27.5 13t-12.5 32q0 22 15 37.5t37 15.5q26 0 42 -18.5t16 -49.5q0 -32 -21.5 -66t-52.5 -52q-10 -5 -15 -5q-9 0 -16.5 6.5t-7.5 15.5q0 11 11 20q34 24 34 47v4zM500 684l-3 -244v-196q0 -13 1 -77.5t1 -133.5q0 -39 -40 -39q-35 0 -38 35l-1 56
q-56 -93 -161 -93q-94 0 -154 67.5t-60 156.5q0 103 66 173.5t163 70.5q45 0 83.5 -21t60.5 -57l-2 292q0 49 42 49t42 -39zM127 219q0 -63 41.5 -107.5t100.5 -44.5q62 0 105.5 43.5t43.5 115.5q0 71 -40 115.5t-100 44.5q-63 0 -107 -47.5t-44 -119.5z" />
    <glyph glyph-name="Dcroat" unicode="&#x110;" horiz-adv-x="679" 
d="M84 622q0 58 81 58q9 0 68.5 0.5t66.5 0.5q145 -7 240.5 -90.5t95.5 -229.5q0 -358 -380 -361q-79 0 -123 2q-48 3 -48 59l1 230h-39q-37 0 -37 36t43 36h34zM272 605q-69 0 -105 -3v-239h91q39 0 39 -35q0 -20 -10 -28.5t-35 -8.5h-85v-192q0 -16 14.5 -19t68.5 -3
q303 0 303 273q0 85 -40 144t-101.5 85t-139.5 26z" />
    <glyph glyph-name="dcroat" unicode="&#x111;" horiz-adv-x="569" 
d="M497 685v-75h46q37 0 37 -34t-40 -34h-43v-80v-210v-26q0 -12 1 -73t1 -120q0 -39 -40 -39q-35 0 -38 35l-1 56q-56 -93 -161 -93q-94 0 -154 67.5t-60 156.5q0 103 66 173.5t163 70.5q45 0 83 -21t60 -57v160h-92q-40 0 -40 35q0 33 39 33h93v67q0 24 10 34.5t32 10.5
q38 0 38 -37zM127 219q0 -63 41.5 -107.5t100.5 -44.5q62 0 105.5 43.5t43.5 115.5q0 71 -40 115.5t-100 44.5q-63 0 -107 -47.5t-44 -119.5z" />
    <glyph glyph-name="Emacron" unicode="&#x112;" horiz-adv-x="543" 
d="M94 637q0 24 16 32.5t49 8.5h48q53 0 134.5 1t106.5 1q46 0 48 -36q0 -33 -27 -37q-30 -1 -241 -1h-52q-1 -42 -1 -121l-1 -97v-19h50q108 0 174 3q27 0 39 -7t12 -30q-2 -36 -45 -36h-231v-72q0 -25 -1 -77t-1 -77q131 0 264 2q7 0 18 0.5t17 0.5q35 0 35 -36
q0 -20 -11 -30.5t-40 -11.5h-262q-66 0 -84.5 10t-19.5 50q0 26 1 40l1 14q0 13 0.5 37.5t1 57t1 79.5t0.5 97q0 43 0.5 127t0.5 127zM201 781q-36 0 -36 34q0 36 47 36q12 0 40 -0.5t42 -0.5q24 0 61.5 1t48.5 1q36 0 38 -32q0 -38 -50 -38q-14 0 -48.5 0.5t-52.5 0.5
t-48.5 -1t-41.5 -1z" />
    <glyph glyph-name="emacron" unicode="&#x113;" horiz-adv-x="509" 
d="M129 205q2 -55 41.5 -95.5t100.5 -40.5q60 0 109 33q26 12 33 12q14 0 25.5 -12.5t11.5 -26.5q0 -22 -27 -39q-61 -43 -161 -43q-89 0 -152 63.5t-65 152.5q0 103 65 178t159 75q82 0 139 -55.5t57 -124.5q0 -41 -13.5 -57.5t-62.5 -17.5q-33 -1 -70 -1t-92 -0.5
t-98 -0.5zM273 392q-57 0 -96.5 -39t-45.5 -90q233 4 243 5q12 2 12 10q0 50 -33.5 82t-79.5 32zM163 591q-36 0 -36 34q0 36 47 36q12 0 40 -0.5t42 -0.5q24 0 61.5 1t48.5 1q36 0 38 -32q0 -38 -50 -38q-14 0 -48.5 0.5t-52.5 0.5t-48.5 -1t-41.5 -1z" />
    <glyph glyph-name="Ebreve" unicode="&#x114;" horiz-adv-x="543" 
d="M94 637q0 24 16 32.5t49 8.5h48q53 0 134.5 1t106.5 1q46 0 48 -36q0 -33 -27 -37q-30 -1 -241 -1h-52q-1 -42 -1 -121l-1 -97v-19h50q108 0 174 3q27 0 39 -7t12 -30q-2 -36 -45 -36h-231v-72q0 -25 -1 -77t-1 -77q131 0 264 2q7 0 18 0.5t17 0.5q35 0 35 -36
q0 -20 -11 -30.5t-40 -11.5h-262q-66 0 -84.5 10t-19.5 50q0 26 1 40l1 14q0 13 0.5 37.5t1 57t1 79.5t0.5 97q0 43 0.5 127t0.5 127zM405 879q13 0 21 -8.5t8 -20.5q0 -52 -37 -89.5t-93 -37.5q-52 0 -90.5 35.5t-39.5 85.5q0 15 8 24t22 9q12 0 19.5 -7.5t9.5 -18.5
q2 -31 21 -49.5t51 -18.5q31 0 50.5 20.5t19.5 48.5q2 27 30 27z" />
    <glyph glyph-name="ebreve" unicode="&#x115;" horiz-adv-x="509" 
d="M129 205q2 -55 41.5 -95.5t100.5 -40.5q60 0 109 33q26 12 33 12q14 0 25.5 -12.5t11.5 -26.5q0 -22 -27 -39q-61 -43 -161 -43q-89 0 -152 63.5t-65 152.5q0 103 65 178t159 75q82 0 139 -55.5t57 -124.5q0 -41 -13.5 -57.5t-62.5 -17.5q-33 -1 -70 -1t-92 -0.5
t-98 -0.5zM273 392q-57 0 -96.5 -39t-45.5 -90q233 4 243 5q12 2 12 10q0 50 -33.5 82t-79.5 32zM367 689q13 0 21 -8.5t8 -20.5q0 -52 -37 -89.5t-93 -37.5q-52 0 -90.5 35.5t-39.5 85.5q0 15 8 24t22 9q12 0 19.5 -7.5t9.5 -18.5q2 -31 21 -49.5t51 -18.5q31 0 50.5 20.5
t19.5 48.5q2 27 30 27z" />
    <glyph glyph-name="Edotaccent" unicode="&#x116;" horiz-adv-x="543" 
d="M94 637q0 24 16 32.5t49 8.5h48q53 0 134.5 1t106.5 1q46 0 48 -36q0 -33 -27 -37q-30 -1 -241 -1h-52q-1 -42 -1 -121l-1 -97v-19h50q108 0 174 3q27 0 39 -7t12 -30q-2 -36 -45 -36h-231v-72q0 -25 -1 -77t-1 -77q131 0 264 2q7 0 18 0.5t17 0.5q35 0 35 -36
q0 -20 -11 -30.5t-40 -11.5h-262q-66 0 -84.5 10t-19.5 50q0 26 1 40l1 14q0 13 0.5 37.5t1 57t1 79.5t0.5 97q0 43 0.5 127t0.5 127zM299 761q-23 0 -38 16.5t-14 41.5q2 24 18.5 37.5t39.5 13.5q25 0 39 -15.5t14 -38.5q0 -26 -16.5 -40.5t-42.5 -14.5z" />
    <glyph glyph-name="edotaccent" unicode="&#x117;" horiz-adv-x="509" 
d="M129 205q2 -55 41.5 -95.5t100.5 -40.5q60 0 109 33q26 12 33 12q14 0 25.5 -12.5t11.5 -26.5q0 -22 -27 -39q-61 -43 -161 -43q-89 0 -152 63.5t-65 152.5q0 103 65 178t159 75q82 0 139 -55.5t57 -124.5q0 -41 -13.5 -57.5t-62.5 -17.5q-33 -1 -70 -1t-92 -0.5
t-98 -0.5zM273 392q-57 0 -96.5 -39t-45.5 -90q233 4 243 5q12 2 12 10q0 50 -33.5 82t-79.5 32zM261 571q-23 0 -38 16.5t-14 41.5q2 24 18.5 37.5t39.5 13.5q25 0 39 -15.5t14 -38.5q0 -26 -16.5 -40.5t-42.5 -14.5z" />
    <glyph glyph-name="Eogonek" unicode="&#x118;" horiz-adv-x="543" 
d="M394 -110q0 -19 9.5 -30.5t26.5 -11.5q11 0 23 2.5t19 2.5q12 0 18.5 -9t6.5 -22q0 -35 -58 -39q-18 0 -33 4q-33 7 -54 29.5t-21 60.5q0 67 75 121h-214q-66 0 -84.5 10t-19.5 50q0 7 0.5 21t0.5 22q4 72 4 282q0 37 0.5 112.5t0.5 113.5q1 45 12.5 57t52.5 12h48
q53 0 134.5 1t106.5 1q46 0 48 -36q0 -33 -27 -37q-30 -1 -241 -1h-53q0 -83 -1 -213v-24h50q31 0 93 1.5t94 1.5q38 0 38 -37q0 -19 -10 -27.5t-44 -8.5h-222q1 -38 -2 -226q49 0 148 0.5t151 0.5q35 0 35 -34t-31 -40q-30 -16 -55 -48.5t-25 -61.5z" />
    <glyph glyph-name="eogonek" unicode="&#x119;" horiz-adv-x="509" 
d="M129 205q2 -55 41.5 -95.5t100.5 -40.5q60 0 109 33q26 12 33 12q14 0 25.5 -12.5t11.5 -26.5q0 -20 -27 -39q-25 -17 -39.5 -27.5t-34.5 -29.5t-29.5 -40.5t-9.5 -46.5q0 -19 10.5 -31.5t27.5 -12.5q10 0 23 2.5t21 2.5q11 0 18 -9t7 -22q0 -40 -69 -40
q-43 0 -71.5 25.5t-28.5 70.5q0 65 59 118q-21 -3 -45 -3q-89 0 -152 63.5t-65 152.5q0 103 65 178t159 75q82 0 139 -55.5t57 -124.5q0 -41 -13.5 -57.5t-62.5 -17.5q-33 -1 -70 -1t-92 -0.5t-98 -0.5zM273 392q-57 0 -96.5 -39t-45.5 -90q233 4 243 5q12 2 12 10
q0 50 -33.5 82t-79.5 32z" />
    <glyph glyph-name="Ecaron" unicode="&#x11a;" horiz-adv-x="543" 
d="M94 637q0 24 16 32.5t49 8.5h48q53 0 134.5 1t106.5 1q46 0 48 -36q0 -33 -27 -37q-30 -1 -241 -1h-52q-1 -42 -1 -121l-1 -97v-19h50q108 0 174 3q27 0 39 -7t12 -30q-2 -36 -45 -36h-231v-72q0 -25 -1 -77t-1 -77q131 0 264 2q7 0 18 0.5t17 0.5q35 0 35 -36
q0 -20 -11 -30.5t-40 -11.5h-262q-66 0 -84.5 10t-19.5 50q0 26 1 40l1 14q0 13 0.5 37.5t1 57t1 79.5t0.5 97q0 43 0.5 127t0.5 127zM198 891q11 0 23 -12q25 -24 82 -84q18 18 37.5 39t29.5 31t17 16q11 9 23 9q9 0 18.5 -9.5t9.5 -18.5q0 -10 -11 -25l-87 -96
q-15 -18 -37 -18q-19 0 -34 16l-87 98q-13 17 -13 27q0 9 9 18t20 9z" />
    <glyph glyph-name="ecaron" unicode="&#x11b;" horiz-adv-x="509" 
d="M129 205q2 -55 41.5 -95.5t100.5 -40.5q60 0 109 33q26 12 33 12q14 0 25.5 -12.5t11.5 -26.5q0 -22 -27 -39q-61 -43 -161 -43q-89 0 -152 63.5t-65 152.5q0 103 65 178t159 75q82 0 139 -55.5t57 -124.5q0 -41 -13.5 -57.5t-62.5 -17.5q-33 -1 -70 -1t-92 -0.5
t-98 -0.5zM273 392q-57 0 -96.5 -39t-45.5 -90q233 4 243 5q12 2 12 10q0 50 -33.5 82t-79.5 32zM160 701q11 0 23 -12q25 -24 82 -84q18 18 37.5 39t29.5 31t17 16q11 9 23 9q9 0 18.5 -9.5t9.5 -18.5q0 -10 -11 -25l-87 -96q-15 -18 -37 -18q-19 0 -34 16l-87 98
q-13 17 -13 27q0 9 9 18t20 9z" />
    <glyph glyph-name="Gcircumflex" unicode="&#x11c;" horiz-adv-x="711" 
d="M388 685q112 0 198 -55q25 -16 25 -36q0 -16 -9.5 -28.5t-25.5 -12.5t-46 18q-60 40 -147 40q-94 0 -170.5 -80t-76.5 -186q0 -128 68 -201.5t181 -73.5q90 0 146 65t57 153h-141q-15 1 -23.5 11.5t-8.5 24.5q0 33 34 36q7 1 170 1q30 0 40.5 -14.5t10.5 -46.5
q0 -136 -82 -221.5t-210 -85.5q-144 0 -235 95.5t-91 249.5q0 144 101 245.5t235 101.5zM487 724q-6 0 -24 12l-82 84q-77 -81 -83 -86q-10 -9 -23 -9q-9 0 -18.5 9t-9.5 19q0 12 11 25l86 96q15 18 38 18q19 0 34 -16l87 -98q13 -17 13 -26t-9 -18.5t-20 -9.5z" />
    <glyph glyph-name="gcircumflex" unicode="&#x11d;" horiz-adv-x="564" 
d="M260 -154q67 0 110.5 45t43.5 118v70q-24 -40 -65.5 -62.5t-91.5 -22.5q-92 0 -153 66t-61 156q0 105 65.5 175.5t162.5 70.5q90 0 145 -78l1 42q2 32 38 32q17 0 28 -10t11 -28q-2 -230 -2 -320l1 -94q2 -106 -65 -171.5t-170 -65.5q-80 0 -137 28q-34 16 -34 42
q0 16 11 28.5t26 12.5q6 0 12.5 -2t16 -7t15.5 -7q43 -18 92 -18zM127 219q0 -66 40.5 -108t99.5 -42q63 0 106.5 42.5t43.5 115.5q0 78 -41 120t-102 42q-63 1 -105 -47t-42 -123zM384 534q-6 0 -24 12l-82 84q-77 -81 -83 -86q-11 -9 -23 -9q-9 0 -18.5 9t-9.5 19
q0 12 11 25l86 96q15 18 38 18q19 0 34 -16l87 -98q13 -17 13 -26t-9 -18.5t-20 -9.5z" />
    <glyph glyph-name="Gbreve" unicode="&#x11e;" horiz-adv-x="711" 
d="M388 685q112 0 198 -55q25 -16 25 -36q0 -16 -9.5 -28.5t-25.5 -12.5t-46 18q-60 40 -147 40q-94 0 -170.5 -80t-76.5 -186q0 -128 68 -201.5t181 -73.5q90 0 146 65t57 153h-141q-15 1 -23.5 11.5t-8.5 24.5q0 33 34 36q7 1 170 1q30 0 40.5 -14.5t10.5 -46.5
q0 -136 -82 -221.5t-210 -85.5q-144 0 -235 95.5t-91 249.5q0 144 101 245.5t235 101.5zM483 879q13 0 21 -8.5t8 -20.5q0 -52 -37 -89.5t-93 -37.5q-52 0 -90.5 35.5t-39.5 85.5q0 15 8 24t22 9q12 0 19.5 -7.5t9.5 -18.5q2 -31 21 -49.5t51 -18.5q31 0 50.5 20.5
t19.5 48.5q2 27 30 27z" />
    <glyph glyph-name="gbreve" unicode="&#x11f;" horiz-adv-x="564" 
d="M260 -154q67 0 110.5 45t43.5 118v70q-24 -40 -65.5 -62.5t-91.5 -22.5q-92 0 -153 66t-61 156q0 105 65.5 175.5t162.5 70.5q90 0 145 -78l1 42q2 32 38 32q17 0 28 -10t11 -28q-2 -230 -2 -320l1 -94q2 -106 -65 -171.5t-170 -65.5q-80 0 -137 28q-34 16 -34 42
q0 16 11 28.5t26 12.5q6 0 12.5 -2t16 -7t15.5 -7q43 -18 92 -18zM127 219q0 -66 40.5 -108t99.5 -42q63 0 106.5 42.5t43.5 115.5q0 78 -41 120t-102 42q-63 1 -105 -47t-42 -123zM379 689q13 0 21 -8.5t8 -20.5q0 -52 -37 -89.5t-93 -37.5q-52 0 -90.5 35.5t-39.5 85.5
q0 15 8 24t22 9q12 0 19.5 -7.5t9.5 -18.5q2 -31 21 -49.5t51 -18.5q31 0 50.5 20.5t19.5 48.5q2 27 30 27z" />
    <glyph glyph-name="Gdotaccent" unicode="&#x120;" horiz-adv-x="711" 
d="M388 685q112 0 198 -55q25 -16 25 -36q0 -16 -9.5 -28.5t-25.5 -12.5t-46 18q-60 40 -147 40q-94 0 -170.5 -80t-76.5 -186q0 -128 68 -201.5t181 -73.5q90 0 146 65t57 153h-141q-15 1 -23.5 11.5t-8.5 24.5q0 33 34 36q7 1 170 1q30 0 40.5 -14.5t10.5 -46.5
q0 -136 -82 -221.5t-210 -85.5q-144 0 -235 95.5t-91 249.5q0 144 101 245.5t235 101.5zM377 761q-23 0 -38 16.5t-14 41.5q2 24 18.5 37.5t39.5 13.5q25 0 39 -15.5t14 -38.5q0 -26 -16.5 -40.5t-42.5 -14.5z" />
    <glyph glyph-name="gdotaccent" unicode="&#x121;" horiz-adv-x="564" 
d="M260 -154q67 0 110.5 45t43.5 118v70q-24 -40 -65.5 -62.5t-91.5 -22.5q-92 0 -153 66t-61 156q0 105 65.5 175.5t162.5 70.5q90 0 145 -78l1 42q2 32 38 32q17 0 28 -10t11 -28q-2 -230 -2 -320l1 -94q2 -106 -65 -171.5t-170 -65.5q-80 0 -137 28q-34 16 -34 42
q0 16 11 28.5t26 12.5q6 0 12.5 -2t16 -7t15.5 -7q43 -18 92 -18zM127 219q0 -66 40.5 -108t99.5 -42q63 0 106.5 42.5t43.5 115.5q0 78 -41 120t-102 42q-63 1 -105 -47t-42 -123zM273 571q-23 0 -38 16.5t-14 41.5q2 24 18.5 37.5t39.5 13.5q25 0 39 -15.5t14 -38.5
q0 -26 -16.5 -40.5t-42.5 -14.5z" />
    <glyph glyph-name="Gcommaaccent" unicode="&#x122;" horiz-adv-x="711" 
d="M388 685q112 0 198 -55q25 -16 25 -36q0 -16 -9.5 -28.5t-25.5 -12.5t-46 18q-60 40 -147 40q-94 0 -170.5 -80t-76.5 -186q0 -128 68 -201.5t181 -73.5q90 0 146 65t57 153h-141q-15 1 -23.5 11.5t-8.5 24.5q0 33 34 36q7 1 170 1q30 0 40.5 -14.5t10.5 -46.5
q0 -136 -82 -221.5t-210 -85.5q-144 0 -235 95.5t-91 249.5q0 144 101 245.5t235 101.5zM309 -195q0 7 14 21.5t18 28.5q2 4 -3 9t-11.5 14t-6.5 20q0 18 13 30.5t31 12.5q20 0 33.5 -13.5t13.5 -33.5q0 -55 -61 -101q-10 -7 -22 -7q-19 0 -19 19z" />
    <glyph glyph-name="gcommaaccent" unicode="&#x123;" horiz-adv-x="564" 
d="M324 670q0 -6 -15 -22t-16 -31q0 -2 11 -13t11 -26q0 -18 -13 -30.5t-32 -12.5t-33.5 13t-14.5 33q0 54 61 102q14 7 22 7q7 0 13 -5.5t6 -14.5zM260 -154q67 0 110.5 45t43.5 118v70q-24 -40 -65.5 -62.5t-91.5 -22.5q-92 0 -153 66t-61 156q0 105 65.5 175.5
t162.5 70.5q90 0 145 -78l1 42q2 32 38 32q17 0 28 -10t11 -28q-2 -230 -2 -320l1 -94q2 -106 -65 -171.5t-170 -65.5q-80 0 -137 28q-34 16 -34 42q0 16 11 28.5t26 12.5q6 0 12.5 -2t16 -7t15.5 -7q43 -18 92 -18zM127 219q0 -66 40.5 -108t99.5 -42q63 0 106.5 42.5
t43.5 115.5q0 78 -41 120t-102 42q-63 1 -105 -47t-42 -123z" />
    <glyph glyph-name="Hcircumflex" unicode="&#x124;" horiz-adv-x="697" 
d="M609 333l3 -300q0 -37 -42 -37q-43 0 -43 38v93l-1 161q-57 0 -174.5 -1t-181.5 -1l2 -254q0 -36 -44 -36q-41 0 -41 36q0 40 1.5 169t0.5 199l-4 239q0 40 44 40q40 0 40 -35q0 -110 1 -281h15h38h58q29 0 91.5 0.5t92.5 0.5l62 1q0 42 -1 140.5t-1 126.5q1 50 43 50
q41 0 41 -44q0 -8 -0.5 -147.5t0.5 -157.5zM456 724q-6 0 -24 12l-82 84q-77 -81 -83 -86q-11 -9 -23 -9q-9 0 -18.5 9t-9.5 19q0 12 11 25l86 96q15 18 38 18q19 0 34 -16l87 -98q13 -17 13 -26t-9 -18.5t-20 -9.5z" />
    <glyph glyph-name="hcircumflex" unicode="&#x125;" horiz-adv-x="548" 
d="M75 681q0 50 45 50q39 0 39 -45q0 -12 -0.5 -40.5t-1.5 -98.5t-1 -175q21 42 61.5 67t93.5 25q80 0 127 -56.5t47 -143.5v-229q0 -38 -44 -38q-18 0 -30 9.5t-12 26.5q5 120 5 224q0 63 -30 97t-84 34q-55 0 -95 -43t-40 -108q0 -33 0.5 -110.5t0.5 -93.5q0 -37 -42 -37
q-40 0 -40 36q0 28 1 74.5t1 60.5zM225 738q-6 0 -24 12l-82 84q-77 -81 -83 -86q-10 -9 -23 -9q-9 0 -18.5 9t-9.5 19q0 12 11 25l86 96q15 18 38 18q19 0 34 -16l87 -98q13 -17 13 -26t-9 -18.5t-20 -9.5z" />
    <glyph glyph-name="Hbar" unicode="&#x126;" horiz-adv-x="697" 
d="M609 333l3 -300q0 -37 -42 -37q-27 0 -35 16t-8 47v68q0 27 -0.5 81t-0.5 80q-228 0 -356 -1q0 -43 1 -128t1 -127q0 -36 -44 -36q-41 0 -41 36v374v78h-43q-32 0 -32 31t39 31h36v93q0 41 42 41q18 0 29.5 -9.5t11.5 -26.5v-98h357v94q0 43 41 43t41 -45v-92h37
q35 0 35 -29q0 -18 -8.5 -25.5t-29.5 -7.5h-34v-151zM170 363l357 1v120h-357v-121z" />
    <glyph glyph-name="hbar" unicode="&#x127;" horiz-adv-x="548" 
d="M75 682q0 49 45 49q38 0 38 -44v-79h82q36 0 36 -30q1 -19 -8.5 -27.5t-34.5 -8.5h-76q-1 -40 -1 -170q21 42 61.5 67t93.5 25q80 0 127 -56.5t47 -143.5v-229q0 -38 -44 -38q-18 0 -30 9.5t-12 26.5q5 120 5 224q0 63 -30 97t-84 34q-55 0 -95 -43t-40 -108
q0 -33 0.5 -110.5t0.5 -93.5q0 -37 -42 -37q-40 0 -40 36q0 28 1 74.5t1 60.5l-1 374h-50q-34 0 -34 32q0 35 42 35h42v74z" />
    <glyph glyph-name="Itilde" unicode="&#x128;" horiz-adv-x="274" 
d="M97 403q0 29 -1 106.5t-1 130.5q0 42 44 42q18 0 29 -10t11 -28q0 -78 -1 -249v-160l1 -192q0 -47 -42 -47q-19 0 -31 10t-11 29q0 14 0.5 43t0.5 45zM46 775q-4 -23 -31 -23q-14 0 -22 9.5t-7 25.5q2 37 26.5 59.5t62.5 22.5q27 0 48 -15t38.5 -30t36.5 -16q27 0 29 39
q1 11 10.5 17.5t19.5 6.5q12 0 20.5 -8t8.5 -20q0 -47 -23.5 -70.5t-62.5 -23.5q-22 1 -40 10t-28.5 19.5t-25 19.5t-28.5 10q-30 0 -32 -33z" />
    <glyph glyph-name="itilde" unicode="&#x129;" horiz-adv-x="240" 
d="M80 419q1 21 12 30.5t27 9.5q24 0 33.5 -12t9.5 -46q0 -37 -0.5 -114.5t-0.5 -115.5l1 -131q0 -45 -43 -45q-39 0 -39 41v383zM30 585q-4 -23 -31 -23q-14 0 -22 9.5t-7 25.5q2 37 26.5 59.5t62.5 22.5q27 0 48 -15t38.5 -30t36.5 -16q27 0 29 39q1 11 10.5 17.5
t19.5 6.5q12 0 20.5 -8t8.5 -20q0 -47 -23.5 -70.5t-62.5 -23.5q-22 1 -40 10t-28.5 19.5t-25 19.5t-28.5 10q-30 0 -32 -33z" />
    <glyph glyph-name="Imacron" unicode="&#x12a;" horiz-adv-x="274" 
d="M97 403q0 29 -1 106.5t-1 130.5q0 42 44 42q18 0 29 -10t11 -28q0 -78 -1 -249v-160l1 -192q0 -47 -42 -47q-19 0 -31 10t-11 29q0 14 0.5 43t0.5 45zM35 781q-36 0 -36 34q0 36 47 36q12 0 40 -0.5t42 -0.5q24 0 61.5 1t48.5 1q36 0 38 -32q0 -38 -50 -38
q-14 0 -48.5 0.5t-52.5 0.5t-48.5 -1t-41.5 -1z" />
    <glyph glyph-name="imacron" unicode="&#x12b;" horiz-adv-x="240" 
d="M80 419q1 21 12 30.5t27 9.5q24 0 33.5 -12t9.5 -46q0 -37 -0.5 -114.5t-0.5 -115.5l1 -131q0 -45 -43 -45q-39 0 -39 41v383zM19 591q-36 0 -36 34q0 36 47 36q12 0 40 -0.5t42 -0.5q24 0 61.5 1t48.5 1q36 0 38 -32q0 -38 -50 -38q-14 0 -48.5 0.5t-52.5 0.5t-48.5 -1
t-41.5 -1z" />
    <glyph glyph-name="Ibreve" unicode="&#x12c;" horiz-adv-x="274" 
d="M97 403q0 29 -1 106.5t-1 130.5q0 42 44 42q18 0 29 -10t11 -28q0 -78 -1 -249v-160l1 -192q0 -47 -42 -47q-19 0 -31 10t-11 29q0 14 0.5 43t0.5 45zM239 879q13 0 21 -8.5t8 -20.5q0 -52 -37 -89.5t-93 -37.5q-52 0 -90.5 35.5t-39.5 85.5q0 15 8 24t22 9
q12 0 19.5 -7.5t9.5 -18.5q2 -31 21 -49.5t51 -18.5q31 0 50.5 20.5t19.5 48.5q2 27 30 27z" />
    <glyph glyph-name="ibreve" unicode="&#x12d;" horiz-adv-x="240" 
d="M80 419q1 21 12 30.5t27 9.5q24 0 33.5 -12t9.5 -46q0 -37 -0.5 -114.5t-0.5 -115.5l1 -131q0 -45 -43 -45q-39 0 -39 41v383zM223 689q13 0 21 -8.5t8 -20.5q0 -52 -37 -89.5t-93 -37.5q-52 0 -90.5 35.5t-39.5 85.5q0 15 8 24t22 9q12 0 19.5 -7.5t9.5 -18.5
q2 -31 21 -49.5t51 -18.5q31 0 50.5 20.5t19.5 48.5q2 27 30 27z" />
    <glyph glyph-name="Iogonek" unicode="&#x12e;" horiz-adv-x="274" 
d="M97 403q0 102 -2 234q0 45 43 45q41 0 41 -38q0 -85 -1 -237v-36v-136q0 -32 0.5 -95.5t0.5 -96.5q0 -36 -21 -43q-40 -32 -59.5 -56.5t-19.5 -53.5q0 -20 10 -31t26 -11q11 0 23.5 2t19.5 2q11 0 18 -9t7 -22q0 -39 -68 -39q-42 0 -69.5 25t-27.5 71q0 70 89 129
q-12 11 -12 49q0 4 0.5 32.5t0.5 61.5q0 43 0.5 127t0.5 126z" />
    <glyph glyph-name="iogonek" unicode="&#x12f;" horiz-adv-x="241" 
d="M80 419q1 21 12.5 30.5t27.5 9.5q23 0 32.5 -12t10.5 -46q0 -37 -0.5 -114.5t-0.5 -115.5v-131q0 -29 -17 -40q-65 -56 -65 -110q0 -42 36 -42q11 0 23 2.5t19 2.5q11 0 18 -9t7 -22q0 -40 -67 -40q-41 0 -70 25.5t-29 70.5q0 65 76 125q-13 11 -13 33v383zM118 597
q-25 0 -40.5 17t-13.5 43q4 25 20.5 38.5t39.5 13.5q27 0 41.5 -15.5t14.5 -40.5q0 -28 -17 -42t-45 -14z" />
    <glyph glyph-name="Idotaccent" unicode="&#x130;" horiz-adv-x="274" 
d="M97 403q0 29 -1 106.5t-1 130.5q0 42 44 42q18 0 29 -10t11 -28q0 -78 -1 -249v-160l1 -192q0 -47 -42 -47q-19 0 -31 10t-11 29q0 14 0.5 43t0.5 45zM133 761q-23 0 -38 16.5t-14 41.5q2 24 18.5 37.5t39.5 13.5q25 0 39 -15.5t14 -38.5q0 -26 -16.5 -40.5t-42.5 -14.5z
" />
    <glyph glyph-name="dotlessi" unicode="&#x131;" horiz-adv-x="240" 
d="M80 419q1 21 12 30.5t27 9.5q24 0 33.5 -12t9.5 -46q0 -37 -0.5 -114.5t-0.5 -115.5l1 -131q0 -45 -43 -45q-39 0 -39 41v383z" />
    <glyph glyph-name="IJ" unicode="&#x132;" horiz-adv-x="758" 
d="M97 403q0 29 -1 106.5t-1 130.5q0 42 44 42q18 0 29 -10t11 -28q0 -78 -1 -249v-160l1 -192q0 -47 -42 -47q-19 0 -31 10t-11 29q0 14 0.5 43t0.5 45zM587 329l-6 313q-1 19 10.5 31t30.5 12q44 0 44 -41q0 -44 2.5 -138t2.5 -141q0 -83 -1 -120q-3 -121 -53 -186
t-163 -65q-39 0 -76 16.5t-57 33.5q-24 21 -24 44q0 16 10.5 27t27.5 11q5 0 10 -1.5t11 -5.5t9.5 -6.5t11 -8.5t10.5 -8q31 -25 70 -25q35 0 59 13t38 33t21.5 55.5t9.5 70t2 86.5z" />
    <glyph glyph-name="ij" unicode="&#x133;" horiz-adv-x="471" 
d="M80 419q1 21 12.5 30.5t27.5 9.5q23 0 32.5 -12t10.5 -46q0 -37 -0.5 -114.5t-0.5 -115.5v-131q0 -23 -9.5 -34t-32.5 -11q-40 0 -40 41v383zM118 597q-25 0 -40.5 17t-13.5 43q4 25 20.5 38.5t39.5 13.5q27 0 41.5 -15.5t14.5 -40.5q0 -28 -17 -42t-45 -14zM316 424
q1 17 12.5 26t28.5 9q41 0 41 -34v-255q0 -146 -3 -260q-2 -58 -46 -100t-109 -43q-85 0 -85 46q0 19 9.5 30.5t22.5 11.5q9 0 26 -5t31 -5q67 0 72 97q3 61 2 309q0 26 -1 87t-1 86zM352 595q-24 0 -39.5 15.5t-15.5 41.5t17.5 41.5t44.5 15.5t42 -16t15 -42
q0 -28 -17.5 -42t-46.5 -14z" />
    <glyph glyph-name="Jcircumflex" unicode="&#x134;" horiz-adv-x="484" 
d="M313 329l-6 313q-1 19 10.5 31t30.5 12q44 0 44 -41q0 -44 2.5 -138t2.5 -141q0 -83 -1 -120q-3 -121 -53 -186t-163 -65q-39 0 -76 16.5t-57 33.5q-24 21 -24 44q0 16 10.5 27t27.5 11q5 0 10 -1.5t11 -5.5t9.5 -6.5t11 -8.5t10.5 -8q31 -25 70 -25q35 0 59 13t38 33
t21.5 55.5t9.5 70t2 86.5zM455 724q-6 0 -24 12l-82 84q-77 -81 -83 -86q-10 -9 -23 -9q-9 0 -18.5 9t-9.5 19q0 12 11 25l86 96q15 18 38 18q19 0 34 -16l87 -98q13 -17 13 -26t-9 -18.5t-20 -9.5z" />
    <glyph glyph-name="jcircumflex" unicode="&#x135;" horiz-adv-x="229" 
d="M75 424q0 16 12 25.5t29 9.5q41 0 41 -34v-255q0 -146 -3 -260q-2 -58 -46 -100t-109 -43q-85 0 -85 46q0 19 9.5 30.5t22.5 11.5q9 0 26 -5t31 -5q66 0 71 97q3 43 3 309q-3 139 -2 173zM222 534q-6 0 -24 12l-82 84q-77 -81 -83 -86q-10 -9 -23 -9q-9 0 -18.5 9
t-9.5 19q0 12 11 25l86 96q15 18 38 18q19 0 34 -16l87 -98q13 -17 13 -26t-9 -18.5t-20 -9.5z" />
    <glyph glyph-name="Kcommaaccent" unicode="&#x136;" horiz-adv-x="606" 
d="M170 320l299 338q21 24 41 24q16 0 29.5 -12.5t13.5 -27.5q0 -13 -13 -29q-34 -39 -185 -203q-4 -4 -18.5 -20.5t-22.5 -24.5l153 -182l95 -111q16 -16 16 -36q0 -17 -13.5 -29.5t-31.5 -12.5q-22 0 -38 20q-9 11 -25 33l-210 266q-16 -19 -49 -52.5t-42 -42.5v-186
q0 -37 -42 -37q-19 -1 -30.5 9t-11.5 28q0 8 0.5 28.5t0.5 32.5q0 95 1 271.5t1 273.5q0 44 42 44t42 -40q0 -54 -1 -163.5t-1 -158.5zM251 -195q0 7 14 21.5t18 28.5q2 4 -3 9t-11.5 14t-6.5 20q0 18 13 30.5t31 12.5q20 0 33.5 -13.5t13.5 -33.5q0 -55 -61 -101
q-11 -7 -22 -7q-19 0 -19 19z" />
    <glyph glyph-name="kcommaaccent" unicode="&#x137;" horiz-adv-x="466" 
d="M262 248l168 -185q12 -13 12 -26q0 -14 -12.5 -27.5t-30.5 -13.5q-17 0 -41 28l-151 179l-52 -51v-106q-1 -25 -9 -37.5t-31 -12.5q-24 0 -33 12t-9 39l2 116v439q0 61 -1 84q-1 21 11.5 32.5t31.5 11.5q40 0 40 -50q0 -70 -1 -217.5t-1 -217.5l191 195q25 25 42 25
q15 0 28 -13t13 -29q0 -13 -20 -33zM199 -195q0 7 14 21.5t18 28.5q2 4 -3 9t-11.5 14t-6.5 20q0 18 13 30.5t31 12.5q20 0 33.5 -13.5t13.5 -33.5q0 -55 -61 -101q-10 -7 -22 -7q-19 0 -19 19z" />
    <glyph glyph-name="kgreenlandic" unicode="&#x138;" horiz-adv-x="466" 
d="M269 235l160 -171q13 -15 13 -27q0 -14 -12.5 -27.5t-30.5 -13.5q-17 0 -41 28l-151 175l-52 -1v-152q-1 -25 -9 -37.5t-31 -12.5q-24 0 -33 12t-9 39l2 118l-1 252q-1 45 42 45q22 0 31 -12t9 -39l-1 -141h37q29 3 52.5 38.5t48.5 79t54 58.5q21 15 48 15
q15 0 25.5 -11.5t10.5 -27.5q0 -23 -32 -36q-28 -12 -49.5 -42.5t-41 -63t-39.5 -45.5z" />
    <glyph glyph-name="Lacute" unicode="&#x139;" horiz-adv-x="494" 
d="M90 640q0 20 12.5 30.5t32.5 10.5q38 0 38 -41q0 -31 -2 -220q0 -33 -0.5 -99t-1.5 -98q0 -48 -0.5 -81.5t-0.5 -49.5v-19q92 0 118 1l153 6q39 0 39 -36q0 -43 -41 -43h-116q-111 0 -152 -2q-47 -2 -65 9t-19 47v39q0 40 2 125t3 128v293zM121 740q-13 -10 -23 -10
q-11 0 -22 9.5t-11 20.5q0 12 9 22q6 7 39 44t55 64q14 17 29 17t27.5 -12.5t12.5 -27.5q0 -11 -14 -25q-42 -47 -102 -102z" />
    <glyph glyph-name="lacute" unicode="&#x13a;" horiz-adv-x="235" 
d="M222 855l-87 -91q-11 -9 -24 -9q-11 0 -21.5 9t-10.5 21q0 10 9 22l79 96q14 17 29 17t27.5 -12t12.5 -28q0 -11 -14 -25zM79 680q0 20 12.5 31t31.5 11q24 0 32.5 -13t8.5 -43q-6 -492 -6 -502q0 -25 2.5 -71t2.5 -63q0 -35 -38 -36q-21 -2 -32.5 13t-12.5 48
q-4 78 -1 625z" />
    <glyph glyph-name="Lcommaaccent" unicode="&#x13b;" horiz-adv-x="494" 
d="M90 640q0 20 12.5 30.5t32.5 10.5q38 0 38 -41q0 -31 -2 -220q0 -33 -0.5 -99t-1.5 -98q0 -48 -0.5 -81.5t-0.5 -49.5v-19q92 0 118 1l153 6q39 0 39 -36q0 -43 -41 -43h-116q-111 0 -152 -2q-47 -2 -65 9t-19 47v39q0 40 2 125t3 128v293zM218 -195q0 7 14 21.5t18 28.5
q2 4 -3 9t-11.5 14t-6.5 20q0 18 12.5 30.5t31.5 12.5q20 0 33.5 -13.5t13.5 -33.5q0 -55 -61 -101q-11 -7 -22 -7q-19 0 -19 19z" />
    <glyph glyph-name="lcommaaccent" unicode="&#x13c;" horiz-adv-x="235" 
d="M79 680q0 20 12.5 31t31.5 11q24 0 32.5 -13t8.5 -43q-6 -492 -6 -502q0 -25 2.5 -71t2.5 -63q0 -35 -38 -36q-21 -2 -32.5 13t-12.5 48q-4 78 -1 625zM67 -195q0 7 14 21.5t18 28.5q2 4 -3 9t-11.5 14t-6.5 20q0 18 13 30.5t31 12.5q20 0 33.5 -13.5t13.5 -33.5
q0 -55 -61 -101q-10 -7 -22 -7q-19 0 -19 19z" />
    <glyph glyph-name="Lcaron" unicode="&#x13d;" horiz-adv-x="504" 
d="M426 579h-2q-15 1 -28 14t-13 33q0 22 15.5 38t37.5 16q27 0 43.5 -19t16.5 -50q0 -33 -21.5 -67.5t-53.5 -53.5q-8 -5 -16 -5q-9 0 -16.5 6.5t-7.5 15.5q0 12 10 20q35 25 35 48v4zM90 640q0 20 12.5 30.5t32.5 10.5q38 0 38 -41q0 -31 -2 -220q0 -33 -0.5 -99t-1.5 -98
q0 -48 -0.5 -81.5t-0.5 -49.5v-19q92 0 118 1l153 6q39 0 39 -36q0 -43 -41 -43h-116q-111 0 -152 -2q-47 -2 -65 9t-19 47v39q0 40 2 125t3 128v293z" />
    <glyph glyph-name="lcaron" unicode="&#x13e;" horiz-adv-x="347" 
d="M276 627h-2q-15 1 -27.5 13t-12.5 32q0 22 15 37.5t37 15.5q26 0 42 -18.5t16 -49.5q0 -32 -21.5 -66t-52.5 -52q-10 -5 -15 -5q-9 0 -16.5 6.5t-7.5 15.5q0 11 11 20q34 24 34 47v4zM79 680q0 20 12.5 31t31.5 11q24 0 32.5 -13t8.5 -43q-6 -492 -6 -502q0 -25 2.5 -71
t2.5 -63q0 -35 -38 -36q-21 -2 -32.5 13t-12.5 48q-4 78 -1 625z" />
    <glyph glyph-name="Ldot" unicode="&#x13f;" horiz-adv-x="494" 
d="M90 640q0 20 12.5 30.5t32.5 10.5q38 0 38 -41q0 -31 -2 -220q0 -33 -0.5 -99t-1.5 -98q0 -48 -0.5 -81.5t-0.5 -49.5v-19q92 0 118 1l153 6q39 0 39 -36q0 -43 -41 -43h-116q-111 0 -152 -2q-47 -2 -65 9t-19 47v39q0 40 2 125t3 128v293zM386 301q-23 0 -38.5 16
t-15.5 39q0 24 17 40t43 16q24 0 39.5 -16t15.5 -40q0 -26 -17 -40.5t-44 -14.5z" />
    <glyph glyph-name="ldot" unicode="&#x140;" horiz-adv-x="367" 
d="M79 680q0 20 12.5 31t31.5 11q24 0 32.5 -13t8.5 -43q-6 -492 -6 -502q0 -25 2.5 -71t2.5 -63q0 -35 -38 -36q-21 -2 -32.5 13t-12.5 48q-4 78 -1 625zM292 243q-23 0 -38.5 16t-15.5 39q0 24 17 40t43 16q24 0 39.5 -16t15.5 -40q0 -26 -17 -40.5t-44 -14.5z" />
    <glyph glyph-name="Lslash" unicode="&#x141;" horiz-adv-x="494" 
d="M90 640q0 20 12.5 30.5t32.5 10.5q38 0 39 -42l-2 -224v-42l74 43q16 9 29 9q12 0 21.5 -12.5t9.5 -26.5q0 -19 -32 -36l-103 -59v-68l-1 -150q90 0 116 1l153 5q39 0 39 -35q0 -43 -41 -43l-269 -1q-48 -2 -65.5 10t-16.5 48l3 159v30l-38 -21q-8 -6 -18 -6
q-13 0 -23 12t-9 26q0 18 26 34l63 35v313z" />
    <glyph glyph-name="lslash" unicode="&#x142;" horiz-adv-x="252" 
d="M87 57v214l-27 -18q-20 -13 -34 -13q-13 0 -22 11t-9 24q0 19 26 36l66 42q0 47 0.5 152t0.5 152q0 32 9.5 47t33.5 15q41 0 40 -46q0 -34 -1 -128t-1 -144l34 21q13 8 22 8q12 0 22 -11t10 -24q0 -21 -31 -40l-57 -36v-159q0 -17 4 -121q0 -43 -37 -43q-47 0 -49 61z
" />
    <glyph glyph-name="Nacute" unicode="&#x143;" horiz-adv-x="707" 
d="M166 50q0 -28 -9 -40.5t-30 -12.5q-43 0 -43 40q0 58 1 263q0 46 -0.5 116t-0.5 116v106q0 19 14.5 30.5t36.5 11.5q13 0 25 -8t17.5 -15t18.5 -25l245 -347l106 -149q-3 87 -3 235l-2 247q0 30 8 45.5t34 15.5q24 0 31.5 -14t7.5 -45v-332q2 -59 2 -246q0 -20 -13.5 -32
t-36.5 -12q-18 0 -28.5 9.5t-29.5 36.5l-354 505q-1 -55 1 -257.5t2 -241.5zM340 740q-13 -10 -23 -10q-11 0 -22 9.5t-11 20.5q0 12 9 22q6 7 39 44t55 64q14 17 29 17t27.5 -12.5t12.5 -27.5q0 -11 -14 -25q-42 -47 -102 -102z" />
    <glyph glyph-name="nacute" unicode="&#x144;" horiz-adv-x="553" 
d="M77 300l-2 106q0 27 9.5 40t33.5 13q21 0 28.5 -11t9.5 -36l1 -44q19 45 63.5 70.5t96.5 25.5q82 0 126 -52t44 -144v-131v-90q0 -26 -10 -38t-35 -12q-39 0 -39 38q0 26 2 98.5t1 110.5q-2 144 -107 145q-35 0 -61 -11t-41 -28t-24 -43t-12 -51t-3 -57v-167
q0 -37 -43 -37q-39 0 -39 37q0 14 0.5 52t0.5 80v136zM267 550q-13 -10 -23 -10q-11 0 -22 9.5t-11 20.5q0 12 9 22q6 7 39 44t55 64q14 17 29 17t27.5 -12.5t12.5 -27.5q0 -11 -14 -25q-42 -47 -102 -102z" />
    <glyph glyph-name="Ncommaaccent" unicode="&#x145;" horiz-adv-x="707" 
d="M166 50q0 -28 -9 -40.5t-30 -12.5q-43 0 -43 40q0 58 1 263q0 46 -0.5 116t-0.5 116v106q0 19 14.5 30.5t36.5 11.5q13 0 25 -8t17.5 -15t18.5 -25l245 -347l106 -149q-3 87 -3 235l-2 247q0 30 8 45.5t34 15.5q24 0 31.5 -14t7.5 -45v-332q2 -59 2 -246q0 -20 -13.5 -32
t-36.5 -12q-18 0 -28.5 9.5t-29.5 36.5l-354 505q-1 -55 1 -257.5t2 -241.5zM301 -195q0 7 14 21.5t18 28.5q2 4 -3 9t-11.5 14t-6.5 20q0 18 13 30.5t31 12.5q20 0 33.5 -13.5t13.5 -33.5q0 -55 -61 -101q-10 -7 -22 -7q-19 0 -19 19z" />
    <glyph glyph-name="ncommaaccent" unicode="&#x146;" horiz-adv-x="553" 
d="M77 300l-2 106q0 27 9.5 40t33.5 13q21 0 28.5 -11t9.5 -36l1 -44q19 45 63.5 70.5t96.5 25.5q82 0 126 -52t44 -144v-131v-90q0 -26 -10 -38t-35 -12q-39 0 -39 38q0 26 2 98.5t1 110.5q-2 144 -107 145q-35 0 -61 -11t-41 -28t-24 -43t-12 -51t-3 -57v-167
q0 -37 -43 -37q-39 0 -39 37q0 14 0.5 52t0.5 80v136zM225 -195q0 7 14 21.5t18 28.5q2 4 -3 9t-11.5 14t-6.5 20q0 18 13 30.5t31 12.5q20 0 33.5 -13.5t13.5 -33.5q0 -55 -61 -101q-11 -7 -22 -7q-19 0 -19 19z" />
    <glyph glyph-name="Ncaron" unicode="&#x147;" horiz-adv-x="707" 
d="M166 50q0 -28 -9 -40.5t-30 -12.5q-43 0 -43 40q0 58 1 263q0 46 -0.5 116t-0.5 116v106q0 19 14.5 30.5t36.5 11.5q13 0 25 -8t17.5 -15t18.5 -25l245 -347l106 -149q-3 87 -3 235l-2 247q0 30 8 45.5t34 15.5q24 0 31.5 -14t7.5 -45v-332q2 -59 2 -246q0 -20 -13.5 -32
t-36.5 -12q-18 0 -28.5 9.5t-29.5 36.5l-354 505q-1 -55 1 -257.5t2 -241.5zM249 891q11 0 23 -12q25 -24 82 -84q18 18 37.5 39t29.5 31t17 16q10 9 23 9q9 0 18.5 -9.5t9.5 -18.5q0 -10 -11 -25l-87 -96q-15 -18 -37 -18q-19 0 -34 16l-87 98q-13 17 -13 27q0 9 9 18t20 9
z" />
    <glyph glyph-name="ncaron" unicode="&#x148;" horiz-adv-x="553" 
d="M77 300l-2 106q0 27 9.5 40t33.5 13q21 0 28.5 -11t9.5 -36l1 -44q19 45 63.5 70.5t96.5 25.5q82 0 126 -52t44 -144v-131v-90q0 -26 -10 -38t-35 -12q-39 0 -39 38q0 26 2 98.5t1 110.5q-2 144 -107 145q-35 0 -61 -11t-41 -28t-24 -43t-12 -51t-3 -57v-167
q0 -37 -43 -37q-39 0 -39 37q0 14 0.5 52t0.5 80v136zM176 701q11 0 23 -12q25 -24 82 -84q18 18 37.5 39t29.5 31t17 16q11 9 23 9q9 0 18.5 -9.5t9.5 -18.5q0 -10 -11 -25l-87 -96q-15 -18 -37 -18q-19 0 -34 16l-87 98q-13 17 -13 27q0 9 9 18t20 9z" />
    <glyph glyph-name="napostrophe" unicode="&#x149;" horiz-adv-x="553" 
d="M51 627h-1q-15 1 -28 13t-13 32q0 22 15 37.5t37 15.5q26 0 42 -18.5t16 -49.5q0 -32 -21 -66t-52 -52q-15 -5 -16 -5q-9 0 -16 6.5t-7 15.5q0 12 10 20q34 24 34 47v4zM77 300l-2 106q0 27 9.5 40t33.5 13q21 0 28.5 -11t9.5 -36l1 -44q19 45 63.5 70.5t96.5 25.5
q82 0 126 -52t44 -144v-131v-90q0 -26 -10 -38t-35 -12q-39 0 -39 38q0 26 2 98.5t1 110.5q-2 144 -107 145q-35 0 -61 -11t-41 -28t-24 -43t-12 -51t-3 -57v-167q0 -37 -43 -37q-39 0 -39 37q0 14 0.5 52t0.5 80v136z" />
    <glyph glyph-name="Eng" unicode="&#x14a;" horiz-adv-x="707" 
d="M166 50q0 -28 -9 -40.5t-30 -12.5q-43 0 -43 40q0 58 1 263q0 46 -0.5 116t-0.5 116v106q0 19 14.5 30.5t36.5 11.5q13 0 25 -8t17.5 -15t18.5 -25l245 -347l104 -149l-1 235l-2 247q0 30 8 45.5t34 15.5q24 0 31.5 -14t7.5 -45v-682q0 -72 -38.5 -122t-105.5 -50
q-85 0 -85 42q0 19 9.5 30.5t22.5 11.5q9 0 24 -3.5t29 -3.5q66 0 66 108v56l-382 542q-1 -55 1 -257.5t2 -241.5z" />
    <glyph glyph-name="eng" unicode="&#x14b;" horiz-adv-x="553" 
d="M406 244q0 144 -107 145q-35 0 -61 -11t-41 -28t-24 -43t-12 -51t-3 -57v-167q0 -37 -43 -37q-39 0 -39 37q0 14 0.5 52t0.5 80v136l-2 106q0 27 9.5 40t33.5 13q21 0 28.5 -11t9.5 -36l1 -44q19 45 63.5 70.5t96.5 25.5q82 0 126 -52t44 -144v-343q0 -70 -44 -113
t-112 -44q-83 0 -83 43q0 19 9 30.5t22 11.5q9 0 25 -3.5t30 -3.5q34 1 52.5 28t19.5 73v297z" />
    <glyph glyph-name="Omacron" unicode="&#x14c;" horiz-adv-x="746" 
d="M378 686q133 0 227.5 -96t94.5 -242q0 -151 -92.5 -254t-233.5 -103q-83 0 -156 39.5t-120 116.5t-47 175q0 82 28 152t74.5 116t105 71.5t119.5 24.5zM618 345q-1 115 -76 189t-175 74q-94 0 -164 -79t-70 -197q0 -116 72 -189t176 -73q99 0 168.5 82.5t68.5 192.5z
M272 781q-36 0 -36 34q0 36 47 36q12 0 40 -0.5t42 -0.5q24 0 61.5 1t48.5 1q36 0 38 -32q0 -38 -50 -38q-14 0 -48.5 0.5t-52.5 0.5t-48.5 -1t-41.5 -1z" />
    <glyph glyph-name="omacron" unicode="&#x14d;" 
d="M294 465q18 0 25 -7q89 -13 136 -80.5t47 -151.5q0 -101 -68.5 -168t-169.5 -67q-90 0 -155.5 62t-65.5 159q0 112 68.5 182t182.5 71zM419 229q0 68 -38.5 112.5t-109.5 48.5q-66 -4 -106 -51.5t-40 -128.5q0 -62 42 -103t95 -41q64 0 110.5 45t46.5 118zM169 591
q-36 0 -36 34q0 36 47 36q12 0 40 -0.5t42 -0.5q24 0 61.5 1t48.5 1q36 0 38 -32q0 -38 -50 -38q-14 0 -48.5 0.5t-52.5 0.5t-48.5 -1t-41.5 -1z" />
    <glyph glyph-name="Obreve" unicode="&#x14e;" horiz-adv-x="746" 
d="M378 686q133 0 227.5 -96t94.5 -242q0 -151 -92.5 -254t-233.5 -103q-83 0 -156 39.5t-120 116.5t-47 175q0 82 28 152t74.5 116t105 71.5t119.5 24.5zM618 345q-1 115 -76 189t-175 74q-94 0 -164 -79t-70 -197q0 -116 72 -189t176 -73q99 0 168.5 82.5t68.5 192.5z
M475 879q13 0 21 -8.5t8 -20.5q0 -52 -37 -89.5t-93 -37.5q-52 0 -90.5 35.5t-39.5 85.5q0 15 8 24t22 9q12 0 19.5 -7.5t9.5 -18.5q2 -31 21 -49.5t51 -18.5q31 0 50.5 20.5t19.5 48.5q2 27 30 27z" />
    <glyph glyph-name="obreve" unicode="&#x14f;" 
d="M294 465q18 0 25 -7q89 -13 136 -80.5t47 -151.5q0 -101 -68.5 -168t-169.5 -67q-90 0 -155.5 62t-65.5 159q0 112 68.5 182t182.5 71zM419 229q0 68 -38.5 112.5t-109.5 48.5q-66 -4 -106 -51.5t-40 -128.5q0 -62 42 -103t95 -41q64 0 110.5 45t46.5 118zM372 689
q13 0 21 -8.5t8 -20.5q0 -52 -37 -89.5t-93 -37.5q-52 0 -90.5 35.5t-39.5 85.5q0 15 8 24t22 9q12 0 19.5 -7.5t9.5 -18.5q2 -31 21 -49.5t51 -18.5q31 0 50.5 20.5t19.5 48.5q2 27 30 27z" />
    <glyph glyph-name="Ohungarumlaut" unicode="&#x150;" horiz-adv-x="746" 
d="M378 686q133 0 227.5 -96t94.5 -242q0 -151 -92.5 -254t-233.5 -103q-83 0 -156 39.5t-120 116.5t-47 175q0 82 28 152t74.5 116t105 71.5t119.5 24.5zM618 345q-1 115 -76 189t-175 74q-94 0 -164 -79t-70 -197q0 -116 72 -189t176 -73q99 0 168.5 82.5t68.5 192.5z
M405 838l-83 -102q-11 -14 -23 -14t-20.5 8t-8.5 20t7 20l71 107q12 19 29 19q15 0 26 -9.5t11 -24.5q0 -10 -9 -24zM560 833l-90 -104q-12 -12 -21 -12q-12 0 -21.5 7.5t-9.5 20.5q0 8 7 20l79 107q12 20 28 20q14 0 26 -8.5t12 -22.5q0 -15 -10 -28z" />
    <glyph glyph-name="ohungarumlaut" unicode="&#x151;" 
d="M294 465q18 0 25 -7q89 -13 136 -80.5t47 -151.5q0 -101 -68.5 -168t-169.5 -67q-90 0 -155.5 62t-65.5 159q0 112 68.5 182t182.5 71zM419 229q0 68 -38.5 112.5t-109.5 48.5q-66 -4 -106 -51.5t-40 -128.5q0 -62 42 -103t95 -41q64 0 110.5 45t46.5 118zM291 648
l-83 -102q-11 -14 -23 -14t-20.5 8t-8.5 20t7 20l71 107q12 19 29 19q15 0 26 -9.5t11 -24.5q0 -10 -9 -24zM446 643l-90 -104q-12 -12 -21 -12q-12 0 -21.5 7.5t-9.5 20.5q0 8 7 20l79 107q12 20 28 20q14 0 26 -8.5t12 -22.5q0 -15 -10 -28z" />
    <glyph glyph-name="OE" unicode="&#x152;" horiz-adv-x="1071" 
d="M381 686q84 0 147.5 -34t101.5 -92v57q2 33 15.5 47.5t48.5 14.5q18 0 69 -1q44 0 123.5 1t106.5 1q41 0 41 -36q0 -39 -39 -39h-284q-2 -86 -2 -120v-118h50h191q21 -2 30.5 -9t8.5 -25q0 -18 -9 -27t-33 -9q-23 0 -124 -0.5t-114 -0.5q-1 -6 -1 -18v-204
q34 0 131.5 1.5t151.5 1.5q41 0 41 -37q0 -42 -51 -42q-29 0 -127.5 0.5t-136.5 0.5q-54 -1 -70 13.5t-18 60.5q-1 13 -1 56q-91 -138 -252 -138q-131 0 -228 92t-97 239q0 82 28.5 152.5t75 116t105.5 71t121 24.5zM632 353q-1 117 -75.5 186.5t-183.5 69.5
q-96 0 -167.5 -79t-71.5 -197q0 -116 74 -189.5t180 -73.5q110 0 177 83t67 200z" />
    <glyph glyph-name="oe" unicode="&#x153;" horiz-adv-x="853" 
d="M302 457q50 -6 89 -33.5t60 -70.5q24 48 72 78.5t102 30.5q83 0 138.5 -55.5t55.5 -128.5q0 -40 -12.5 -54t-61.5 -15q-59 -2 -152 -3.5t-102 -1.5q3 -54 41 -94t95 -40q41 0 87 22.5t56 22.5q13 0 23.5 -13t10.5 -28q0 -18 -27 -37q-57 -43 -157 -43q-54 0 -101 30
t-72 77q-29 -50 -78.5 -79t-113.5 -29q-87 0 -152.5 63.5t-65.5 157.5q0 109 68.5 179.5t173.5 70.5q15 0 23 -7zM409 229q0 69 -38 113t-107 48q-66 -4 -105 -50.5t-39 -126.5q0 -62 42 -104t94 -42q65 0 109 44t44 118zM628 393q-55 0 -93.5 -39.5t-43.5 -91.5
q220 0 253 10q0 53 -33.5 87t-82.5 34z" />
    <glyph glyph-name="Racute" unicode="&#x154;" horiz-adv-x="605" 
d="M89 624q0 52 68 54q60 2 98 2q48 0 73 -2q97 -6 154 -60t57 -144q0 -73 -38.5 -124.5t-102.5 -68.5l155 -215q14 -19 14 -30q0 -16 -13 -27.5t-31 -12.5q-18 0 -36 21l-168 243h-149q0 -30 0.5 -108.5t0.5 -104.5q0 -48 -37 -49q-27 0 -36.5 11.5t-9.5 38.5q2 62 2 469
q0 17 -0.5 53.5t-0.5 53.5zM294 607q-95 0 -125 -1l1 -274h120q76 0 121.5 33.5t46.5 107.5q0 65 -43.5 99.5t-120.5 34.5zM284 740q-13 -10 -23 -10q-11 0 -22 9.5t-11 20.5q0 12 9 22q6 7 39 44t55 64q14 17 29 17t27.5 -12.5t12.5 -27.5q0 -11 -14 -25q-42 -47 -102 -102
z" />
    <glyph glyph-name="racute" unicode="&#x155;" horiz-adv-x="357" 
d="M80 417q-1 41 41 41q31 0 34 -33l2 -70q24 53 65 80t83 27q46 0 46 -39q0 -17 -9.5 -28.5t-27.5 -11.5h-19q-56 0 -95.5 -49t-39.5 -123v-177q0 -38 -42 -38q-22 0 -31.5 12t-8.5 42q0 21 2 116t2 138q0 17 -1 55.5t-1 57.5zM199 550q-13 -10 -23 -10q-11 0 -22 9.5
t-11 20.5q0 12 9 22q6 7 39 44t55 64q14 17 29 17t27.5 -12.5t12.5 -27.5q0 -11 -14 -25q-42 -47 -102 -102z" />
    <glyph glyph-name="Rcommaaccent" unicode="&#x156;" horiz-adv-x="605" 
d="M89 624q0 52 68 54q60 2 98 2q48 0 73 -2q97 -6 154 -60t57 -144q0 -73 -38.5 -124.5t-102.5 -68.5l155 -215q14 -19 14 -30q0 -16 -13 -27.5t-31 -12.5q-18 0 -36 21l-168 243h-149q0 -30 0.5 -108.5t0.5 -104.5q0 -48 -37 -49q-27 0 -36.5 11.5t-9.5 38.5q2 62 2 469
q0 17 -0.5 53.5t-0.5 53.5zM294 607q-95 0 -125 -1l1 -274h120q76 0 121.5 33.5t46.5 107.5q0 65 -43.5 99.5t-120.5 34.5zM262 -195q0 7 14 21.5t18 28.5q2 4 -3 9t-11.5 14t-6.5 20q0 18 12.5 30.5t31.5 12.5q20 0 33.5 -13.5t13.5 -33.5q0 -55 -61 -101q-11 -7 -22 -7
q-19 0 -19 19z" />
    <glyph glyph-name="rcommaaccent" unicode="&#x157;" horiz-adv-x="357" 
d="M80 417q-1 41 41 41q31 0 34 -33l2 -70q24 53 65 80t83 27q46 0 46 -39q0 -17 -9.5 -28.5t-27.5 -11.5h-19q-56 0 -95.5 -49t-39.5 -123v-177q0 -38 -42 -38q-22 0 -31.5 12t-8.5 42q0 21 2 116t2 138q0 17 -1 55.5t-1 57.5zM62 -195q0 7 14 21.5t18 28.5q2 4 -3 9
t-11.5 14t-6.5 20q0 18 12.5 30.5t31.5 12.5q20 0 33.5 -13.5t13.5 -33.5q0 -55 -61 -101q-11 -7 -22 -7q-19 0 -19 19z" />
    <glyph glyph-name="Rcaron" unicode="&#x158;" horiz-adv-x="605" 
d="M89 624q0 52 68 54q60 2 98 2q48 0 73 -2q97 -6 154 -60t57 -144q0 -73 -38.5 -124.5t-102.5 -68.5l155 -215q14 -19 14 -30q0 -16 -13 -27.5t-31 -12.5q-18 0 -36 21l-168 243h-149q0 -30 0.5 -108.5t0.5 -104.5q0 -48 -37 -49q-27 0 -36.5 11.5t-9.5 38.5q2 62 2 469
q0 17 -0.5 53.5t-0.5 53.5zM294 607q-95 0 -125 -1l1 -274h120q76 0 121.5 33.5t46.5 107.5q0 65 -43.5 99.5t-120.5 34.5zM193 891q11 0 23 -12q25 -24 82 -84q18 18 37.5 39t29.5 31t17 16q10 9 23 9q9 0 18.5 -9.5t9.5 -18.5q0 -10 -11 -25l-87 -96q-15 -18 -37 -18
q-19 0 -34 16l-87 98q-13 17 -13 27q0 9 9 18t20 9z" />
    <glyph glyph-name="rcaron" unicode="&#x159;" horiz-adv-x="357" 
d="M80 417q-1 41 41 41q31 0 34 -33l2 -70q24 53 65 80t83 27q46 0 46 -39q0 -17 -9.5 -28.5t-27.5 -11.5h-19q-56 0 -95.5 -49t-39.5 -123v-177q0 -38 -42 -38q-22 0 -31.5 12t-8.5 42q0 21 2 116t2 138q0 17 -1 55.5t-1 57.5zM108 701q11 0 23 -12q25 -24 82 -84
q18 18 37.5 39t29.5 31t17 16q11 9 23 9q9 0 18.5 -9.5t9.5 -18.5q0 -10 -11 -25l-87 -96q-15 -18 -37 -18q-19 0 -34 16l-87 98q-13 17 -13 27q0 9 9 18t20 9z" />
    <glyph glyph-name="Sacute" unicode="&#x15a;" horiz-adv-x="563" 
d="M466 649q27 -13 27 -40q0 -14 -10.5 -26t-26.5 -12q-15 0 -37 11q-62 28 -128 28q-61 0 -103.5 -34t-42.5 -86q0 -18 4.5 -32t18.5 -24l22 -17q8 -6 33 -13t33 -9t39 -9q51 -12 86 -24t67.5 -33t49 -54t16.5 -77q0 -92 -66 -148.5t-173 -56.5q-104 -1 -185 41
q-37 17 -37 44q0 17 11 30t27 13q13 0 35 -10q76 -40 148 -40q68 0 112 33t44 89q0 53 -41.5 79t-117.5 41q-45 9 -77.5 20t-65 30t-49.5 49.5t-17 71.5q0 86 70 144t163 58q95 0 171 -37zM278 740q-13 -10 -23 -10q-11 0 -22 9.5t-11 20.5q0 12 9 22q6 7 39 44t55 64
q14 17 29 17t27.5 -12.5t12.5 -27.5q0 -11 -14 -25q-42 -47 -102 -102z" />
    <glyph glyph-name="sacute" unicode="&#x15b;" horiz-adv-x="454" 
d="M235 462q80 0 132 -24q27 -14 27 -32q0 -37 -34 -37q-8 0 -47 12.5t-80 12.5t-70 -20t-29 -51q0 -15 6.5 -24.5t23.5 -15.5t28 -8t38 -6q9 -1 14 -2q78 -10 122 -39t44 -92q0 -67 -50.5 -105t-132.5 -38q-62 0 -119 18.5t-57 41.5q0 42 35 42q8 0 56.5 -15.5t90.5 -15.5
t71 18t29 50q0 33 -26 47t-83 23q-30 4 -48.5 7.5t-43.5 12.5t-39.5 20.5t-25 31.5t-10.5 46q0 61 54 101.5t124 40.5zM223 550q-13 -10 -23 -10q-11 0 -22 9.5t-11 20.5q0 12 9 22q6 7 39 44t55 64q14 17 29 17t27.5 -12.5t12.5 -27.5q0 -11 -14 -25q-42 -47 -102 -102z
" />
    <glyph glyph-name="Scircumflex" unicode="&#x15c;" horiz-adv-x="563" 
d="M466 649q27 -13 27 -40q0 -14 -10.5 -26t-26.5 -12q-15 0 -37 11q-62 28 -128 28q-61 0 -103.5 -34t-42.5 -86q0 -18 4.5 -32t18.5 -24l22 -17q8 -6 33 -13t33 -9t39 -9q51 -12 86 -24t67.5 -33t49 -54t16.5 -77q0 -92 -66 -148.5t-173 -56.5q-104 -1 -185 41
q-37 17 -37 44q0 17 11 30t27 13q13 0 35 -10q76 -40 148 -40q68 0 112 33t44 89q0 53 -41.5 79t-117.5 41q-45 9 -77.5 20t-65 30t-49.5 49.5t-17 71.5q0 86 70 144t163 58q95 0 171 -37zM398 724q-6 0 -24 12l-82 84q-77 -81 -83 -86q-11 -9 -23 -9q-9 0 -18.5 9t-9.5 19
q0 12 11 25l86 96q15 18 38 18q19 0 34 -16l87 -98q13 -17 13 -26t-9 -18.5t-20 -9.5z" />
    <glyph glyph-name="scircumflex" unicode="&#x15d;" horiz-adv-x="454" 
d="M235 462q80 0 132 -24q27 -14 27 -32q0 -37 -34 -37q-8 0 -47 12.5t-80 12.5t-70 -20t-29 -51q0 -15 6.5 -24.5t23.5 -15.5t28 -8t38 -6q9 -1 14 -2q78 -10 122 -39t44 -92q0 -67 -50.5 -105t-132.5 -38q-62 0 -119 18.5t-57 41.5q0 42 35 42q8 0 56.5 -15.5t90.5 -15.5
t71 18t29 50q0 33 -26 47t-83 23q-30 4 -48.5 7.5t-43.5 12.5t-39.5 20.5t-25 31.5t-10.5 46q0 61 54 101.5t124 40.5zM343 534q-6 0 -24 12l-82 84q-77 -81 -83 -86q-10 -9 -23 -9q-9 0 -18.5 9t-9.5 19q0 12 11 25l86 96q15 18 38 18q19 0 34 -16l87 -98q13 -17 13 -26
t-9 -18.5t-20 -9.5z" />
    <glyph glyph-name="Scedilla" unicode="&#x15e;" horiz-adv-x="563" 
d="M237 -54l21 47q-97 3 -168 41q-37 17 -37 44q0 17 11 30t27 13q13 0 35 -10q76 -40 148 -40q68 0 112 33t44 89q0 53 -41.5 79t-117.5 41q-45 9 -77.5 20t-65 30t-49.5 49.5t-17 71.5q0 86 70 144t163 58q95 0 171 -37q27 -13 27 -40q0 -14 -10.5 -26t-26.5 -12
q-15 0 -37 11q-62 28 -128 28q-61 0 -103.5 -34t-42.5 -86q0 -18 4.5 -32t18.5 -25l22 -16q8 -6 33 -13t33 -9t39 -9q51 -12 86 -24t67.5 -33t49 -54t16.5 -77q0 -84 -56 -139t-148 -64l-15 -47q29 0 54 -20t25 -59q0 -44 -28 -69.5t-71 -25.5q-27 0 -53 13q-22 13 -22 31
q0 10 8 17.5t18 7.5q6 0 23 -7.5t31 -7.5q38 0 38 39q0 34 -45 34h-12q-14 1 -21.5 15.5t-2.5 29.5z" />
    <glyph glyph-name="scedilla" unicode="&#x15f;" horiz-adv-x="454" 
d="M181 -54l21 48q-58 4 -104.5 21t-46.5 38q0 42 35 42q8 0 56.5 -15.5t90.5 -15.5t71 18t29 50q0 33 -26 47t-83 23q-30 4 -48.5 7.5t-43.5 12.5t-39.5 20.5t-25 31.5t-10.5 46q0 61 54 101.5t124 40.5q80 0 132 -24q27 -14 27 -32q0 -37 -34 -37q-8 0 -47 12.5t-80 12.5
t-70 -20t-29 -51q0 -15 6.5 -24.5t23.5 -15.5t28 -8t38 -6q9 -1 14 -2q78 -10 122 -39t44 -92q0 -62 -43 -99t-114 -42l-15 -47q30 0 55 -20t25 -59q0 -44 -28 -69.5t-71 -25.5q-27 0 -53 13q-22 11 -22 28q0 11 8 19.5t18 8.5q6 0 23 -7.5t31 -7.5q38 0 38 39q0 34 -45 34
h-12q-14 1 -21.5 15.5t-2.5 29.5z" />
    <glyph glyph-name="Scaron" unicode="&#x160;" horiz-adv-x="563" 
d="M466 649q27 -13 27 -40q0 -14 -10.5 -26t-26.5 -12q-15 0 -37 11q-62 28 -128 28q-61 0 -103.5 -34t-42.5 -86q0 -18 4.5 -32t18.5 -24l22 -17q8 -6 33 -13t33 -9t39 -9q51 -12 86 -24t67.5 -33t49 -54t16.5 -77q0 -92 -66 -148.5t-173 -56.5q-104 -1 -185 41
q-37 17 -37 44q0 17 11 30t27 13q13 0 35 -10q76 -40 148 -40q68 0 112 33t44 89q0 53 -41.5 79t-117.5 41q-45 9 -77.5 20t-65 30t-49.5 49.5t-17 71.5q0 86 70 144t163 58q95 0 171 -37zM187 891q11 0 23 -12q25 -24 82 -84q18 18 37.5 39t29.5 31t17 16q10 9 23 9
q9 0 18.5 -9.5t9.5 -18.5q0 -10 -11 -25l-87 -96q-15 -18 -37 -18q-19 0 -34 16l-87 98q-13 17 -13 27q0 9 9 18t20 9z" />
    <glyph glyph-name="scaron" unicode="&#x161;" horiz-adv-x="454" 
d="M235 462q80 0 132 -24q27 -14 27 -32q0 -37 -34 -37q-8 0 -47 12.5t-80 12.5t-70 -20t-29 -51q0 -15 6.5 -24.5t23.5 -15.5t28 -8t38 -6q9 -1 14 -2q78 -10 122 -39t44 -92q0 -67 -50.5 -105t-132.5 -38q-62 0 -119 18.5t-57 41.5q0 42 35 42q8 0 56.5 -15.5t90.5 -15.5
t71 18t29 50q0 33 -26 47t-83 23q-30 4 -48.5 7.5t-43.5 12.5t-39.5 20.5t-25 31.5t-10.5 46q0 61 54 101.5t124 40.5zM132 701q11 0 23 -12q25 -24 82 -84q18 18 37.5 39t29.5 31t17 16q11 9 23 9q9 0 18.5 -9.5t9.5 -18.5q0 -10 -11 -25l-87 -96q-15 -18 -37 -18
q-19 0 -34 16l-87 98q-13 17 -13 27q0 9 9 18t20 9z" />
    <glyph glyph-name="uni0162" unicode="&#x162;" horiz-adv-x="569" 
d="M289 678q26 0 116.5 1t104.5 1q43 0 43 -35q0 -22 -11 -31.5t-36 -9.5h-181v-60q0 -45 0.5 -101t1.5 -167t2 -230q0 -40 -26 -48l-16 -50q29 0 54 -20t25 -59q0 -44 -27.5 -69.5t-70.5 -25.5q-26 0 -54 13q-22 13 -22 31q0 10 8 17.5t19 7.5q6 0 22.5 -7.5t30.5 -7.5
q38 0 38 39q0 34 -44 34h-12q-15 1 -21.5 15.5t-1.5 29.5l26 62q-12 9 -12 34l1 376q0 31 -0.5 92.5t-0.5 93.5q-98 0 -192 -1q-37 0 -37 38t39 38q8 0 31.5 -0.5t75.5 -0.5h127z" />
    <glyph glyph-name="uni0163" unicode="&#x163;" horiz-adv-x="357" 
d="M49 381q-35 0 -35 35q0 37 39 37h62l1 82q0 57 44 57q20 0 27 -10.5t7 -34.5q0 -34 -2 -94l101 1q37 0 37 -36t-37 -36h-100v-198q0 -61 14 -88.5t50 -27.5q14 0 28 4.5t21 4.5q14 0 22.5 -11t8.5 -25q0 -25 -20 -35q-25 -12 -67 -12l-17 -46q29 0 54 -20t25 -59
q0 -44 -28 -69.5t-71 -25.5q-27 0 -53 13q-22 13 -22 31q0 10 8 17.5t18 7.5q6 0 23 -7.5t31 -7.5q38 0 38 39q0 34 -45 34h-12q-14 1 -21.5 15.5t-2.5 29.5l24 54q-86 25 -86 170q0 34 1 106t1 105h-66z" />
    <glyph glyph-name="Tcaron" unicode="&#x164;" horiz-adv-x="569" 
d="M289 678q26 0 116.5 1t104.5 1q43 0 43 -35q0 -22 -11 -31.5t-36 -9.5h-181v-60q0 -45 0.5 -101t1.5 -167t2 -230q0 -49 -45 -49q-20 0 -29.5 10t-9.5 35l1 376q0 31 -0.5 92.5t-0.5 93.5q-98 0 -192 -1q-37 0 -37 38t39 38q8 0 31.5 -0.5t75.5 -0.5h127zM179 891
q11 0 23 -12q25 -24 82 -84q18 18 37.5 39t29.5 31t17 16q10 9 23 9q9 0 18.5 -9.5t9.5 -18.5q0 -10 -11 -25l-87 -96q-15 -18 -37 -18q-19 0 -34 16l-87 98q-13 17 -13 27q0 9 9 18t20 9z" />
    <glyph glyph-name="tcaron" unicode="&#x165;" horiz-adv-x="471" 
d="M399 602h-1q-15 1 -27.5 13t-13.5 32q0 22 15 37.5t37 15.5q27 0 43 -18.5t16 -49.5q0 -32 -21.5 -66t-52.5 -52q-15 -5 -16 -5q-9 0 -16 6.5t-7 15.5q0 12 10 20q34 23 34 47v4zM49 381q-35 0 -35 35q0 37 39 37h62l1 82q0 57 44 57q20 0 27 -10.5t7 -34.5q0 -34 -2 -94
l101 1q37 0 37 -36t-37 -36h-100v-198q0 -61 14 -88.5t50 -27.5q14 0 28 4.5t21 4.5q14 0 22.5 -11t8.5 -25q0 -25 -20 -35q-25 -12 -64 -12q-73 0 -106.5 41.5t-33.5 134.5q0 34 1 106t1 105h-66z" />
    <glyph glyph-name="Tbar" unicode="&#x166;" horiz-adv-x="565" 
d="M287 678q26 0 115.5 1t103.5 1q43 0 43 -35q0 -41 -47 -41h-178v-240h100q37 0 37 -35q0 -19 -9.5 -27.5t-33.5 -8.5h-94l2 -247q0 -49 -44 -49q-20 0 -29.5 10t-9.5 35l1 251h-100q-38 0 -38 34q0 37 44 37h94l-1 240q-96 0 -190 -1q-37 0 -37 39q0 16 10 26.5t29 10.5
q8 0 31 -0.5t74 -0.5h127z" />
    <glyph glyph-name="tbar" unicode="&#x167;" horiz-adv-x="357" 
d="M49 381q-35 0 -35 35q0 37 39 37h62l1 82q0 57 44 57q20 0 27 -10.5t7 -34.5q0 -34 -2 -94l101 1q37 0 37 -36t-37 -36h-100v-112l86 1q38 0 38 -31q0 -34 -44 -34h-80v-27q0 -60 14 -85.5t50 -25.5q14 0 28 4.5t21 4.5q14 0 22.5 -11t8.5 -25q0 -25 -20 -35
q-25 -12 -64 -12q-72 0 -105 40.5t-33 132.5v38h-56q-34 0 -34 31q0 34 41 34h48v111h-65z" />
    <glyph glyph-name="Utilde" unicode="&#x168;" horiz-adv-x="682" 
d="M82 275q0 74 0.5 200t0.5 155q0 46 39 46q23 0 33 -10.5t10 -32.5q-1 -50 -1 -358q0 -103 47 -153t133 -50q77 0 127 57t51 146q1 50 -0.5 187.5t-1.5 176.5q0 40 42 40q41 0 41 -49l1 -328q1 -146 -70 -227t-199 -81q-118 0 -185.5 73.5t-67.5 207.5zM255 775
q-4 -23 -31 -23q-14 0 -22 9.5t-7 25.5q2 37 26.5 59.5t62.5 22.5q27 0 48 -15t38.5 -30t36.5 -16q27 0 29 39q1 11 10.5 17.5t19.5 6.5q12 0 20.5 -8t8.5 -20q0 -47 -23.5 -70.5t-62.5 -23.5q-22 1 -40 10t-28.5 19.5t-25 19.5t-28.5 10q-30 0 -32 -33z" />
    <glyph glyph-name="utilde" unicode="&#x169;" horiz-adv-x="560" 
d="M116 457q36 0 36 -42q0 -30 -1 -94t-1 -105q0 -65 25.5 -107.5t81.5 -42.5q78 0 110.5 53.5t32.5 150.5l1 143q0 22 12 33.5t31 11.5q41 0 41 -44q0 -1 -1 -44t-1.5 -86.5t0.5 -102.5q0 -78 6 -147q0 -36 -40 -36q-33 0 -39 33q-1 14 -2 39.5t-1 28.5q-49 -107 -160 -107
q-89 0 -133.5 57.5t-44.5 155.5q0 27 0.5 103t0.5 102q0 47 46 47zM188 585q-4 -23 -31 -23q-14 0 -22 9.5t-7 25.5q2 37 26.5 59.5t62.5 22.5q27 0 48 -15t38.5 -30t36.5 -16q27 0 29 39q1 11 10.5 17.5t19.5 6.5q12 0 20.5 -8t8.5 -20q0 -47 -23.5 -70.5t-62.5 -23.5
q-22 1 -40 10t-28.5 19.5t-25 19.5t-28.5 10q-30 0 -32 -33z" />
    <glyph glyph-name="Umacron" unicode="&#x16a;" horiz-adv-x="682" 
d="M82 275q0 74 0.5 200t0.5 155q0 46 39 46q23 0 33 -10.5t10 -32.5q-1 -50 -1 -358q0 -103 47 -153t133 -50q77 0 127 57t51 146q1 50 -0.5 187.5t-1.5 176.5q0 40 42 40q41 0 41 -49l1 -328q1 -146 -70 -227t-199 -81q-118 0 -185.5 73.5t-67.5 207.5zM244 781
q-36 0 -36 34q0 36 47 36q12 0 40 -0.5t42 -0.5q24 0 61.5 1t48.5 1q36 0 38 -32q0 -38 -50 -38q-14 0 -48.5 0.5t-52.5 0.5t-48.5 -1t-41.5 -1z" />
    <glyph glyph-name="umacron" unicode="&#x16b;" horiz-adv-x="560" 
d="M116 457q36 0 36 -42q0 -30 -1 -94t-1 -105q0 -65 25.5 -107.5t81.5 -42.5q78 0 110.5 53.5t32.5 150.5l1 143q0 22 12 33.5t31 11.5q41 0 41 -44q0 -1 -1 -44t-1.5 -86.5t0.5 -102.5q0 -78 6 -147q0 -36 -40 -36q-33 0 -39 33q-1 14 -2 39.5t-1 28.5q-49 -107 -160 -107
q-89 0 -133.5 57.5t-44.5 155.5q0 27 0.5 103t0.5 102q0 47 46 47zM177 591q-36 0 -36 34q0 36 47 36q12 0 40 -0.5t42 -0.5q24 0 61.5 1t48.5 1q36 0 38 -32q0 -38 -50 -38q-14 0 -48.5 0.5t-52.5 0.5t-48.5 -1t-41.5 -1z" />
    <glyph glyph-name="Ubreve" unicode="&#x16c;" horiz-adv-x="682" 
d="M82 275q0 74 0.5 200t0.5 155q0 46 39 46q23 0 33 -10.5t10 -32.5q-1 -50 -1 -358q0 -103 47 -153t133 -50q77 0 127 57t51 146q1 50 -0.5 187.5t-1.5 176.5q0 40 42 40q41 0 41 -49l1 -328q1 -146 -70 -227t-199 -81q-118 0 -185.5 73.5t-67.5 207.5zM448 879
q13 0 21 -8.5t8 -20.5q0 -52 -37 -89.5t-93 -37.5q-52 0 -90.5 35.5t-39.5 85.5q0 15 8 24t22 9q12 0 19.5 -7.5t9.5 -18.5q2 -31 21 -49.5t51 -18.5q31 0 50.5 20.5t19.5 48.5q2 27 30 27z" />
    <glyph glyph-name="ubreve" unicode="&#x16d;" horiz-adv-x="560" 
d="M116 457q36 0 36 -42q0 -30 -1 -94t-1 -105q0 -65 25.5 -107.5t81.5 -42.5q78 0 110.5 53.5t32.5 150.5l1 143q0 22 12 33.5t31 11.5q41 0 41 -44q0 -1 -1 -44t-1.5 -86.5t0.5 -102.5q0 -78 6 -147q0 -36 -40 -36q-33 0 -39 33q-1 14 -2 39.5t-1 28.5q-49 -107 -160 -107
q-89 0 -133.5 57.5t-44.5 155.5q0 27 0.5 103t0.5 102q0 47 46 47zM381 689q13 0 21 -8.5t8 -20.5q0 -52 -37 -89.5t-93 -37.5q-52 0 -90.5 35.5t-39.5 85.5q0 15 8 24t22 9q12 0 19.5 -7.5t9.5 -18.5q2 -31 21 -49.5t51 -18.5q31 0 50.5 20.5t19.5 48.5q2 27 30 27z" />
    <glyph glyph-name="Uring" unicode="&#x16e;" horiz-adv-x="682" 
d="M82 275q0 74 0.5 200t0.5 155q0 46 39 46q23 0 33 -10.5t10 -32.5q-1 -50 -1 -358q0 -103 47 -153t133 -50q77 0 127 57t51 146q1 50 -0.5 187.5t-1.5 176.5q0 40 42 40q41 0 41 -49l1 -328q1 -146 -70 -227t-199 -81q-118 0 -185.5 73.5t-67.5 207.5zM345 902
q45 0 76.5 -27.5t31.5 -72.5q0 -46 -31 -78t-78 -32q-43 0 -76 29.5t-33 74.5q0 47 34 76.5t76 29.5zM401 801q-1 25 -17 39.5t-41 14.5q-23 0 -39.5 -15.5t-16.5 -40.5q0 -27 16 -42.5t42 -15.5q25 0 41 17.5t15 42.5z" />
    <glyph glyph-name="uring" unicode="&#x16f;" horiz-adv-x="560" 
d="M116 457q36 0 36 -42q0 -30 -1 -94t-1 -105q0 -65 25.5 -107.5t81.5 -42.5q78 0 110.5 53.5t32.5 150.5l1 143q0 22 12 33.5t31 11.5q41 0 41 -44q0 -1 -1 -44t-1.5 -86.5t0.5 -102.5q0 -78 6 -147q0 -36 -40 -36q-33 0 -39 33q-1 14 -2 39.5t-1 28.5q-49 -107 -160 -107
q-89 0 -133.5 57.5t-44.5 155.5q0 27 0.5 103t0.5 102q0 47 46 47zM278 732q45 0 76.5 -27.5t31.5 -72.5q0 -46 -31 -78t-78 -32q-43 0 -76 29.5t-33 74.5q0 47 34 76.5t76 29.5zM334 631q-1 25 -17 39.5t-41 14.5q-23 0 -39.5 -15.5t-16.5 -40.5q0 -27 16 -42.5t42 -15.5
q25 0 41 17.5t15 42.5z" />
    <glyph glyph-name="Uhungarumlaut" unicode="&#x170;" horiz-adv-x="682" 
d="M82 275q0 74 0.5 200t0.5 155q0 46 39 46q23 0 33 -10.5t10 -32.5q-1 -50 -1 -358q0 -103 47 -153t133 -50q77 0 127 57t51 146q1 50 -0.5 187.5t-1.5 176.5q0 40 42 40q41 0 41 -49l1 -328q1 -146 -70 -227t-199 -81q-118 0 -185.5 73.5t-67.5 207.5zM370 838l-83 -102
q-11 -14 -23 -14t-20.5 8t-8.5 20t7 20l71 107q12 19 29 19q15 0 26 -9.5t11 -24.5q0 -10 -9 -24zM525 833l-90 -104q-12 -12 -21 -12q-12 0 -21.5 7.5t-9.5 20.5q0 8 7 20l79 107q12 20 28 20q14 0 26 -8.5t12 -22.5q0 -15 -10 -28z" />
    <glyph glyph-name="uhungarumlaut" unicode="&#x171;" horiz-adv-x="560" 
d="M116 457q36 0 36 -42q0 -30 -1 -94t-1 -105q0 -65 25.5 -107.5t81.5 -42.5q78 0 110.5 53.5t32.5 150.5l1 143q0 22 12 33.5t31 11.5q41 0 41 -44q0 -1 -1 -44t-1.5 -86.5t0.5 -102.5q0 -78 6 -147q0 -36 -40 -36q-33 0 -39 33q-1 14 -2 39.5t-1 28.5q-49 -107 -160 -107
q-89 0 -133.5 57.5t-44.5 155.5q0 27 0.5 103t0.5 102q0 47 46 47zM298 648l-83 -102q-11 -14 -23 -14t-20.5 8t-8.5 20t7 20l71 107q12 19 29 19q15 0 26 -9.5t11 -24.5q0 -10 -9 -24zM453 643l-90 -104q-12 -12 -21 -12q-12 0 -21.5 7.5t-9.5 20.5q0 8 7 20l79 107
q12 20 28 20q14 0 26 -8.5t12 -22.5q0 -15 -10 -28z" />
    <glyph glyph-name="Uogonek" unicode="&#x172;" horiz-adv-x="682" 
d="M323 -110q0 -20 10 -31t26 -11q11 0 23.5 2.5t19.5 2.5q12 0 19 -9t7 -22q0 -40 -68 -40q-41 0 -70 25.5t-29 70.5q0 69 70 116q-119 5 -184 77t-65 204q0 74 0.5 200t0.5 155q0 46 39 46q23 0 33 -10.5t10 -32.5q-1 -50 -1 -358q0 -103 47 -153t133 -50q77 0 127 57
t51 146q1 50 -0.5 187.5t-1.5 176.5q0 40 42 40q41 0 41 -49l1 -328q1 -124 -53.5 -204t-149.5 -99q-78 -45 -78 -109z" />
    <glyph glyph-name="uogonek" unicode="&#x173;" horiz-adv-x="560" 
d="M387 -110q0 -42 36 -42q11 0 23 2.5t19 2.5q12 0 19 -9t7 -22q0 -40 -67 -40q-41 0 -70.5 25.5t-29.5 70.5q0 68 96 132q-6 8 -8 21l-5 68q-49 -107 -160 -107q-89 0 -133.5 57.5t-44.5 155.5q0 27 0.5 103t0.5 102q0 47 46 47q36 0 36 -42q0 -31 -1 -97t-1 -102
q0 -65 25.5 -107.5t81.5 -42.5q78 0 110.5 53.5t32.5 150.5l1 143q0 22 12 33.5t31 11.5q41 0 41 -44q0 -1 -1 -44t-1.5 -86.5t0.5 -102.5q0 -78 6 -147q0 -25 -20 -34q-40 -31 -61 -56t-21 -54z" />
    <glyph glyph-name="Wcircumflex" unicode="&#x174;" horiz-adv-x="845" 
d="M40 637q-4 19 8 32.5t33 13.5q35 0 42 -35l99 -518q30 80 145 449q15 51 53 51q16 0 28 -9.5t17 -22.5l153 -456q73 340 100 492q5 27 15 38t31 11q18 0 31 -12.5t9 -31.5l-129 -593q-5 -26 -14.5 -37.5t-34.5 -11.5q-15 0 -26 7.5t-15.5 16.5t-9.5 23l-154 455
q-37 -121 -148 -439q-7 -19 -12 -29.5t-18 -22t-29 -11.5q-32 1 -43.5 23t-23.5 84q-3 16 -5 25zM527 724q-6 0 -24 12l-82 84q-77 -81 -83 -86q-10 -9 -23 -9q-9 0 -18.5 9t-9.5 19q0 12 11 25l86 96q15 18 38 18q19 0 34 -16l87 -98q13 -17 13 -26t-9 -18.5t-20 -9.5z" />
    <glyph glyph-name="wcircumflex" unicode="&#x175;" horiz-adv-x="747" 
d="M35 416q0 2 -0.5 6t-0.5 5q0 15 15 25t31 10q26 0 35 -27q76 -291 90 -340q42 105 126 335q10 26 41 26q34 0 47 -36l123 -321l69 256l21 75q8 27 35 27q16 0 30.5 -10t14.5 -25q0 -10 -1 -14q-9 -24 -44 -141.5t-48 -157.5q-4 -13 -10 -31.5t-10 -30t-7 -19.5
q-13 -32 -48 -32q-36 0 -50 43q-8 18 -120 308l-107 -280q-16 -41 -29 -56.5t-39 -15.5q-24 0 -35.5 11t-18.5 35q-34 109 -68 229.5t-42 145.5zM477 534q-6 0 -24 12l-82 84q-77 -81 -83 -86q-10 -9 -23 -9q-9 0 -18.5 9t-9.5 19q0 12 11 25l86 96q15 18 38 18q19 0 34 -16
l87 -98q13 -17 13 -26t-9 -18.5t-20 -9.5z" />
    <glyph glyph-name="Ycircumflex" unicode="&#x176;" horiz-adv-x="599" 
d="M258 268l-5 12l-213 324q-15 24 -15 37q0 16 13.5 27.5t30.5 11.5q19 0 41 -33q190 -303 192 -305q6 9 20.5 33t61.5 99.5t111 177.5q19 29 39 29q17 0 29.5 -11t12.5 -26q0 -13 -14 -34l-221 -339q0 -42 -0.5 -118.5t-0.5 -118.5q0 -17 -12 -26.5t-30 -9.5t-30 11
t-12 30q0 11 0.5 34.5t0.5 35.5q0 33 0.5 83t0.5 76zM407 724q-6 0 -24 12l-82 84q-77 -81 -83 -86q-10 -9 -23 -9q-9 0 -18.5 9t-9.5 19q0 12 11 25l86 96q15 18 38 18q19 0 34 -16l87 -98q13 -17 13 -26t-9 -18.5t-20 -9.5z" />
    <glyph glyph-name="ycircumflex" unicode="&#x177;" horiz-adv-x="493" 
d="M249 96q60 134 135 326q7 19 15.5 28t24.5 9q17 0 30.5 -10.5t13.5 -25.5q0 -13 -7 -29q-83 -198 -231 -504q-62 -114 -145 -114q-68 0 -68 42q0 38 43 38q34 0 51.5 11.5t40.5 50.5q21 35 54 103l-39 81l-122 273q-16 34 -16 49q0 16 13.5 26t29.5 10q21 0 33 -20z
M353 534q-6 0 -24 12l-82 84q-77 -81 -83 -86q-10 -9 -23 -9q-9 0 -18.5 9t-9.5 19q0 12 11 25l86 96q15 18 38 18q19 0 34 -16l87 -98q13 -17 13 -26t-9 -18.5t-20 -9.5z" />
    <glyph glyph-name="Ydieresis" unicode="&#x178;" horiz-adv-x="599" 
d="M258 268l-5 12l-213 324q-15 24 -15 37q0 16 13.5 27.5t30.5 11.5q19 0 41 -33q190 -303 192 -305q6 9 20.5 33t61.5 99.5t111 177.5q19 29 39 29q17 0 29.5 -11t12.5 -26q0 -13 -14 -34l-221 -339q0 -42 -0.5 -118.5t-0.5 -118.5q0 -17 -12 -26.5t-30 -9.5t-30 11
t-12 30q0 11 0.5 34.5t0.5 35.5q0 33 0.5 83t0.5 76zM217 755q-20 0 -34 14.5t-14 35.5t15.5 36t37.5 15t36 -14.5t14 -35.5q0 -23 -15 -37t-40 -14zM376 757q-20 0 -34 14.5t-14 35.5t15 35.5t38 14.5q22 0 35.5 -14.5t13.5 -36.5t-15 -35.5t-39 -13.5z" />
    <glyph glyph-name="Zacute" unicode="&#x179;" 
d="M76 601q-37 0 -37 37q0 40 41 40h212q26 0 87.5 1t89.5 1q43 0 43 -38q0 -16 -23 -51l-42 -66l-237 -344l-73 -107q94 0 205 2.5t137 2.5q41 0 41 -40q0 -38 -52 -38q-61 -1 -372 -1q-55 0 -58 32q-2 13 1 23q9 33 52 91l60 85l194 274l63 98q-56 0 -166.5 -0.5
t-165.5 -1.5zM262 740q-13 -10 -23 -10q-11 0 -22 9.5t-11 20.5q0 12 9 22q6 7 39 44t55 64q14 17 29 17t27.5 -12.5t12.5 -27.5q0 -11 -14 -25q-42 -47 -102 -102z" />
    <glyph glyph-name="zacute" unicode="&#x17a;" horiz-adv-x="448" 
d="M259 384q-22 0 -82.5 -1.5t-96.5 -0.5q-34 0 -34 37q0 38 53 38q28 0 85 -1t84 -1q15 0 45.5 1t46.5 1q44 -1 45 -30q2 -13 -1 -24q-11 -25 -52 -74l-197 -235l-17 -23l181 4q54 3 57 3q38 0 38 -38q0 -39 -41 -40q-5 0 -26.5 0.5t-34.5 0.5q-19 0 -91.5 -1t-122.5 -1
q-29 0 -42.5 10.5t-13.5 36.5q0 17 14 38t50 64l200 237zM216 550q-13 -10 -23 -10q-11 0 -22 9.5t-11 20.5q0 12 9 22q6 7 39 44t55 64q14 17 29 17t27.5 -12.5t12.5 -27.5q0 -11 -14 -25q-42 -47 -102 -102z" />
    <glyph glyph-name="Zdotaccent" unicode="&#x17b;" 
d="M76 601q-37 0 -37 37q0 40 41 40h212q26 0 87.5 1t89.5 1q43 0 43 -38q0 -16 -23 -51l-42 -66l-237 -344l-73 -107q94 0 205 2.5t137 2.5q41 0 41 -40q0 -38 -52 -38q-61 -1 -372 -1q-55 0 -58 32q-2 13 1 23q9 33 52 91l60 85l194 274l63 98q-56 0 -166.5 -0.5
t-165.5 -1.5zM271 761q-23 0 -38 16.5t-14 41.5q2 24 18.5 37.5t39.5 13.5q25 0 39 -15.5t14 -38.5q0 -26 -16.5 -40.5t-42.5 -14.5z" />
    <glyph glyph-name="zdotaccent" unicode="&#x17c;" horiz-adv-x="448" 
d="M259 384q-22 0 -82.5 -1.5t-96.5 -0.5q-34 0 -34 37q0 38 53 38q28 0 85 -1t84 -1q15 0 45.5 1t46.5 1q44 -1 45 -30q2 -13 -1 -24q-11 -25 -52 -74l-197 -235l-17 -23l181 4q54 3 57 3q38 0 38 -38q0 -39 -41 -40q-5 0 -26.5 0.5t-34.5 0.5q-19 0 -91.5 -1t-122.5 -1
q-29 0 -42.5 10.5t-13.5 36.5q0 17 14 38t50 64l200 237zM225 571q-23 0 -38 16.5t-14 41.5q2 24 18.5 37.5t39.5 13.5q25 0 39 -15.5t14 -38.5q0 -26 -16.5 -40.5t-42.5 -14.5z" />
    <glyph glyph-name="Zcaron" unicode="&#x17d;" 
d="M76 601q-37 0 -37 37q0 40 41 40h212q26 0 87.5 1t89.5 1q43 0 43 -38q0 -16 -23 -51l-42 -66l-237 -344l-73 -107q94 0 205 2.5t137 2.5q41 0 41 -40q0 -38 -52 -38q-61 -1 -372 -1q-55 0 -58 32q-2 13 1 23q9 33 52 91l60 85l194 274l63 98q-56 0 -166.5 -0.5
t-165.5 -1.5zM171 891q11 0 23 -12q25 -24 82 -84q18 18 37.5 39t29.5 31t17 16q10 9 23 9q9 0 18.5 -9.5t9.5 -18.5q0 -10 -11 -25l-87 -96q-15 -18 -37 -18q-19 0 -34 16l-87 98q-13 17 -13 27q0 9 9 18t20 9z" />
    <glyph glyph-name="zcaron" unicode="&#x17e;" horiz-adv-x="448" 
d="M259 384q-22 0 -82.5 -1.5t-96.5 -0.5q-34 0 -34 37q0 38 53 38q28 0 85 -1t84 -1q15 0 45.5 1t46.5 1q44 -1 45 -30q2 -13 -1 -24q-11 -25 -52 -74l-197 -235l-17 -23l181 4q54 3 57 3q38 0 38 -38q0 -39 -41 -40q-5 0 -26.5 0.5t-34.5 0.5q-19 0 -91.5 -1t-122.5 -1
q-29 0 -42.5 10.5t-13.5 36.5q0 17 14 38t50 64l200 237zM125 701q11 0 23 -12q25 -24 82 -84q18 18 37.5 39t29.5 31t17 16q10 9 23 9q9 0 18.5 -9.5t9.5 -18.5q0 -10 -11 -25l-87 -96q-15 -18 -37 -18q-19 0 -34 16l-87 98q-13 17 -13 27q0 9 9 18t20 9z" />
    <glyph glyph-name="florin" unicode="&#x192;" horiz-adv-x="433" 
d="M354 377h-110l-46 -384q-6 -50 -15.5 -85t-28.5 -69.5t-53.5 -52.5t-83.5 -18q-23 0 -44 8q-25 10 -25 37q0 17 10 27.5t26 10.5q8 0 21 -3t20 -3q26 0 43.5 12.5t27 38t14 47t8.5 55.5l46 380h-64q-26 0 -37 7t-11 27q0 40 49 40h73q6 49 12.5 82.5t22 74t38.5 65
t61.5 41.5t90.5 17q59 0 59 -41q0 -14 -8.5 -24t-22.5 -10q-11 0 -26 2.5t-28 1.5q-33 -1 -56 -19.5t-35.5 -54.5t-18.5 -63.5t-11 -71.5h105q38 0 38 -38q1 -16 -10.5 -26.5t-30.5 -10.5z" />
    <glyph glyph-name="AEacute" unicode="&#x1fc;" horiz-adv-x="906" 
d="M18 40q0 18 23 46q82 114 200.5 294.5t171.5 254.5q30 42 73 42q12 0 77 0.5t146 1t115 0.5q45 0 45 -36q0 -33 -29 -37q-164 -2 -290 -2q0 -22 -0.5 -61.5t-0.5 -57.5l-1 -94v-24h50q20 0 80.5 0.5t104.5 0.5q42 0 42 -35q0 -36 -41 -36q-28 0 -126.5 -0.5t-110.5 -0.5
v-69q0 -25 -0.5 -77t-0.5 -77q61 0 283 4q41 0 41 -37q0 -40 -45 -42h-252q-69 0 -89 10t-21 51l1 123l-254 2q-15 -20 -101 -153q-23 -34 -49 -34q-17 0 -30 12.5t-12 30.5zM467 578l-218 -325l217 1q0 62 1 93v80q0 25 -0.5 75t0.5 76zM538 740q-13 -10 -23 -10
q-11 0 -22 9.5t-11 20.5q0 12 9 22q6 7 39 44t55 64q14 17 29 17t27.5 -12.5t12.5 -27.5q0 -11 -14 -25q-42 -47 -102 -102z" />
    <glyph glyph-name="aeacute" unicode="&#x1fd;" horiz-adv-x="820" 
d="M509 205h-59q0 -54 38.5 -94.5t99.5 -40.5q58 0 110 31q21 13 33 13q13 0 24 -13t11 -27q0 -31 -55.5 -56t-130.5 -25q-54 0 -102 30t-72 76q-56 -106 -173 -106q-82 0 -134.5 36t-52.5 101q0 66 48.5 101t133.5 36q39 1 139 -4q-1 55 -37 90t-92 35q-16 0 -33.5 -3
t-27.5 -6t-28.5 -9t-23.5 -8q-17 -4 -31 5.5t-14 27.5q0 22 22 35q56 32 143 32q57 -1 101.5 -28.5t67.5 -74.5q27 46 73.5 74.5t99.5 28.5q81 0 136.5 -58t55.5 -128q0 -40 -12.5 -54.5t-62.5 -15.5h-102q-66 0 -93 -1zM591 391q-57 0 -96 -39t-44 -90q152 0 210 1
q42 0 42 6q0 51 -33 86.5t-79 35.5zM235 64q51 0 89.5 34.5t40.5 86.5l1 21q-50 3 -134 3q-108 1 -108 -73q0 -35 31.5 -53.5t79.5 -18.5zM413 550q-13 -10 -23 -10q-11 0 -22 9.5t-11 20.5q0 12 9 22q6 7 39 44t55 64q14 17 29 17t27.5 -12.5t12.5 -27.5q0 -11 -14 -25
q-42 -47 -102 -102z" />
    <glyph glyph-name="Oslashacute" unicode="&#x1fe;" horiz-adv-x="746" 
d="M378 686q79 0 153 -40l27 39q9 15 24 15q11 0 20 -8.5t9 -19.5q0 -9 -5 -17l-27 -41q56 -46 88.5 -115t32.5 -151q0 -151 -92.5 -254t-233.5 -103q-92 0 -169 47l-33 -50q-11 -16 -23 -16q-11 0 -21 8.5t-10 19.5q0 8 8 21l33 51q-108 96 -108 250q0 82 28 152t74.5 116
t105 71.5t119.5 24.5zM618 345q-1 121 -86 197l-283 -435q60 -37 132 -37q99 0 168.5 82.5t68.5 192.5zM133 332q0 -114 73 -189l281 433q-56 32 -120 32q-94 0 -164 -79t-70 -197zM360 740q-13 -10 -23 -10q-11 0 -22 9.5t-11 20.5q0 12 9 22q6 7 39 44t55 64q14 17 29 17
t27.5 -12.5t12.5 -27.5q0 -11 -14 -25q-42 -47 -102 -102z" />
    <glyph glyph-name="oslashacute" unicode="&#x1ff;" 
d="M293 465q15 0 26 -7q34 -6 61 -21l20 32q10 18 24 18q9 0 18 -7t9 -16q0 -10 -14 -32l-14 -22q79 -67 79 -183q0 -102 -68 -169t-169 -67q-41 0 -88 21l-22 -36q-8 -15 -21 -15q-10 0 -19 7.5t-9 17.5q0 9 9 22l17 28q-89 67 -89 178t68 180.5t182 70.5zM125 213
q0 -65 50 -108l166 268q-27 15 -69 17q-66 -3 -106.5 -50t-40.5 -127zM419 229q0 69 -39 111l-162 -263q27 -11 45 -11q64 0 110 45t46 118zM257 550q-13 -10 -23 -10q-11 0 -22 9.5t-11 20.5q0 12 9 22q6 7 39 44t55 64q14 17 29 17t27.5 -12.5t12.5 -27.5q0 -11 -14 -25
q-42 -47 -102 -102z" />
    <glyph glyph-name="uni0218" unicode="&#x218;" horiz-adv-x="563" 
d="M466 649q27 -13 27 -40q0 -14 -10.5 -26t-26.5 -12q-15 0 -37 11q-62 28 -128 28q-61 0 -103.5 -34t-42.5 -86q0 -18 4.5 -32t18.5 -24l22 -17q8 -6 33 -13t33 -9t39 -9q51 -12 86 -24t67.5 -33t49 -54t16.5 -77q0 -92 -66 -148.5t-173 -56.5q-104 -1 -185 41
q-37 17 -37 44q0 17 11 30t27 13q13 0 35 -10q76 -40 148 -40q68 0 112 33t44 89q0 53 -41.5 79t-117.5 41q-45 9 -77.5 20t-65 30t-49.5 49.5t-17 71.5q0 86 70 144t163 58q95 0 171 -37zM235 -195q0 7 14 21.5t18 28.5q2 4 -3 9t-11.5 14t-6.5 20q0 18 13 30.5t31 12.5
q20 0 33.5 -13.5t13.5 -33.5q0 -55 -61 -101q-10 -7 -22 -7q-19 0 -19 19z" />
    <glyph glyph-name="uni0219" unicode="&#x219;" horiz-adv-x="454" 
d="M235 462q80 0 132 -24q27 -14 27 -32q0 -37 -34 -37q-8 0 -47 12.5t-80 12.5t-70 -20t-29 -51q0 -15 6.5 -24.5t23.5 -15.5t28 -8t38 -6q9 -1 14 -2q78 -10 122 -39t44 -92q0 -67 -50.5 -105t-132.5 -38q-62 0 -119 18.5t-57 41.5q0 42 35 42q8 0 56.5 -15.5t90.5 -15.5
t71 18t29 50q0 33 -26 47t-83 23q-30 4 -48.5 7.5t-43.5 12.5t-39.5 20.5t-25 31.5t-10.5 46q0 61 54 101.5t124 40.5zM180 -195q0 7 14 21.5t18 28.5q2 4 -3 9t-11.5 14t-6.5 20q0 18 12.5 30.5t31.5 12.5q20 0 33.5 -13.5t13.5 -33.5q0 -55 -61 -101q-11 -7 -22 -7
q-19 0 -19 19z" />
    <glyph glyph-name="uni021A" unicode="&#x21a;" horiz-adv-x="569" 
d="M289 678q26 0 116.5 1t104.5 1q43 0 43 -35q0 -22 -11 -31.5t-36 -9.5h-181v-60q0 -45 0.5 -101t1.5 -167t2 -230q0 -49 -45 -49q-20 0 -29.5 10t-9.5 35l1 376q0 31 -0.5 92.5t-0.5 93.5q-98 0 -192 -1q-37 0 -37 38t39 38q8 0 31.5 -0.5t75.5 -0.5h127zM230 -195
q0 7 14 21.5t18 28.5q2 4 -3 9t-11.5 14t-6.5 20q0 18 12.5 30.5t31.5 12.5q20 0 33.5 -13.5t13.5 -33.5q0 -55 -61 -101q-11 -7 -22 -7q-19 0 -19 19z" />
    <glyph glyph-name="uni021B" unicode="&#x21b;" horiz-adv-x="357" 
d="M49 381q-35 0 -35 35q0 37 39 37h62l1 82q0 57 44 57q20 0 27 -10.5t7 -34.5q0 -34 -2 -94l101 1q37 0 37 -36t-37 -36h-100v-198q0 -61 14 -88.5t50 -27.5q14 0 28 4.5t21 4.5q14 0 22.5 -11t8.5 -25q0 -25 -20 -35q-25 -12 -64 -12q-73 0 -106.5 41.5t-33.5 134.5
q0 34 1 106t1 105h-66zM160 -195q0 7 14 21.5t18 28.5q2 4 -3 9t-11.5 14t-6.5 20q0 18 12.5 30.5t31.5 12.5q20 0 33.5 -13.5t13.5 -33.5q0 -55 -61 -101q-11 -7 -22 -7q-19 0 -19 19z" />
    <glyph glyph-name="dotlessj" unicode="&#x237;" horiz-adv-x="229" 
d="M75 424q0 16 12 25.5t29 9.5q41 0 41 -34v-255q0 -146 -3 -260q-2 -58 -46 -100t-109 -43q-85 0 -85 46q0 19 9.5 30.5t22.5 11.5q9 0 26 -5t31 -5q66 0 71 97q3 43 3 309q-3 139 -2 173z" />
    <glyph glyph-name="circumflex" unicode="&#x2c6;" horiz-adv-x="348" 
d="M280 534q-6 0 -24 12l-82 84q-77 -81 -83 -86q-11 -9 -23 -9q-9 0 -18.5 9t-9.5 19q0 12 11 25l86 96q15 18 38 18q19 0 34 -16l87 -98q13 -17 13 -26t-9 -18.5t-20 -9.5z" />
    <glyph glyph-name="caron" unicode="&#x2c7;" horiz-adv-x="342" 
d="M66 702q11 0 23 -12q25 -24 82 -84q18 18 37.5 39t29.5 31t17 16q11 9 23 9q9 0 18.5 -9.5t9.5 -18.5q0 -10 -11 -25l-87 -96q-15 -18 -37 -18q-19 0 -34 16l-87 98q-13 17 -13 27q0 9 9 18t20 9z" />
    <glyph glyph-name="breve" unicode="&#x2d8;" horiz-adv-x="346" 
d="M275 690q13 0 21 -8.5t8 -20.5q0 -52 -37 -89.5t-93 -37.5q-52 0 -90.5 35.5t-39.5 85.5q0 15 8 24t22 9q12 0 19.5 -7.5t9.5 -18.5q2 -31 21 -49.5t51 -18.5q31 0 50.5 20.5t19.5 48.5q2 27 30 27z" />
    <glyph glyph-name="dotaccent" unicode="&#x2d9;" horiz-adv-x="188" 
d="M90 571q-23 0 -38 16.5t-14 41.5q2 24 18.5 37.5t39.5 13.5q25 0 39 -15.5t14 -38.5q0 -26 -16.5 -40.5t-42.5 -14.5z" />
    <glyph glyph-name="ring" unicode="&#x2da;" horiz-adv-x="298" 
d="M150 732q45 0 76.5 -27.5t31.5 -72.5q0 -46 -31 -78t-78 -32q-43 0 -76 29.5t-33 74.5q0 47 34 76.5t76 29.5zM206 631q-1 25 -17 39.5t-41 14.5q-23 0 -39.5 -15.5t-16.5 -40.5q0 -27 16 -42.5t42 -15.5q25 0 41 17.5t15 42.5z" />
    <glyph glyph-name="ogonek" unicode="&#x2db;" horiz-adv-x="246" 
d="M102 -110q0 -20 10 -31t26 -11q11 0 23.5 2.5t19.5 2.5q11 0 18 -9t7 -22q0 -40 -67 -40q-41 0 -70 25.5t-29 70.5q0 70 98 134l60 -1q-35 -28 -50 -41t-30.5 -36t-15.5 -44z" />
    <glyph glyph-name="tilde" unicode="&#x2dc;" horiz-adv-x="381" 
d="M101 585q-4 -23 -31 -23q-14 0 -22 9.5t-7 25.5q2 37 26.5 59.5t62.5 22.5q27 0 48 -15t38.5 -30t36.5 -16q27 0 29 39q1 11 10.5 17.5t19.5 6.5q12 0 20.5 -8t8.5 -20q0 -47 -23.5 -70.5t-62.5 -23.5q-22 1 -40 10t-28.5 19.5t-25 19.5t-28.5 10q-30 0 -32 -33z" />
    <glyph glyph-name="hungarumlaut" unicode="&#x2dd;" horiz-adv-x="374" 
d="M172 648l-83 -102q-11 -14 -23 -14t-20.5 8t-8.5 20t7 20l71 107q12 19 29 19q15 0 26 -9.5t11 -24.5q0 -10 -9 -24zM327 643l-90 -104q-12 -12 -21 -12q-12 0 -21.5 7.5t-9.5 20.5q0 8 7 20l79 107q12 20 28 20q14 0 26 -8.5t12 -22.5q0 -15 -10 -28z" />
    <glyph glyph-name="pi" unicode="&#x3c0;" horiz-adv-x="654" 
d="M441 607h-85l-127 -1v-62q0 -101 4 -498q0 -49 -45 -49q-20 0 -29.5 10t-9.5 35q0 62 1 188t1 188q0 32 -0.5 93.5t-0.5 93.5q-13 -1 -43.5 -1t-42.5 -1q-37 0 -37 37q0 17 10 27.5t29 11.5q20 -1 65 -1t64 -1q220 4 394 4q37 0 37 -36q0 -21 -7.5 -30t-26.5 -9h-72
l-1 -62q0 -46 2 -192t3 -306q1 -49 -45 -49q-39 0 -38 46v375v189z" />
    <glyph glyph-name="Wgrave" unicode="&#x1e80;" horiz-adv-x="845" 
d="M40 637q-4 19 8 32.5t33 13.5q35 0 42 -35l99 -518q30 80 145 449q15 51 53 51q16 0 28 -9.5t17 -22.5l153 -456q73 340 100 492q5 27 15 38t31 11q18 0 31 -12.5t9 -31.5l-129 -593q-5 -26 -14.5 -37.5t-34.5 -11.5q-15 0 -26 7.5t-15.5 16.5t-9.5 23l-154 455
q-37 -121 -148 -439q-7 -19 -12 -29.5t-18 -22t-29 -11.5q-32 1 -43.5 23t-23.5 84q-3 16 -5 25zM441 741q-67 65 -100 103q-13 16 -13 29t12.5 24t25.5 11q19 0 31 -17l88 -109q9 -10 9 -22q0 -10 -9.5 -19.5t-20.5 -9.5q-10 0 -23 10z" />
    <glyph glyph-name="wgrave" unicode="&#x1e81;" horiz-adv-x="747" 
d="M35 416q0 2 -0.5 6t-0.5 5q0 15 15 25t31 10q26 0 35 -27q76 -291 90 -340q42 105 126 335q10 26 41 26q34 0 47 -36l123 -321l69 256l21 75q8 27 35 27q16 0 30.5 -10t14.5 -25q0 -10 -1 -14q-9 -24 -44 -141.5t-48 -157.5q-4 -13 -10 -31.5t-10 -30t-7 -19.5
q-13 -32 -48 -32q-36 0 -50 43q-8 18 -120 308l-107 -280q-16 -41 -29 -56.5t-39 -15.5q-24 0 -35.5 11t-18.5 35q-34 109 -68 229.5t-42 145.5zM391 551q-67 65 -100 103q-13 16 -13 29t12.5 24t25.5 11q19 0 31 -17l88 -109q9 -11 9 -22q0 -10 -9.5 -19.5t-20.5 -9.5
q-10 0 -23 10z" />
    <glyph glyph-name="Wacute" unicode="&#x1e82;" horiz-adv-x="845" 
d="M40 637q-4 19 8 32.5t33 13.5q35 0 42 -35l99 -518q30 80 145 449q15 51 53 51q16 0 28 -9.5t17 -22.5l153 -456q73 340 100 492q5 27 15 38t31 11q18 0 31 -12.5t9 -31.5l-129 -593q-5 -26 -14.5 -37.5t-34.5 -11.5q-15 0 -26 7.5t-15.5 16.5t-9.5 23l-154 455
q-37 -121 -148 -439q-7 -19 -12 -29.5t-18 -22t-29 -11.5q-32 1 -43.5 23t-23.5 84q-3 16 -5 25zM407 740q-13 -10 -23 -10q-11 0 -22 9.5t-11 20.5q0 12 9 22q6 7 39 44t55 64q14 17 29 17t27.5 -12.5t12.5 -27.5q0 -11 -14 -25q-42 -47 -102 -102z" />
    <glyph glyph-name="wacute" unicode="&#x1e83;" horiz-adv-x="747" 
d="M35 416q0 2 -0.5 6t-0.5 5q0 15 15 25t31 10q26 0 35 -27q76 -291 90 -340q42 105 126 335q10 26 41 26q34 0 47 -36l123 -321l69 256l21 75q8 27 35 27q16 0 30.5 -10t14.5 -25q0 -10 -1 -14q-9 -24 -44 -141.5t-48 -157.5q-4 -13 -10 -31.5t-10 -30t-7 -19.5
q-13 -32 -48 -32q-36 0 -50 43q-8 18 -120 308l-107 -280q-16 -41 -29 -56.5t-39 -15.5q-24 0 -35.5 11t-18.5 35q-34 109 -68 229.5t-42 145.5zM357 550q-13 -10 -23 -10q-11 0 -22 9.5t-11 20.5q0 12 9 22q6 7 39 44t55 64q14 17 29 17t27.5 -12.5t12.5 -27.5
q0 -11 -14 -25q-42 -47 -102 -102z" />
    <glyph glyph-name="Wdieresis" unicode="&#x1e84;" horiz-adv-x="845" 
d="M40 637q-4 19 8 32.5t33 13.5q35 0 42 -35l99 -518q30 80 145 449q15 51 53 51q16 0 28 -9.5t17 -22.5l153 -456q73 340 100 492q5 27 15 38t31 11q18 0 31 -12.5t9 -31.5l-129 -593q-5 -26 -14.5 -37.5t-34.5 -11.5q-15 0 -26 7.5t-15.5 16.5t-9.5 23l-154 455
q-37 -121 -148 -439q-7 -19 -12 -29.5t-18 -22t-29 -11.5q-32 1 -43.5 23t-23.5 84q-3 16 -5 25zM337 755q-20 0 -34 14.5t-14 35.5t15.5 36t37.5 15t36 -14.5t14 -35.5q0 -23 -15 -37t-40 -14zM496 757q-20 0 -34 14.5t-14 35.5t15 35.5t38 14.5q22 0 35.5 -14.5
t13.5 -36.5t-15 -35.5t-39 -13.5z" />
    <glyph glyph-name="wdieresis" unicode="&#x1e85;" horiz-adv-x="747" 
d="M35 416q0 2 -0.5 6t-0.5 5q0 15 15 25t31 10q26 0 35 -27q76 -291 90 -340q42 105 126 335q10 26 41 26q34 0 47 -36l123 -321l69 256l21 75q8 27 35 27q16 0 30.5 -10t14.5 -25q0 -10 -1 -14q-9 -24 -44 -141.5t-48 -157.5q-4 -13 -10 -31.5t-10 -30t-7 -19.5
q-13 -32 -48 -32q-36 0 -50 43q-8 18 -120 308l-107 -280q-16 -41 -29 -56.5t-39 -15.5q-24 0 -35.5 11t-18.5 35q-34 109 -68 229.5t-42 145.5zM287 565q-20 0 -34 14.5t-14 35.5t15.5 36t37.5 15t36 -14.5t14 -35.5q0 -23 -15 -37t-40 -14zM446 567q-20 0 -34 14.5
t-14 35.5t15 35.5t38 14.5q22 0 35.5 -14.5t13.5 -36.5t-15 -35.5t-39 -13.5z" />
    <glyph glyph-name="uni1E9E" unicode="&#x1e9e;" horiz-adv-x="669" 
d="M335 402l140 187q-14 7 -57.5 14t-72.5 7q-81 0 -130.5 -61t-49.5 -159q0 -33 0.5 -160t0.5 -177q0 -30 -10 -42.5t-36 -12.5q-21 -1 -30 11.5t-9 41.5q0 14 0.5 40t0.5 97v194q0 144 76 225t195 81q50 0 107.5 -12.5t79.5 -25.5q27 -15 27 -44q0 -18 -9 -30l-151 -190
q213 -48 213 -198q-1 -79 -57.5 -136t-144.5 -57q-60 0 -105 17.5t-45 41.5q0 18 10 30t28 12q8 0 43 -12.5t72 -12.5q50 0 84 33t34 79q0 62 -43 95t-125 48q-48 9 -48 42q0 19 12 34z" />
    <glyph glyph-name="Ygrave" unicode="&#x1ef2;" horiz-adv-x="599" 
d="M258 268l-5 12l-213 324q-15 24 -15 37q0 16 13.5 27.5t30.5 11.5q19 0 41 -33q190 -303 192 -305q6 9 20.5 33t61.5 99.5t111 177.5q19 29 39 29q17 0 29.5 -11t12.5 -26q0 -13 -14 -34l-221 -339q0 -42 -0.5 -118.5t-0.5 -118.5q0 -17 -12 -26.5t-30 -9.5t-30 11
t-12 30q0 11 0.5 34.5t0.5 35.5q0 33 0.5 83t0.5 76zM321 741q-67 65 -100 103q-13 16 -13 29t12.5 24t25.5 11q19 0 31 -17l88 -109q9 -10 9 -22q0 -10 -9.5 -19.5t-20.5 -9.5q-10 0 -23 10z" />
    <glyph glyph-name="ygrave" unicode="&#x1ef3;" horiz-adv-x="493" 
d="M249 96q60 134 135 326q7 19 15.5 28t24.5 9q17 0 30.5 -10.5t13.5 -25.5q0 -13 -7 -29q-83 -198 -231 -504q-62 -114 -145 -114q-68 0 -68 42q0 38 43 38q34 0 51.5 11.5t40.5 50.5q21 35 54 103l-39 81l-122 273q-16 34 -16 49q0 16 13.5 26t29.5 10q21 0 33 -20z
M267 551q-67 65 -100 103q-13 16 -13 29t12.5 24t25.5 11q19 0 31 -17l88 -109q9 -11 9 -22q0 -10 -9.5 -19.5t-20.5 -9.5q-10 0 -23 10z" />
    <glyph glyph-name="endash" unicode="&#x2013;" horiz-adv-x="500" 
d="M48 202q-19 0 -28.5 11.5t-8.5 27.5q0 37 50 37q35 0 203.5 -0.5t186.5 -0.5q38 0 38 -36q0 -39 -53 -39h-388z" />
    <glyph glyph-name="emdash" unicode="&#x2014;" horiz-adv-x="1000" 
d="M64 203q-19 0 -28.5 11t-8.5 27q0 38 50 38q35 0 438 -0.5t421 -0.5q37 0 37 -37q0 -20 -12 -29t-41 -9h-856z" />
    <glyph glyph-name="quoteleft" unicode="&#x2018;" horiz-adv-x="201" 
d="M107 604h2q15 -1 28 -14t13 -33q1 -23 -15.5 -39.5t-38.5 -16.5q-27 0 -44 19.5t-17 51.5q0 33 22 68t55 55q10 5 16 5q9 0 17 -7t8 -16q0 -10 -11 -21q-35 -25 -35 -48v-4z" />
    <glyph glyph-name="quoteright" unicode="&#x2019;" horiz-adv-x="201" 
d="M87 598h-1q-16 1 -29 14t-13 33q0 23 16 39t38 16q28 0 44.5 -19t16.5 -51q0 -33 -22 -68.5t-54 -54.5q-15 -5 -17 -5q-9 0 -16.5 6.5t-7.5 16.5q0 13 11 20q34 25 34 49v4z" />
    <glyph glyph-name="quotesinglbase" unicode="&#x201a;" horiz-adv-x="201" 
d="M87 0h-1q-16 1 -29 14t-13 34q0 22 16 38.5t38 16.5q28 0 44.5 -19t16.5 -52t-22 -68t-54 -54q-9 -6 -17 -6q-9 0 -16.5 7t-7.5 16q0 14 11 21q34 26 34 48v4z" />
    <glyph glyph-name="quotedblleft" unicode="&#x201c;" horiz-adv-x="350" 
d="M107 604h2q15 -1 28 -14t13 -34q1 -22 -15.5 -38.5t-38.5 -16.5q-27 0 -44 19t-17 52t22 68t55 54q6 6 16 6q9 0 17 -7t8 -16q0 -12 -11 -21q-35 -25 -35 -48v-4zM258 604h2q15 -1 28 -14t13 -34q1 -22 -15.5 -38.5t-38.5 -16.5q-27 0 -44 19t-17 52t22 68t55 54
q6 6 16 6q9 0 17 -7t8 -16q0 -12 -11 -21q-35 -25 -35 -48v-4z" />
    <glyph glyph-name="quotedblright" unicode="&#x201d;" horiz-adv-x="352" 
d="M87 597h-1q-16 1 -29 14t-13 33q0 23 16 39.5t38 16.5q28 0 44.5 -19.5t16.5 -51.5q0 -33 -22 -68t-54 -55q-15 -5 -17 -5q-9 0 -16.5 6.5t-7.5 16.5q0 12 11 21q34 25 34 48v4zM238 597h-1q-16 1 -29 14t-13 33q0 23 16 39.5t38 16.5q28 0 44.5 -19.5t16.5 -51.5
q0 -33 -22 -68t-54 -55q-15 -5 -17 -5q-9 0 -16.5 6.5t-7.5 16.5q0 12 11 21q34 25 34 48v4z" />
    <glyph glyph-name="quotedblbase" unicode="&#x201e;" horiz-adv-x="351" 
d="M87 0h-1q-16 1 -29 14t-13 34q0 22 16 38.5t38 16.5q28 0 44.5 -19t16.5 -52t-22 -68t-54 -54q-9 -6 -17 -6q-9 0 -16.5 7t-7.5 16q0 14 11 21q34 26 34 48v4zM238 0h-2q-16 1 -28.5 14t-13.5 34q0 22 16.5 38.5t38.5 16.5q27 0 43.5 -19t16.5 -52t-22 -68t-54 -54
q-9 -6 -16 -6q-9 0 -17 7t-8 16q0 12 11 21q35 25 35 48v4z" />
    <glyph glyph-name="dagger" unicode="&#x2020;" horiz-adv-x="515" 
d="M69 401q-18 0 -28 10.5t-9 27.5q1 20 11 29t35 9q50 0 140 -1l-2 203q0 44 39 44q25 0 33.5 -10t8.5 -42q0 -38 -1.5 -106t-1.5 -90l152 1q38 0 38 -36q0 -21 -11.5 -30.5t-40.5 -9.5l-138 1q0 -86 1.5 -273.5t1.5 -271.5q0 -45 -40 -45q-41 0 -41 44q0 39 0.5 150
t0.5 150q0 40 0.5 122.5t0.5 123.5h-149z" />
    <glyph glyph-name="daggerdbl" unicode="&#x2021;" horiz-adv-x="515" 
d="M69 401q-18 0 -28 11t-9 29t11 26.5t36 8.5q42 0 139 -1l-2 207q0 40 40 40q22 0 31.5 -10t9.5 -38q0 -34 -1.5 -100t-1.5 -100l152 2q38 0 38 -36q0 -21 -11.5 -30.5t-40.5 -9.5l-138 2q0 -33 1 -126.5t1 -164.5l150 2q38 0 38 -36q0 -21 -11.5 -30t-40.5 -9l-137 2
q0 -25 1 -88.5t1 -88.5q0 -30 -9.5 -41.5t-32.5 -11.5q-22 0 -30.5 12t-8.5 38l1 180l-124 -1q-31 0 -46 8.5t-15 29.5q0 37 50 37l136 -2q0 10 -0.5 32t-0.5 33q0 37 0.5 112.5t0.5 113.5z" />
    <glyph glyph-name="bullet" unicode="&#x2022;" horiz-adv-x="338" 
d="M165 98q-62 0 -100 37t-38 100q0 64 41 102.5t104 38.5q61 0 99.5 -40t38.5 -101q0 -63 -40.5 -100t-104.5 -37z" />
    <glyph glyph-name="ellipsis" unicode="&#x2026;" horiz-adv-x="617" 
d="M99 -4q-23 0 -38.5 16t-15.5 39q0 24 17 40t43 16q24 0 39.5 -16t15.5 -40q0 -26 -17 -40.5t-44 -14.5zM305 -4q-23 0 -38.5 16t-15.5 39q0 24 17 40t42 16t40.5 -16t15.5 -40q0 -26 -17 -40.5t-44 -14.5zM511 -4q-23 0 -39 16t-16 39q0 24 17 40t43 16q25 0 40.5 -16
t15.5 -40q0 -26 -17 -40.5t-44 -14.5z" />
    <glyph glyph-name="perthousand" unicode="&#x2030;" horiz-adv-x="1125" 
d="M538 658q8 14 20.5 18.5t26.5 -1.5q30 -17 10 -53q-6 -10 -63.5 -102t-90.5 -151q-26 -49 -67 -116.5t-44 -73.5l-95 -164q-7 -13 -21 -17.5t-28 2.5q-12 7 -15.5 19.5t4.5 26.5l187 308zM33 492q0 76 35.5 132t106.5 56q66 0 106.5 -48.5t40.5 -126.5q0 -77 -43 -125.5
t-106 -48.5q-56 0 -98 47t-42 114zM175 620q-77 0 -77 -121q0 -44 20 -76t54 -32q39 0 61.5 30.5t22.5 85.5q0 51 -21 82t-60 31zM457 155q0 75 36.5 128.5t108.5 53.5q67 0 107 -48.5t40 -125.5q0 -76 -42 -123.5t-107 -47.5q-59 0 -101 47t-42 116zM602 280
q-41 0 -60.5 -34.5t-19.5 -85.5q0 -48 20 -79t57 -31q41 0 63 29t20 82q-2 119 -80 119zM799 155q0 75 36.5 128.5t108.5 53.5q67 0 107 -48.5t40 -125.5q0 -76 -42 -123.5t-107 -47.5q-59 0 -101 47t-42 116zM945 280q-41 0 -61 -34.5t-20 -85.5q0 -48 20.5 -79t57.5 -31
q41 0 62.5 29t20.5 82q-4 119 -80 119z" />
    <glyph glyph-name="guilsinglleft" unicode="&#x2039;" horiz-adv-x="276" 
d="M220 355l-102 -117l105 -117q17 -17 17 -30q0 -10 -10.5 -19.5t-21.5 -9.5q-12 0 -28 14l-123 119q-21 23 -21 43q0 19 19 39q14 15 36 37t49.5 49t38.5 38q13 11 24 11t21.5 -9t10.5 -20q0 -12 -15 -28z" />
    <glyph glyph-name="guilsinglright" unicode="&#x203a;" horiz-adv-x="276" 
d="M157 236l-102 117q-15 17 -15 28t10.5 20t21.5 9q12 0 25 -11q13 -14 59.5 -60t64.5 -65q19 -21 19 -38q0 -21 -22 -43l-123 -119q-15 -15 -28 -14q-11 0 -21 9.5t-10 19.5q0 14 16 30z" />
    <glyph glyph-name="fraction" unicode="&#x2044;" horiz-adv-x="433" 
d="M371 658q12 21 30 21q12 0 20.5 -8t8.5 -20t-9 -27l-154 -255l-207 -354q-10 -19 -27 -19q-11 0 -21 8t-10 21q0 11 9 26z" />
    <glyph glyph-name="zerosuperior" unicode="&#x2070;" horiz-adv-x="365" 
d="M34 546q0 90 37.5 150t111.5 60q70 0 109.5 -53t39.5 -144q0 -88 -43 -139t-107 -51q-62 0 -105 48.5t-43 128.5zM183 697q-46 0 -66 -42t-20 -103q0 -51 22.5 -87.5t59.5 -36.5q41 0 66 35.5t25 94.5t-22.5 99t-64.5 40z" />
    <glyph glyph-name="foursuperior" unicode="&#x2074;" horiz-adv-x="338" 
d="M198 572q0 34 28 34q31 0 32 -26v-75h38q28 0 28 -26q0 -33 -26 -33h-40v-50q0 -26 -31 -27q-29 0 -29 27v49h-140q-16 0 -26 12t-10 25q0 19 16 43l113 209q10 22 30 22q14 0 25.5 -8.5t11.5 -19.5q0 -6 -5 -18l-116 -207l101 1v68z" />
    <glyph glyph-name="fivesuperior" unicode="&#x2075;" horiz-adv-x="322" 
d="M64 721q2 15 12 24.5t24 9.5h145q31 0 31 -31q0 -30 -33 -30l-122 1l-3 -21l-11 -73q31 17 61 17q57 0 90 -32.5t33 -84.5q0 -58 -36.5 -95t-98.5 -37q-55 0 -97 23q-26 15 -26 36q0 12 8.5 21.5t21.5 9.5q8 0 26 -10q36 -19 67 -19q29 0 50 18t21 48q0 29 -18.5 46.5
t-49.5 17.5q-19 0 -46 -11t-38 -11q-15 0 -25.5 10t-8.5 26q0 1 9.5 59.5t13.5 87.5z" />
    <glyph glyph-name="sixsuperior" unicode="&#x2076;" horiz-adv-x="340" 
d="M190 695q-34 0 -61 -29.5t-28 -72.5q0 -4 -0.5 -9.5t-0.5 -8.5q11 20 36.5 31t50.5 11q54 0 89.5 -29.5t35.5 -88.5q0 -57 -37.5 -93.5t-99.5 -36.5q-54 0 -89 31.5t-43 89.5q-5 30 -5 64q0 90 42.5 146t112.5 56q47 0 75 -14q21 -12 21 -31q0 -12 -7.5 -20.5t-19.5 -8.5
q-2 0 -24 5q-26 8 -48 8zM175 563q-32 0 -51.5 -18t-19.5 -49t20 -49.5t51 -18.5t52 19t21 51t-19.5 49t-53.5 16z" />
    <glyph glyph-name="sevensuperior" unicode="&#x2077;" horiz-adv-x="309" 
d="M206 695q-24 0 -74 -1t-78 -1q-32 0 -32 32q0 28 32 28t102.5 0.5t100.5 0.5q31 0 31 -30q0 -17 -18 -42q-72 -102 -108 -207q-8 -21 -25 -76q-8 -28 -33 -28q-37 0 -32 33q7 34 26 84q41 108 108 207z" />
    <glyph glyph-name="eightsuperior" unicode="&#x2078;" horiz-adv-x="341" 
d="M296 652q0 -59 -50 -81q29 -9 47 -30.5t18 -52.5q1 -59 -37.5 -89.5t-101.5 -30.5q-62 0 -101 29.5t-39 82.5q0 67 66 91q-19 7 -33.5 29t-14.5 48q0 49 36 79t85 30q52 0 88.5 -29.5t36.5 -75.5zM173 544q-33 0 -54.5 -15.5t-21.5 -44.5q0 -27 19.5 -42.5t51.5 -15.5
q36 0 57 16t21 45q0 26 -21 41.5t-52 15.5zM112 647q0 -23 17 -38t43 -15q27 0 45 16.5t18 41.5q0 22 -18.5 36t-45.5 14q-26 0 -42.5 -14.5t-16.5 -40.5z" />
    <glyph glyph-name="ninesuperior" unicode="&#x2079;" horiz-adv-x="341" 
d="M155 431q40 0 64 29.5t23 85.5q-12 -17 -36 -29t-51 -12q-49 0 -86.5 32t-37.5 91q0 55 40 91.5t97 36.5q68 0 103.5 -46t35.5 -133q0 -109 -38 -158.5t-117 -49.5q-48 0 -85 17q-18 10 -18 32q0 12 8 21.5t20 9.5q6 0 25 -7q31 -11 53 -11zM167 559q30 0 51 19t21 50
q0 30 -21.5 50t-51.5 20t-50.5 -19.5t-20.5 -51.5q0 -31 19.5 -49t52.5 -19z" />
    <glyph glyph-name="zeroinferior" unicode="&#x2080;" horiz-adv-x="365" 
d="M34 6q0 90 37.5 150t111.5 60q70 0 109.5 -53t39.5 -144q0 -88 -43 -139t-107 -51q-62 0 -105 48.5t-43 128.5zM183 157q-46 0 -66 -42t-20 -103q0 -51 22.5 -87.5t59.5 -36.5q41 0 66 35.5t25 94.5t-22.5 99t-64.5 40z" />
    <glyph glyph-name="oneinferior" unicode="&#x2081;" horiz-adv-x="253" 
d="M75 96q-10 -7 -20 -7t-18.5 9t-8.5 20q0 14 17 28l79 56q18 12 32 12q11 0 20.5 -8t9.5 -18v-110q0 -36 -0.5 -111t-0.5 -111q0 -26 -31 -26q-32 0 -32 30q0 26 2.5 128t2.5 146q-18 -15 -52 -38z" />
    <glyph glyph-name="twoinferior" unicode="&#x2082;" horiz-adv-x="319" 
d="M151 155q-32 0 -60 -30q-13 -15 -30 -15q-12 0 -20.5 9.5t-8.5 22.5q0 18 24 37q42 38 94 38q55 1 93 -31.5t38 -85.5q0 -10 -1 -19t-5 -18t-6.5 -15.5t-9.5 -15.5t-10.5 -14t-13.5 -15.5t-14 -14t-16.5 -15.5t-16.5 -16l-70 -67q136 2 145 2q29 0 29 -30q0 -31 -33 -31
h-65h-130q-15 0 -24.5 9.5t-9.5 24.5q0 23 24 46l99 97q23 21 33 31.5t20.5 27.5t10.5 32q0 24 -18.5 40t-47.5 16z" />
    <glyph glyph-name="threeinferior" unicode="&#x2083;" horiz-adv-x="315" 
d="M218 -46q0 30 -21.5 45t-53.5 15h-24q-27 0 -27 30q0 12 15 27q11 11 39 40t44 44q-14 0 -61 -0.5t-62 -0.5q-32 0 -32 29q0 30 29 30h66h117q30 0 30 -29q0 -16 -19 -35l-85 -87q44 -1 76.5 -29t32.5 -76q0 -59 -37 -94t-98 -35q-57 0 -93 22q-25 16 -25 34
q0 14 8.5 22.5t19.5 8.5q9 0 29 -10q39 -18 61 -18q31 0 51 18t20 49z" />
    <glyph glyph-name="fourinferior" unicode="&#x2084;" horiz-adv-x="338" 
d="M198 32q0 34 28 34q31 0 32 -26v-75h38q28 0 28 -26q0 -33 -26 -33h-40v-50q0 -26 -31 -27q-29 0 -29 27v49h-43h-55h-42q-16 0 -26 12t-10 25q0 19 16 43l113 209q10 22 30 22q14 0 25.5 -8.5t11.5 -19.5q0 -6 -5 -18l-116 -207l101 1v68z" />
    <glyph glyph-name="fiveinferior" unicode="&#x2085;" horiz-adv-x="322" 
d="M64 181q2 15 12 24.5t24 9.5h145q31 0 31 -31t-33 -30l-122 1l-3 -21l-11 -73q31 17 61 17q57 0 90 -32.5t33 -84.5q0 -58 -36.5 -95t-98.5 -37q-55 0 -97 23q-26 15 -26 36q0 12 8.5 21.5t21.5 9.5q8 0 26 -10q36 -19 67 -19q29 0 50 18t21 48q0 29 -18.5 46.5
t-49.5 17.5q-19 0 -46 -11t-38 -11q-15 0 -25.5 10t-8.5 26q0 1 9.5 59.5t13.5 87.5z" />
    <glyph glyph-name="sixinferior" unicode="&#x2086;" horiz-adv-x="340" 
d="M190 155q-34 0 -61 -29.5t-28 -72.5q0 -4 -0.5 -9.5t-0.5 -8.5q11 20 36.5 31t50.5 11q54 0 89.5 -29.5t35.5 -88.5q0 -57 -37.5 -93.5t-99.5 -36.5q-54 0 -89 31.5t-43 89.5q-5 30 -5 64q0 90 42.5 146t112.5 56q47 0 75 -14q21 -12 21 -31q0 -12 -7.5 -20.5t-19.5 -8.5
q-2 0 -24 5q-26 8 -48 8zM175 23q-32 0 -51.5 -18t-19.5 -49t20 -49.5t51 -18.5t52 19t21 51t-19.5 49t-53.5 16z" />
    <glyph glyph-name="seveninferior" unicode="&#x2087;" horiz-adv-x="309" 
d="M206 155q-24 0 -74 -1t-78 -1q-32 0 -32 32q0 28 32 28t102.5 0.5t100.5 0.5q31 0 31 -30q0 -17 -18 -42q-72 -102 -108 -207q-13 -34 -25 -76q-8 -28 -33 -28q-37 0 -32 33q5 28 26 84q41 108 108 207z" />
    <glyph glyph-name="eightinferior" unicode="&#x2088;" horiz-adv-x="341" 
d="M296 112q0 -59 -50 -81q29 -9 47 -30.5t18 -52.5q1 -59 -37.5 -89.5t-101.5 -30.5q-62 0 -101 29.5t-39 81.5q0 68 66 92q-19 7 -33.5 29t-14.5 48q0 49 36 79.5t85 30.5q52 0 88.5 -30t36.5 -76zM173 4q-33 0 -55 -15.5t-21 -45.5q0 -28 19.5 -42.5t51.5 -14.5
q36 0 57 16t21 45q0 26 -21 41.5t-52 15.5zM112 107q0 -23 17 -38t43 -15q27 0 45 16.5t18 41.5q0 22 -18.5 36t-45.5 14q-25 0 -42 -15t-17 -40z" />
    <glyph glyph-name="nineinferior" unicode="&#x2089;" horiz-adv-x="341" 
d="M155 -109q40 0 64 29.5t23 85.5q-12 -17 -36 -29t-51 -12q-49 0 -86.5 32t-37.5 91q0 55 40 91.5t97 36.5q68 0 103.5 -46t35.5 -133q0 -109 -38 -158.5t-117 -49.5q-48 0 -85 17q-18 10 -18 32q0 12 8 21.5t20 9.5q6 0 25 -7q31 -11 53 -11zM167 19q30 0 51 19t21 50
q0 30 -21.5 50t-51.5 20t-50.5 -19.5t-20.5 -51.5q0 -31 19.5 -49t52.5 -19z" />
    <glyph glyph-name="franc" unicode="&#x20a3;" horiz-adv-x="527" 
d="M39 121q-35 0 -35 32q0 35 38 35h57l2 292q0 20 -1 60.5t-1 61.5q0 20 3 38q7 38 44 38h58q28 0 110 0.5t130 0.5q32 0 46 -7.5t14 -27.5q0 -22 -12 -31t-40 -9h-270q0 -23 -0.5 -69.5t-0.5 -69.5v-81l211 1q35 0 35 -38q0 -36 -40 -36l-103 1q-103 0 -104 -1v-123h115
q37 0 37 -31q0 -36 -41 -36h-111v-71q0 -28 -8 -40.5t-33 -12.5q-42 0 -42 45q0 8 0.5 38t0.5 41h-59z" />
    <glyph glyph-name="lira" unicode="&#x20a4;" horiz-adv-x="538" 
d="M90 237q-18 0 -26.5 8.5t-7.5 23.5q1 31 44 31h51v59h-49q-24 0 -33.5 6.5t-9.5 24.5t11 23.5t36 5.5h45q0 32 1 43q4 107 58 163.5t139 56.5q56 0 88 -21q23 -14 23 -36q0 -14 -10 -26t-24 -12q-11 0 -34.5 8.5t-42.5 8.5q-50 0 -82.5 -41t-32.5 -123v-21q32 1 105 1
q43 0 43 -28q0 -32 -40 -33h-108v-59h112q32 0 32 -30q0 -19 -10 -26t-35 -7h-99v-136q132 -37 165 -37q23 0 39 24t34 24q16 0 27 -10.5t10 -27.5q-3 -43 -33.5 -63.5t-77.5 -20.5q-30 0 -127.5 24.5t-113.5 24.5q-32 0 -48 -21q-2 -3 -5.5 -7.5t-5.5 -7t-6 -5.5t-9.5 -4.5
t-13.5 -1.5q-22 0 -30 23q-7 11 -4 32q9 28 33.5 45.5t53.5 20.5q4 1 15 1t15 -1l-1 124h-61z" />
    <glyph glyph-name="Euro" unicode="&#x20ac;" horiz-adv-x="580" 
d="M515 663q29 -12 29 -39q0 -39 -34 -39q-8 0 -43 10t-68 10q-69 0 -120 -46.5t-75 -121.5q75 1 208 1q34 0 34 -32t-35 -32h-55h-88h-79q-2 -30 -2 -47v-30h212q33 0 33 -31q0 -34 -49 -34q-113 0 -185 1q43 -159 208 -159q28 0 67 11.5t49 11.5q13 -1 22.5 -15t9.5 -28
q0 -28 -46 -44.5t-114 -15.5q-108 1 -184 63.5t-97 176.5h-52q-41 0 -41 33q0 30 41 30h44q-1 8 -1 25q0 26 3 51h-38q-36 0 -36 30q0 33 40 33h46q28 114 107.5 180.5t177.5 65.5q57 0 111 -19z" />
    <glyph glyph-name="uni20B9" unicode="&#x20b9;" horiz-adv-x="528" 
d="M74 605q-18 0 -27 10.5t-9 25.5q2 35 49 35h365q37 0 37 -33q0 -20 -11 -29t-39 -9h-116q59 -44 65 -112h66q35 0 35 -32q0 -20 -10.5 -28.5t-38.5 -8.5h-56q-12 -60 -54 -101.5t-106 -53.5l190 -199q19 -19 19 -36t-11.5 -28t-29.5 -11q-19 -1 -39 20l-217 239l-44 -1
q-39 0 -39 39q0 34 38 34h59q129 0 151 98h-226q-18 0 -27 10.5t-9 25.5q1 34 49 34q133 0 217 -1q-4 51 -40.5 79t-94.5 33h-96z" />
    <glyph glyph-name="uni20BA" unicode="&#x20ba;" horiz-adv-x="534" 
d="M354 295l-129 -43q-2 -110 0 -170q67 -1 119 32.5t72 84.5q11 23 20.5 32t27.5 8q43 -3 35 -50q-19 -72 -76.5 -120.5t-144.5 -64.5q-27 -5 -83 -5q-53 0 -53 45v180l-71 -24q-17 -5 -28 3t-15 21q-5 28 37 43l77 26v65l-77 -26q-17 -6 -28 2t-14 22q-7 28 36 43l83 28
l1 213q0 41 44 41q18 0 28.5 -9.5t10.5 -25.5q0 -10 -0.5 -76t-0.5 -115l117 40q35 10 44 -19q13 -32 -37 -48l-124 -42v-65l121 42q34 9 45 -19q9 -32 -37 -49z" />
    <glyph glyph-name="uni20BD" unicode="&#x20bd;" horiz-adv-x="614" 
d="M78 269q-38 0 -38 34q0 38 48 38h41l-2 256q0 41 17 60.5t63 20.5q74 2 124 2q111 0 175.5 -51.5t64.5 -150.5t-65.5 -154t-179.5 -55h-114v-84h162q39 0 39 -33q0 -39 -46 -39h-154v-74q0 -24 -9.5 -34.5t-32.5 -10.5q-42 0 -42 44v76h-53q-39 0 -39 35q0 37 45 37h47
v83h-51zM212 427v-86h117q79 1 120.5 32.5t41.5 104.5q0 129 -163 129q-78 0 -116 -3v-177z" />
    <glyph glyph-name="uni2113" unicode="&#x2113;" horiz-adv-x="434" 
d="M258 -4q-59 0 -100 39.5t-43 94.5q0 10 -3 36q-26 -11 -41 -11q-29 3 -29 35q0 11 7.5 20.5t20.5 11.5q19 3 40 15l-3 73q-8 98 -6 173q1 42 7 74.5t21 64t45 49t74 17.5q68 0 102 -47t36 -117q1 -69 -35 -138.5t-94 -125.5q-13 -15 -37 -33.5t-38 -25.5v-21
q0 -49 19 -82t61 -33q28 0 64 20q21 12 32 12q13 0 23 -11t10 -25q0 -20 -16 -30q-55 -35 -117 -35zM172 470q0 -102 4 -190q27 20 42.5 35t39.5 46q55 84 55 157q0 24 -4.5 45t-21 40t-43.5 19q-39 0 -55.5 -45.5t-16.5 -106.5z" />
    <glyph glyph-name="trademark" unicode="&#x2122;" horiz-adv-x="670" 
d="M146 676q3 0 36 0.5t66 0.5q24 0 24 -22q0 -27 -25 -27h-77l1 -200q0 -8 0.5 -25t0.5 -28q0 -28 -29 -28q-25 0 -24 26v178v77h-83q-22 0 -22 24t23 25zM428 381l-73 206l-26 -220q-3 -20 -25 -20q-12 0 -19 7.5t-6 18.5q15 97 39 284q4 19 32 19q19 0 28 -24l79 -223
l81 219q10 23 28 29h10q15 0 22 -12l31 -244l6 -47q2 -28 -25 -28q-23 0 -25 22l-24 217l-76 -205q-12 -22 -32 -22q-11 0 -15.5 5.5t-9.5 17.5z" />
    <glyph glyph-name="Omega" unicode="&#x2126;" horiz-adv-x="701" 
d="M261 0l-178 -1q-42 0 -42 38q0 21 12.5 31.5t31.5 10.5q10 0 64 -1t61 -1q-69 45 -119 118t-50 167q0 140 87.5 231t219.5 91q137 0 224.5 -89t85.5 -226q0 -90 -45.5 -165.5t-114.5 -125.5q12 0 57 0.5t53 0.5q27 0 39.5 -8.5t12.5 -29.5q0 -40 -46 -40q-14 0 -89 -0.5
t-85 -0.5q-19 0 -32 10t-13 29q0 27 25 49q73 58 116 124t43 158q0 103 -65 171t-163 68q-100 0 -165 -68t-65 -180q0 -60 24.5 -113t57.5 -87.5t82 -72.5q27 -21 27 -45q0 -20 -13.5 -32t-37.5 -11z" />
    <glyph glyph-name="estimated" unicode="&#x212e;" horiz-adv-x="691" 
d="M642 293h-450v-212q71 -50 153 -50q70 0 128 37.5t91 89.5q5 5 12 2l23 -16q2 -2 1 -6q-43 -65 -109.5 -106t-145.5 -41q-128 0 -214 94t-86 225t86 224t214 93t214.5 -92.5t86.5 -224.5v-12q0 -5 -4 -5zM192 330h305v209q-69 51 -152 51q-85 0 -153 -53v-207z" />
    <glyph glyph-name="onethird" unicode="&#x2153;" horiz-adv-x="762" 
d="M506 658q12 21 29 21q12 0 21 -8t9 -20q0 -9 -9 -27l-154 -255l-207 -354q-10 -19 -28 -19q-11 0 -20.5 8t-9.5 21q0 11 9 26zM663 120q0 30 -21 45t-53 15h-24q-27 0 -27 30q0 14 15 27l83 84q-94 0 -123 -1q-32 0 -32 29q0 30 29 30h65q20 0 60 -0.5t58 -0.5
q30 0 30 -28q0 -16 -19 -35l-85 -87q44 -1 76 -29t33 -75q0 -60 -37 -95t-98 -35q-55 0 -94 23q-24 13 -24 34q0 13 8.5 21t19.5 8q9 0 29 -9q30 -17 61 -17t50.5 18t19.5 48zM82 563q-10 -6 -19 -6q-11 0 -19.5 8.5t-8.5 19.5q0 14 17 28l79 57q17 11 33 11q11 0 20.5 -8
t9.5 -18q0 -18 -0.5 -54.5t-0.5 -55.5v-221q0 -27 -32 -27q-14 0 -23 8t-9 22q0 25 2.5 128t2.5 146q-31 -25 -52 -38z" />
    <glyph glyph-name="twothirds" unicode="&#x2154;" horiz-adv-x="802" 
d="M561 658q12 21 29 21q12 0 20.5 -8t8.5 -20t-9 -27q-9 -16 -65.5 -108.5t-88.5 -146.5l-206 -354q-10 -19 -28 -19q-11 0 -20.5 8t-9.5 21t9 26zM703 120q0 30 -21 45t-53 15h-24q-27 0 -27 30q0 14 15 27l83 84q-94 0 -123 -1q-32 0 -32 29q0 30 29 30h65q20 0 60 -0.5
t58 -0.5q30 0 30 -28q0 -16 -19 -35l-85 -87q44 -1 76 -29t33 -75q0 -60 -37 -95t-98 -35q-55 0 -94 23q-24 13 -24 34q0 13 8.5 21t19.5 8q9 0 29 -9q30 -17 61 -17t50.5 18t19.5 48zM159 622q-35 0 -60 -29q-13 -15 -31 -15q-12 0 -20.5 9t-8.5 22q0 18 24 38q40 38 95 38
t92.5 -32t37.5 -85q0 -9 -1.5 -17.5t-3 -15.5t-6 -15.5t-7 -13.5t-10 -14t-10 -13t-12.5 -13.5t-13 -12.5t-15 -14.5t-15 -14.5l-70 -66q40 0 91 1t54 1q14 0 22 -8.5t8 -22.5q0 -31 -33 -31q-7 0 -31 0.5t-35 0.5h-131q-33 0 -33 33q0 23 24 46l99 97q24 22 33.5 32t20 27
t10.5 32q0 24 -18.5 40t-46.5 16z" />
    <glyph glyph-name="oneeighth" unicode="&#x215b;" horiz-adv-x="782" 
d="M511 658q12 21 30 21q12 0 20.5 -8t8.5 -20t-9 -27l-154 -255l-207 -354q-10 -19 -27 -19q-11 0 -21 8t-10 21q0 11 9 26zM727 278q0 -60 -50 -80q29 -9 47 -31t18 -52q1 -59 -37.5 -90t-101.5 -31q-62 0 -101 30t-39 82q0 67 66 91q-19 7 -33.5 29t-14.5 48q0 50 36 80
t85 30q52 0 88.5 -29.5t36.5 -76.5zM604 170q-33 0 -54.5 -15.5t-21.5 -44.5q0 -27 19.5 -42.5t51.5 -15.5q36 0 57 16t21 45q0 27 -21 42t-52 15zM543 273q0 -23 17 -37.5t43 -14.5q27 0 45 16t18 41q0 22 -18.5 36t-45.5 14q-26 0 -42.5 -14.5t-16.5 -40.5zM87 563
q-11 -6 -19 -6q-11 0 -19.5 8.5t-8.5 19.5q0 14 17 28l79 57q16 11 33 11q11 0 20.5 -8t9.5 -18q0 -18 -0.5 -54.5t-0.5 -55.5v-221q0 -27 -31 -27q-33 0 -33 30q0 25 2.5 128t2.5 146q-31 -25 -52 -38z" />
    <glyph glyph-name="threeeighths" unicode="&#x215c;" horiz-adv-x="812" 
d="M551 658q12 21 30 21q12 0 20.5 -8t8.5 -20t-9 -27l-154 -255l-207 -354q-10 -19 -27 -19q-11 0 -21 8t-10 21q0 11 9 26zM752 278q0 -60 -50 -80q28 -9 46 -31t18 -52q1 -59 -37 -90t-101 -31q-62 0 -101 30t-39 82q0 67 66 91q-19 7 -33.5 29t-14.5 48q0 50 36 80
t85 30q52 0 88.5 -29.5t36.5 -76.5zM629 170q-33 0 -55 -15.5t-22 -44.5q0 -27 20 -42.5t52 -15.5q36 0 57 16t21 45q0 27 -21 42t-52 15zM567 273q1 -23 18 -37.5t43 -14.5q27 0 44.5 16t17.5 41q0 22 -18 36t-45 14q-26 0 -43 -15t-17 -40zM225 421q0 30 -21 45t-54 15
h-24q-27 0 -27 30q0 13 15 28l83 83q-94 0 -122 -1q-33 0 -33 29q0 30 29 30h66q19 0 59 -0.5t59 -0.5q30 0 30 -27q0 -18 -19 -35l-85 -88q43 -1 75.5 -29t32.5 -75q0 -60 -37 -95t-98 -35q-56 0 -93 23q-24 14 -24 34q0 13 8.5 21.5t18.5 8.5q11 0 29 -9q34 -18 61 -18
q31 0 51 18t20 48z" />
    <glyph glyph-name="fiveeighths" unicode="&#x215d;" horiz-adv-x="812" 
d="M553 658q12 21 29 21q12 0 21 -8t9 -20q0 -9 -9 -27l-154 -255l-207 -354q-10 -19 -28 -19q-11 0 -20.5 8t-9.5 21q0 11 9 26zM754 278q0 -59 -50 -80q28 -9 46 -31t18 -52q1 -59 -37.5 -90t-101.5 -31q-62 0 -101 30t-39 82q0 66 66 91q-19 7 -33.5 29t-14.5 48
q0 50 36 80t85 30q52 0 89 -29.5t37 -76.5zM630 170q-32 0 -54 -15.5t-22 -44.5q0 -27 19.5 -42.5t52.5 -15.5q36 0 57 16t21 45q0 27 -21.5 42t-52.5 15zM569 273q1 -23 18 -37.5t42 -14.5q27 0 45 16t18 41q0 22 -18 36t-45 14q-26 0 -43 -14.5t-17 -40.5zM73 649
q2 14 12 23.5t24 9.5h145q30 0 30 -31q0 -30 -32 -30l-123 2l-3 -21l-11 -73q32 16 62 16q57 0 90 -32.5t33 -83.5q0 -58 -36.5 -95.5t-98.5 -37.5q-56 0 -97 24q-27 14 -27 36q0 11 9 20.5t22 9.5q10 0 26 -9q35 -20 67 -20q29 0 50 18t21 48q0 29 -18.5 47t-49.5 18
q-19 0 -46 -11t-38 -11q-15 0 -25.5 9.5t-8.5 25.5q1 7 10 63t13 85z" />
    <glyph glyph-name="seveneighths" unicode="&#x215e;" horiz-adv-x="782" 
d="M504 658q12 21 29 21q12 0 20.5 -8t8.5 -20t-9 -27q-9 -16 -65.5 -108.5t-88.5 -146.5l-206 -354q-10 -19 -28 -19q-11 0 -20.5 8t-9.5 21t9 26zM724 278q0 -60 -50 -80q28 -9 46 -31t18 -52q1 -59 -37 -90t-101 -31q-62 0 -101 30t-39 82q0 67 66 91q-19 7 -33.5 29
t-14.5 48q0 50 36 80t85 30q52 0 88.5 -29.5t36.5 -76.5zM601 170q-33 0 -55 -15.5t-22 -44.5q0 -27 20 -42.5t52 -15.5q36 0 57 16t21 45q0 27 -21 42t-52 15zM539 273q1 -23 18 -37.5t43 -14.5q27 0 44.5 16t17.5 41q0 22 -18 36t-45 14q-26 0 -43 -15t-17 -40zM221 622
q-23 0 -73.5 -1t-78.5 -1q-32 0 -32 31q0 29 33 29h203q30 0 30 -29q0 -17 -17 -42q-70 -99 -109 -207q-7 -20 -24 -77q-8 -27 -34 -27q-17 0 -25.5 8.5t-6.5 24.5q6 30 26 84q45 115 108 207z" />
    <glyph glyph-name="arrowleft" unicode="&#x2190;" horiz-adv-x="709" 
d="M40 240q0 26 18 44l184 176q9 9 23 9q16 0 26 -11t10 -28q0 -10 -19 -29l-139 -128l492 3q35 0 35 -36q0 -37 -35 -37l-263 1l-227 3l142 -128q20 -16 20 -31q0 -16 -11.5 -27t-27.5 -11q-11 0 -23 10l-186 175q-19 17 -19 45z" />
    <glyph glyph-name="arrowup" unicode="&#x2191;" horiz-adv-x="536" 
d="M269 685q24 0 48 -24l171 -183q10 -12 10 -23q0 -16 -10.5 -26t-27.5 -10q-13 0 -30 19l-127 140l1 -542q0 -38 -36 -38t-36 37l3 543l-130 -154q-15 -17 -31 -17q-15 0 -26 10.5t-11 26.5q0 10 11 23l176 198q16 20 45 20z" />
    <glyph glyph-name="arrowright" unicode="&#x2192;" horiz-adv-x="709" 
d="M670 240q0 -28 -20 -44l-189 -181q-11 -9 -22 -9q-16 0 -27.5 11t-11.5 27t19 31l145 132l-226 -2l-264 -1q-34 0 -34 36t34 36l492 -2l-143 132q-19 17 -19 29q0 17 10 28t26 11q15 0 23 -10l188 -179q19 -21 19 -45z" />
    <glyph glyph-name="arrowdown" unicode="&#x2193;" horiz-adv-x="536" 
d="M269 -5q-28 0 -44 20l-180 201q-11 13 -11 24q0 16 11 26.5t27 10.5q15 0 31 -18l132 -156l-3 543q0 36 37 36q36 0 36 -38l-1 -542l129 142q18 20 30 20q17 0 28 -10t11 -26q0 -14 -11 -23l-173 -186q-24 -24 -49 -24z" />
    <glyph glyph-name="partialdiff" unicode="&#x2202;" horiz-adv-x="551" 
d="M232 642q-27 8 -27 33q0 24 19 34.5t47 3.5q102 -27 173.5 -118t70.5 -237q2 -81 -14 -149q-21 -104 -86 -159.5t-159 -55.5q-89 0 -148 55t-59 142q0 97 67 172.5t169 78.5q48 2 89 -21t62 -66q3 104 -52.5 184.5t-151.5 102.5zM291 369q-65 1 -113.5 -47t-48.5 -117
q-1 -61 34.5 -99.5t89.5 -38.5q63 0 111.5 42.5t55.5 107.5q7 62 -29.5 107t-99.5 45z" />
    <glyph glyph-name="Delta" unicode="&#x2206;" horiz-adv-x="628" 
d="M570 0h-509q-19 0 -31 10.5t-12 29.5q0 12 15 47q23 54 49 112.5t41.5 92.5t17.5 39l128 318q12 31 47 31q36 0 49 -32l148 -373l84 -196q12 -26 12 -43q0 -15 -10.5 -25.5t-28.5 -10.5zM316 573l-202 -498q34 0 195 -0.5t202 -0.5z" />
    <glyph glyph-name="product" unicode="&#x220f;" horiz-adv-x="561" 
d="M396 607l-84 1l-150 -1v-63q0 -194 4 -590q0 -50 -44 -50q-39 0 -39 46q0 63 0.5 234t0.5 234q0 32 -0.5 93t-0.5 93q-2 77 66 77q136 -2 260 -2q32 0 48.5 -20t16.5 -54v-61q0 -51 2 -246t3 -344q0 -49 -44 -49q-39 0 -39 46q0 63 0.5 234t0.5 233z" />
    <glyph glyph-name="summation" unicode="&#x2211;" horiz-adv-x="537" 
d="M295 295l-210 269q-2 3 -7 9t-7 9t-6 8.5t-6 9.5t-4 9.5t-3 11.5t-1 12q1 20 16 32t38 13q50 0 67 -1q53 0 152.5 1.5t123.5 1.5q48 0 48 -37q2 -36 -31 -37q-39 0 -158 0.5t-159 0.5l199 -257q25 -27 26 -55q0 -7 -2 -14.5t-3.5 -12.5t-7 -13t-7 -10.5t-9 -11t-7.5 -9.5
l-196 -255q92 0 292 3q7 0 18 0.5t17 0.5q36 0 36 -36q0 -20 -11 -31t-40 -11h-297q-63 0 -83.5 11t-20.5 45q0 30 39 73z" />
    <glyph glyph-name="minus" unicode="&#x2212;" horiz-adv-x="485" 
d="M66 231q-33 0 -33 38t44 38q10 0 65 -0.5t84 -0.5h191q34 0 34 -36q0 -20 -11.5 -29t-38.5 -10h-335z" />
    <glyph glyph-name="uni2215" unicode="&#x2215;" horiz-adv-x="433" 
d="M369 658q12 21 30 21q12 0 20.5 -8t8.5 -20t-9 -27l-154 -255l-207 -354q-10 -19 -27 -19q-11 0 -21 8t-10 21q0 11 9 26z" />
    <glyph glyph-name="uni2219" unicode="&#x2219;" horiz-adv-x="206" 
d="M99 184q-23 0 -38.5 16t-15.5 39q0 24 17 40t43 16q24 0 39.5 -16t15.5 -40q0 -26 -17 -40.5t-44 -14.5z" />
    <glyph glyph-name="radical" unicode="&#x221a;" horiz-adv-x="628" 
d="M145 387l-75 -17q-22 -6 -36.5 3t-15.5 32q-1 31 39 41l87 20q28 7 42 -1.5t26 -40.5q114 -303 125 -329q8 21 26 78.5t28 83.5l128 388q13 41 42 41q18 1 30 -8.5t12 -26.5q0 -9 -14 -49l-122 -343l-69 -193q-15 -39 -27 -53t-35 -14q-25 0 -36 12.5t-23 44.5z" />
    <glyph glyph-name="infinity" unicode="&#x221e;" horiz-adv-x="714" 
d="M195 447q94 0 157 -114q63 122 162 122q80 1 126.5 -51t46.5 -128q0 -79 -45 -132t-120 -53q-89 0 -171 119q-65 -115 -163 -115q-69 0 -115 51t-46 124q0 75 48 126t120 51zM510 385q-36 -1 -69 -32.5t-57 -79.5q28 -44 63.5 -77.5t67.5 -33.5q46 0 72 30t26 77
q0 50 -27 83.5t-76 32.5zM193 165q39 0 71.5 33.5t53.5 74.5q-59 105 -125 105q-39 0 -67.5 -30.5t-28.5 -77.5q0 -48 25.5 -76.5t70.5 -28.5z" />
    <glyph glyph-name="integral" unicode="&#x222b;" horiz-adv-x="329" 
d="M246 690q17 1 28.5 -10.5t11.5 -29.5q0 -35 -33 -35q-10 0 -24 1t-26 0q-28 -1 -38.5 -45.5t-2.5 -119.5q6 -53 39.5 -195.5t34.5 -200.5q0 -76 -28 -125q-14 -25 -45.5 -42.5t-68.5 -17.5q-19 0 -34.5 9t-16.5 26q-1 21 8.5 33.5t24.5 12.5q5 0 17.5 -2t21.5 -2
q28 0 38.5 30t3.5 103q-17 96 -38 200t-29 151.5t-8 88.5t17.5 78t44.5 56q29 21 50.5 29t51.5 7z" />
    <glyph glyph-name="approxequal" unicode="&#x2248;" horiz-adv-x="485" 
d="M113 328q-15 -23 -38 -23q-16 0 -25.5 13t-5.5 30q12 35 43.5 57.5t75.5 22.5q35 0 61 -15t48 -30t47 -16q35 0 52 34q12 23 37 23q15 0 24.5 -11t7.5 -26q-25 -88 -114 -88q-42 1 -85.5 30.5t-70.5 30.5q-37 0 -57 -32zM113 139q-1 -1 -3 -4.5t-3 -5t-4 -4.5l-4 -4
q-1 -1 -4 -2.5t-6 -2.5t-6.5 -1.5t-8.5 -0.5q-16 0 -24.5 13t-5.5 28q12 36 41.5 58.5t75.5 22.5q43 0 86.5 -29.5t71.5 -30.5q36 0 53 34q14 22 37 22q16 0 26 -11.5t8 -25.5q-21 -86 -117 -86q-38 0 -83.5 29t-72.5 30q-37 0 -57 -29z" />
    <glyph glyph-name="notequal" unicode="&#x2260;" horiz-adv-x="485" 
d="M401 124h-176l-20 -58q-10 -27 -30 -27q-13 0 -22.5 7.5t-9.5 20.5q0 2 3 14l16 43h-96q-33 0 -33 38t44 38l112 -1l50 135h-173q-33 0 -33 38q0 37 44 37h189l23 64q10 24 29 24q11 0 21 -6.5t10 -17.5q0 -6 -6 -24l-15 -40h89q34 0 34 -37t-50 -38h-100l-49 -135h165
q34 0 34 -36q0 -20 -11.5 -29t-38.5 -10z" />
    <glyph glyph-name="lessequal" unicode="&#x2264;" horiz-adv-x="485" 
d="M68 0q-33 0 -33 37q0 36 44 36q10 0 65 -0.5t84 -0.5q41 0 112 0.5t78 0.5q34 0 34 -35q0 -20 -11.5 -29t-38.5 -9h-334zM424 510q-19 -10 -89 -45.5t-132.5 -67t-88.5 -46.5q49 -26 167 -80t152 -72q14 -9 14 -24q0 -17 -10 -29t-27 -11q-12 0 -26 8l-318 159
q-33 18 -33 50q0 28 32 47q41 24 309 165q17 10 30 10q15 -1 24.5 -12.5t9.5 -27.5t-14 -24z" />
    <glyph glyph-name="greaterequal" unicode="&#x2265;" horiz-adv-x="485" 
d="M416 0h-334q-27 0 -38.5 9t-11.5 29q0 35 34 35q7 0 78 -0.5t112 -0.5q29 0 84 0.5t65 0.5q44 0 44 -36q0 -37 -33 -37zM60 510q-14 8 -14 24t9.5 27.5t24.5 12.5q13 0 30 -10q268 -141 309 -165q32 -19 32 -47q0 -32 -33 -50l-318 -158q-13 -9 -26 -9q-17 -1 -27 11
t-10 29q0 15 14 24q33 17 151 71.5t168 80.5q-36 20 -172.5 89t-137.5 70z" />
    <glyph glyph-name="star" unicode="&#x22c6;" horiz-adv-x="536" 
d="M472 345q15 1 24 -7t9 -20q0 -13 -21 -29q-15 -11 -58.5 -39t-59.5 -39q41 -80 71 -148q3 -9 3 -12q0 -14 -10 -23t-21 -9q-9 0 -17 5q-21 18 -63.5 58t-60.5 55q-16 -14 -47.5 -45t-45.5 -43q-4 -4 -11 -10t-10 -8.5t-7.5 -6t-8 -4.5t-7.5 -1q-13 0 -23 8.5t-10 21.5
q0 5 2 13q12 28 36.5 77.5t33.5 69.5q0 3 -3 7q-20 12 -58 36.5t-65 40.5q-13 9 -13 22q0 12 7.5 21.5t18.5 8.5q9 0 61.5 -4t77.5 -4q6 0 15 30.5t17.5 71t10.5 46.5q8 26 30 26q28 0 31 -23q6 -29 18 -84.5t14 -66.5q81 2 140 8z" />
    <glyph glyph-name="triagup" unicode="&#x25b2;" horiz-adv-x="456" 
d="M182 412q1 2 3 4.5t3 3.5t2.5 3t3 3.5t3.5 2.5l4 2q2 1 4.5 1.5t5.5 1t7 0.5q23 0 34 -20q19 -32 50 -94t47 -88q8 -13 19 -31t16.5 -27.5t13.5 -22.5t11.5 -20.5t7.5 -15.5t5.5 -14t1.5 -11q0 -15 -11 -26t-26 -11q-7 0 -16 3.5t-15 7t-15.5 10t-13.5 8.5q-43 27 -93 27
q-9 0 -18 -1l-15 -3q-6 -1 -15.5 -5t-14 -6t-16 -7.5t-15.5 -7.5q-5 -3 -16.5 -9t-18.5 -10t-17.5 -7t-19.5 -3q-17 0 -27 11.5t-10 25.5q0 9 7 23l51 98q30 52 93 204z" />
    <glyph glyph-name="triagrt" unicode="&#x25ba;" horiz-adv-x="442" 
d="M385 281q1 -1 6.5 -5t6.5 -5.5t4 -5.5t3.5 -8.5t0.5 -11.5q0 -23 -19 -34q-11 -7 -74 -42.5t-93 -56.5q-114 -79 -145 -79q-15 0 -26 11.5t-11 26.5q0 7 3.5 16t6 14.5t9.5 16.5l9 13q29 48 29 97q0 13 -3.5 27t-5.5 20t-12 25.5t-11 22.5q-3 5 -9 17l-9 19q-4 7 -7 17.5
t-3 19.5q0 17 11 27t25 10q8 0 22 -7l103 -52q78 -46 189 -93z" />
    <glyph glyph-name="triagdn" unicode="&#x25bc;" horiz-adv-x="444" 
d="M182 78q-48 115 -93 194l-51 98q-7 14 -7 23q0 14 10 25.5t27 11.5q12 0 23 -4t29 -14t20 -11q4 -2 15.5 -7.5t16 -7.5t14 -6t15.5 -5l15 -2q9 -2 18 -2q50 0 93 27q4 2 13.5 8.5t15.5 10t15 7t16 3.5q15 0 26 -11t11 -26q0 -5 -1.5 -11t-5.5 -14t-7.5 -15.5t-11.5 -20.5
t-13.5 -22.5t-16.5 -27.5t-19 -31l-97 -172q-11 -20 -34 -20q-6 0 -10.5 1t-7 1.5t-5.5 3.5t-4 4.5t-4.5 6t-4.5 5.5z" />
    <glyph glyph-name="triaglf" unicode="&#x25c4;" horiz-adv-x="442" 
d="M56 281q118 51 191 93l101 52q14 7 22 7q14 0 25 -10t11 -27q0 -12 -3.5 -23t-13.5 -29.5t-11 -20.5l-10 -19q-6 -13 -8.5 -19t-6.5 -16.5t-5.5 -20t-1.5 -20.5q0 -49 29 -97l9 -13q7 -11 9.5 -16.5t6 -14.5t3.5 -16q0 -16 -11 -27t-25 -11q-17 0 -65.5 28.5t-79.5 49.5
q-23 16 -49.5 31.5t-61.5 35.5t-57 33q-19 11 -19 34q0 7 0.5 11.5t3.5 8.5t4 5.5t6.5 5.5t6.5 5z" />
    <glyph glyph-name="lozenge" unicode="&#x25ca;" horiz-adv-x="529" 
d="M52 391q87 138 140 232q17 33 32.5 48t38.5 16q25 0 37.5 -11t34.5 -48l149 -248q11 -28 11 -34q0 -15 -11 -39q-24 -43 -153 -256q-11 -18 -14.5 -24t-12.5 -16t-18.5 -13t-22.5 -3q-22 0 -35 12.5t-30 40.5l-133 219q-3 5 -10 16t-10.5 18t-7 18.5t-3.5 22.5
q2 24 18 49zM264 74l154 269l-154 268l-156 -271z" />
    <glyph glyph-name="uni261A" unicode="&#x261a;" horiz-adv-x="1031" 
d="M975 417q0 -21 -0.5 -58t-0.5 -58q0 -37 1 -111t1 -111q0 -14 -1 -23.5t-7 -16t-9 -9.5t-16 -4.5t-17.5 -2t-24.5 -0.5q-19 -1 -58 -1h-7q-24 0 -34 1t-20.5 6.5t-14 17.5t-3.5 34q-57 -1 -148 -25q-97 -27 -193 -27q-21 0 -40.5 3t-41 10.5t-34.5 23.5t-13 38q0 13 6 21
q-26 6 -42 25t-16 44q0 19 16 27q-23 8 -39.5 23t-16.5 36q0 31 13 40q-65 0 -99 1q-97 2 -97 66q0 10 2 18t8 14l9 9q4 4 13.5 6.5t14 4t17 2t16.5 0.5h19h16q152 0 271 -3q-22 8 -38.5 31t-16.5 40q0 29 17 46.5t44 17.5q15 0 23 -6q97 -67 160 -98q24 -12 57 -23
q59 -22 124 -25q7 30 55 30q18 0 54 -1.5t53 -1.5q12 0 25 -9.5t13 -21.5z" />
    <glyph glyph-name="uni261B" unicode="&#x261b;" horiz-adv-x="1031" 
d="M56 417q0 12 13 21.5t25 9.5q18 0 54 1.5t53 1.5q48 0 55 -30q65 3 124 25q33 11 57 23q63 31 160 98q8 6 23 6q27 0 44 -17.5t17 -46.5q0 -17 -16.5 -40t-38.5 -31q118 3 271 3h15h16q5 0 15.5 -0.5t15.5 -1.5t13.5 -2.5t12.5 -4.5l11 -7q6 -4 9 -9.5t5 -12.5t2 -16
q0 -64 -97 -66q-34 -1 -99 -1q13 -9 13 -40q0 -21 -16.5 -36t-39.5 -23q16 -8 16 -27q0 -25 -16 -44t-42 -25q6 -8 6 -21q0 -22 -13 -38t-34.5 -23.5t-41 -10.5t-40.5 -3q-96 0 -193 27q-91 24 -148 25q0 -41 -14 -50t-58 -9h-4h-3q-39 0 -58 1q-50 1 -61 9q-14 11 -14 47
q0 37 1 111t1 111q0 21 -0.5 58t-0.5 58z" />
    <glyph glyph-name="uni261C" unicode="&#x261c;" horiz-adv-x="1031" 
d="M975 417q0 -21 -0.5 -58t-0.5 -58q0 -37 1 -111t1 -111q0 -14 -1 -23.5t-7 -16t-9 -9.5t-16 -4.5t-17.5 -2t-24.5 -0.5q-19 -1 -58 -1h-7q-24 0 -34 1t-20.5 6.5t-14 17.5t-3.5 34q-57 -1 -148 -25q-101 -28 -222 -28q-20 0 -39.5 3t-39.5 11t-32.5 24t-12.5 38
q0 14 5 21q-26 6 -41.5 25t-15.5 44q0 20 15 27q-55 19 -55 57q0 22 12 30q-25 0 -38.5 0.5t-37 2.5t-37.5 7t-29 13.5t-22 22.5t-7 33q0 28 20.5 43t41.5 17.5t53 2.5q45 0 131 -3.5t111 -4.5q-29 17 -29 60q0 29 17 49.5t43 20.5q15 0 24 -5q124 -74 163 -93
q24 -12 57 -23q68 -25 124 -28q4 17 17.5 22.5t37.5 5.5q18 0 54 -1.5t54 -1.5q12 0 24.5 -9.5t12.5 -21.5zM315 94q0 -7 4.5 -11.5t13 -7.5t17 -4.5t20.5 -2t19.5 -1t17.5 0t12 0.5q70 0 116 11q18 4 62.5 15t78.5 17t63 6q17 0 25 -1q6 7 6 102v134v31q-66 7 -146 37
q-86 30 -205 109q-26 -1 -26 -30q0 -20 11.5 -36.5t23 -25t32.5 -20.5q5 -3 7 -4q-12 -6 -33 -6q-44 0 -137 2t-137 2q-3 0 -21 0.5t-27 0t-22 -2.5t-19.5 -8t-6.5 -16q0 -18 11 -27t22 -10.5t30 -1.5h276q6 0 11.5 -4.5t5.5 -10.5q0 -16 -17 -16q-51 -2 -126 -2
q-21 0 -31 -1.5t-19 -9.5t-9 -24q0 -10 7.5 -16.5t25 -8.5t27 -2.5t32.5 -0.5q20 0 48 0.5t49 0.5q15 0 15 -13q0 -17 -15 -17q-22 0 -52 -1.5t-51 -1.5q-42 0 -42 -32q0 -26 68 -26q22 0 51 1.5t42 1.5q22 0 22 -18q0 -4 -2.5 -7t-8 -4.5t-10 -2t-13 -1t-12.5 -0.5
q-14 -1 -27.5 -1.5t-19.5 -0.5q-20 -1 -28.5 -8t-8.5 -26z" />
    <glyph glyph-name="uni261E" unicode="&#x261e;" horiz-adv-x="1031" 
d="M56 417q0 12 12.5 21.5t24.5 9.5q17 0 54 1.5t54 1.5q24 0 37.5 -5.5t17.5 -22.5q56 3 124 28q33 11 57 23q39 19 163 93q9 5 24 5q26 0 43 -20.5t17 -49.5q0 -43 -29 -60q25 1 111 4.5t131 3.5q24 0 39.5 -1.5t35.5 -7t30 -19.5t10 -35q0 -19 -7 -33t-22 -22.5
t-29 -13.5t-37.5 -7t-37 -2.5t-38.5 -0.5q12 -8 12 -30q0 -38 -55 -57q15 -7 15 -27q0 -25 -15.5 -44t-41.5 -25q5 -7 5 -21q0 -22 -12.5 -38t-32.5 -24t-39.5 -11t-39.5 -3q-121 0 -222 28q-91 24 -148 25q0 -41 -14 -50t-58 -9h-4h-3q-39 0 -58 1q-50 1 -61 9
q-14 11 -14 47q0 37 1 111t1 111q0 21 -0.5 58t-0.5 58zM716 94q0 19 -8.5 26t-28.5 8q-6 0 -19.5 0.5t-27.5 1.5q-4 0 -12.5 0.5t-13 1t-10 2t-8 4.5t-2.5 7q0 18 22 18q13 0 42 -1.5t51 -1.5q68 0 68 26q0 32 -42 32q-21 0 -51 1.5t-52 1.5q-15 0 -15 17q0 13 15 13
q20 0 48 -0.5t49 -0.5q23 0 32.5 0.5t27 2.5t25 8.5t7.5 16.5q0 16 -9 24t-19 9.5t-31 1.5q-75 0 -126 2q-17 0 -17 16q0 6 5.5 10.5t11.5 4.5h276q19 0 30 1.5t22 10.5t11 27q0 10 -6.5 16t-19.5 8t-22 2.5t-27 0t-21 -0.5q-45 0 -137 -2t-137 -2q-21 0 -33 6q48 28 61 45
q13 18 13 41q0 29 -26 30q-119 -79 -205 -109q-80 -30 -146 -37v-31v-134q0 -95 6 -102q8 1 25 1q29 0 63 -6t78.5 -17t62.5 -15q46 -11 116 -11q2 0 12 -0.5t17.5 0t19.5 1t20.5 2t17 4.5t13 7.5t4.5 11.5z" />
    <glyph glyph-name="smileface" unicode="&#x263a;" horiz-adv-x="757" 
d="M381 686q136 0 231 -96t95 -242q0 -152 -91 -254.5t-235 -102.5q-130 0 -230.5 93t-100.5 238q0 162 98.5 263t232.5 101zM659 345q-1 128 -82 210t-204 82q-121 0 -198 -86.5t-77 -219.5q0 -128 86 -210t205 -82q115 0 192.5 92t77.5 214zM232 309q16 0 20 -24
q6 -46 43.5 -73t88.5 -27q52 0 84.5 28t42.5 71q5 24 22 24q26 0 26 -20v-3q-12 -67 -59.5 -107.5t-113.5 -40.5q-70 0 -123 42.5t-56 108.5q0 21 25 21zM282 389q-18 0 -30.5 12.5t-12.5 31.5t14 31.5t34 12.5t32 -13.5t12 -32.5q0 -20 -14 -31t-35 -11zM475 390
q-18 0 -30.5 12.5t-12.5 31.5t14 31.5t34 12.5t32 -13.5t12 -32.5q0 -20 -14 -31t-35 -11z" />
    <glyph glyph-name="heart" unicode="&#x2665;" horiz-adv-x="607" 
d="M427 473q60 0 96 -33.5t36 -89.5q0 -37 -27 -80t-61 -76.5t-73.5 -78.5t-58.5 -80q-14 -26 -32 -26q-20 0 -32 26q-14 29 -53.5 68.5t-77 71.5t-67 76.5t-29.5 85.5q0 57 38.5 92.5t89.5 35.5q92 0 127 -80q36 88 124 88z" />
    <glyph glyph-name="commaaccent" unicode="&#xf6c3;" horiz-adv-x="180" 
d="M39 -195q0 7 14 21.5t18 28.5q2 4 -3 9t-11.5 14t-6.5 20q0 18 13 30.5t31 12.5q20 0 33.5 -13.5t13.5 -33.5q0 -55 -61 -101q-11 -7 -22 -7q-19 0 -19 19z" />
    <glyph glyph-name="u1F426" unicode="&#x1f426;" horiz-adv-x="829" 
d="M283 12q-5 1 -11 6q-12 10 -26 13l-39 -23q-5 -4 -15.5 -6.5t-17.5 2.5q-5 24 9 32l12 6l-23 -3q-6 -1 -7 3q-1 14 10 19t39 7q56 11 63 61v1q1 1 2 1q-91 24 -135 106t-38 183q2 13 9 29q-22 0 -67 19q-28 11 -34 27q-4 17 5 27q16 13 46 31l8 5v11q37 102 141 102
q78 -5 130 -79l70 -66q34 -27 55 -42.5t51.5 -29t57.5 -13.5q19 0 51 13t56 32q20 16 31 16h9h13q4 0 14 -0.5t15.5 -1.5t14 -2.5t13.5 -4.5t10.5 -6.5t8 -9t2.5 -11.5q-31 -48 -139 -124q-74 -55 -89 -73v1q-55 -105 -131 -132q4 -50 4 -80q0 -15 20 -21q2 -2 7 -2
q25 -8 32 -15t7 -19q-1 -8 -9 -12t-12 -3q-9 12 -37 18l-12 2q0 -39 -23 -39q-16 0 -18 41q-21 -2 -40 -12q-14 -6 -18 -6q-10 0 -10 19q2 19 33 23q17 5 22 8q6 3 10.5 8t7 8.5t3.5 11t1 10.5v11v9q0 10 -3 30q-40 -6 -79 -5q-19 0 -27 1q-1 -13 -13.5 -33.5t-29.5 -31.5
q13 -6 20 -14q17 -20 -10 -33zM751 462l-31 4q-35 -27 -71 -43q-39 -18 -75 -18q-28 0 -58 10q-85 23 -184 122l-9 10q-28 32 -43 47t-37.5 28.5t-43.5 13.5q-29 0 -53.5 -23.5t-24.5 -51.5l-1 -12v-1l-6 -4q-12 -5 -46 -30l-9 -7q40 -22 76 -25q11 0 11 -14v-68
q0 -140 117 -214q44 -24 114 -24q118 0 155 99q-25 -9 -67 -9q-154 0 -219 157q26 16 40 -4q41 -50 92.5 -81.5t99.5 -31.5q47 0 84 19q62 31 113 71q28 22 57.5 51t18.5 29zM187 596q10 3 19.5 -0.5t13.5 -12.5q4 -10 0 -20.5t-16 -14.5q-26 -8 -34 16q-7 24 17 32z" />
    <glyph glyph-name="a.alt" horiz-adv-x="514" 
d="M241 392q-50 0 -98 -25q-13 -5 -24 -5q-15 0 -24 11t-9 28q0 23 38 39q62 25 127 25q91 0 141 -52t51 -143q0 -16 0.5 -54.5t0.5 -55.5q0 -32 1 -61t2 -46t1 -23q0 -14 -11 -23t-29 -9q-32 0 -37 28q-2 44 -3 45q-52 -79 -151 -79q-79 0 -122 35.5t-43 103.5q0 62 49 99
t132 37q73 0 131 -13v15q-1 59 -32.5 91t-90.5 32zM131 135q0 -77 102 -77q47 0 90 31.5t42 68.5v40q-56 11 -122 11q-51 0 -81.5 -18.5t-30.5 -55.5z" />
    <glyph glyph-name="a.altacute" horiz-adv-x="514" 
d="M241 392q-50 0 -98 -25q-13 -5 -24 -5q-15 0 -24 11t-9 28q0 23 38 39q62 25 127 25q91 0 141 -52t51 -143q0 -16 0.5 -54.5t0.5 -55.5q0 -32 1 -61t2 -46t1 -23q0 -14 -11 -23t-29 -9q-32 0 -37 28q-2 44 -3 45q-52 -79 -151 -79q-79 0 -122 35.5t-43 103.5q0 62 49 99
t132 37q73 0 131 -13v15q-1 59 -32.5 91t-90.5 32zM131 135q0 -77 102 -77q47 0 90 31.5t42 68.5v40q-56 11 -122 11q-51 0 -81.5 -18.5t-30.5 -55.5zM230 550q-13 -10 -23 -10q-11 0 -22 9.5t-11 20.5q0 12 9 22q6 7 39 44t55 64q14 17 29 17t27.5 -12.5t12.5 -27.5
q0 -11 -14 -25q-42 -47 -102 -102z" />
    </font>
</defs>
</svg>
